<svg width="25" height="25" viewBox="0 0 25 25" fill="none" xmlns="http://www.w3.org/2000/svg">
<path d="M23.7467 1.30049C23.0449 0.598636 21.9111 0.598636 21.2092 1.30049L12.409 10.0827L3.6088 1.2825C2.90694 0.580639 1.77317 0.580639 1.07132 1.2825C0.369457 1.98435 0.369457 3.11813 1.07132 3.81998L9.87153 12.6202L1.07132 21.4204C0.369457 22.1223 0.369457 23.256 1.07132 23.9579C1.77317 24.6598 2.90694 24.6598 3.6088 23.9579L12.409 15.1577L21.2092 23.9579C21.9111 24.6598 23.0449 24.6598 23.7467 23.9579C24.4486 23.256 24.4486 22.1223 23.7467 21.4204L14.9465 12.6202L23.7467 3.81998C24.4306 3.13612 24.4306 1.98435 23.7467 1.30049Z" fill="#4C4C4C"/>
</svg>
