<svg width="33" height="41" viewBox="0 0 33 41" fill="none" xmlns="http://www.w3.org/2000/svg">
<path d="M32.1228 32.6281C32.001 32.5498 31.0839 31.9144 30.1657 29.9921C28.4793 26.4621 28.1254 21.4894 28.1254 17.9395C28.1254 17.924 28.125 17.9088 28.1245 17.8934C28.1061 13.2017 25.2657 9.15725 21.2011 7.3426V4.56734C21.2011 2.04888 19.133 0 16.591 0L16.209 0C13.6669 0 11.5989 2.04888 11.5989 4.56734V7.34244C7.52066 9.16294 4.67462 13.228 4.67462 17.9395C4.67462 21.4894 4.32066 26.4621 2.63431 29.9921C1.71613 31.9143 0.799078 32.5498 0.67715 32.6281C0.163692 32.8631 -0.0894744 33.406 0.0286484 33.9562C0.147905 34.5119 0.673021 34.895 1.24647 34.895H10.1479C10.1977 38.2696 12.9822 41 16.4 41C19.8178 41 22.6024 38.2696 22.6521 34.895H31.5536C32.127 34.895 32.6522 34.5119 32.7714 33.9562C32.8894 33.406 32.6363 32.863 32.1228 32.6281ZM14.0278 4.56734C14.0278 3.37569 15.0063 2.40627 16.209 2.40627H16.5911C17.7939 2.40627 18.7724 3.37569 18.7724 4.56734V6.56264C18.0058 6.40593 17.2123 6.32345 16.3997 6.32345C15.5873 6.32345 14.7941 6.40585 14.0279 6.5624V4.56734H14.0278ZM16.4 38.5937C14.3215 38.5937 12.6261 36.9428 12.5768 34.8951H20.2232C20.174 36.9427 18.4786 38.5937 16.4 38.5937ZM21.2901 32.4887C21.2899 32.4887 4.01414 32.4887 4.01414 32.4887C4.22423 32.1648 4.43805 31.7981 4.65058 31.3837C6.27823 28.2092 7.10355 23.6859 7.10355 17.9395C7.10355 12.8612 11.2738 8.72972 16.3996 8.72972C21.5255 8.72972 25.6957 12.8612 25.6957 17.9435C25.6957 17.9583 25.6959 17.9731 25.6965 17.9878C25.7011 23.7111 26.5264 28.2182 28.1495 31.3837C28.362 31.7982 28.5759 32.1648 28.7859 32.4887H21.2901Z" fill="#4C4C4C"/>
</svg>
