<svg width="107" height="107" viewBox="0 0 107 107" fill="none" xmlns="http://www.w3.org/2000/svg">
<path d="M106.174 53.0871C106.174 82.4067 82.4067 106.174 53.0871 106.174C23.7675 106.174 0 82.4067 0 53.0871C0 23.7675 23.7675 0 53.0871 0C82.4067 0 106.174 23.7675 106.174 53.0871Z" fill="white"/>
<path d="M106.175 53.0869C106.175 52.818 106.168 52.5499 106.164 52.2818L71.5095 17.6272L26.2085 81.6062L50.7213 106.119C51.5062 106.153 52.2944 106.174 53.0874 106.174C82.407 106.174 106.175 82.4065 106.175 53.0869Z" fill="#DCE1EB"/>
<path d="M34.665 26.0847H79.966V90.2071H34.665V26.0847Z" fill="#FFCE00"/>
<path d="M56.0894 26.0847H79.9663V90.2071H56.0894V26.0847Z" fill="#FFB600"/>
<path d="M26.2085 17.6272H71.5095V81.6062H26.2085V17.6272Z" fill="white"/>
<path d="M49.1768 17.6272H71.5089V81.6062H49.1768V17.6272Z" fill="#DCE1EB"/>
<path d="M52.7371 33.5284C52.7371 40.123 47.3916 45.4693 40.797 45.4693C34.2024 45.4693 28.8569 40.123 28.8569 33.5284C28.8569 26.9347 34.2024 21.5884 40.797 21.5884C47.3916 21.5884 52.7371 26.9347 52.7371 33.5284Z" fill="#B5EFFF"/>
<path d="M40.797 21.5884C40.7921 21.5884 40.7881 21.5892 40.7832 21.5892V45.4685H40.797C47.3916 45.4685 52.737 40.123 52.737 33.5284C52.737 26.9347 47.3916 21.5884 40.797 21.5884Z" fill="#80DBFF"/>
<path d="M45.9838 31.0317C45.9838 33.896 43.6614 36.2176 40.7971 36.2176C37.9328 36.2176 35.6104 33.896 35.6104 31.0317C35.6104 28.1666 37.9328 25.845 40.7971 25.845C43.6614 25.845 45.9838 28.1666 45.9838 31.0317Z" fill="#FAA68E"/>
<path d="M40.797 25.845C40.7921 25.845 40.7873 25.845 40.7832 25.845V36.2176C40.7873 36.2176 40.7921 36.2184 40.797 36.2184C43.6613 36.2184 45.9837 33.896 45.9837 31.0317C45.9837 28.1674 43.6613 25.845 40.797 25.845Z" fill="#D47F6C"/>
<path d="M32.5503 42.1628C34.6937 44.2106 37.5985 45.4694 40.7974 45.4694C43.9954 45.4694 46.9011 44.2114 49.0444 42.1628C47.7314 38.8951 44.5349 36.5864 40.7974 36.5864C37.0598 36.5864 33.8634 38.8951 32.5503 42.1628Z" fill="#FFCE00"/>
<path d="M49.044 42.1631C47.731 38.8954 44.5345 36.5859 40.797 36.5859C40.7921 36.5859 40.7873 36.5867 40.7832 36.5867V45.4689H40.797C43.9958 45.4697 46.9007 44.2117 49.044 42.1631Z" fill="#FFB600"/>
<path d="M31.7158 51.428H66.0018V57.2344H31.7158V51.428Z" fill="#707789"/>
<path d="M49.1768 51.428H66.0014V57.2344H49.1768V51.428Z" fill="#555A66"/>
<path d="M31.7158 60.29H66.0018V66.0964H31.7158V60.29Z" fill="#707789"/>
<path d="M31.7158 69.1528H66.0018V74.9592H31.7158V69.1528Z" fill="#707789"/>
<path d="M49.1768 60.29H66.0014V66.0964H49.1768V60.29Z" fill="#555A66"/>
<path d="M49.1768 69.1528H66.0014V74.9592H49.1768V69.1528Z" fill="#555A66"/>
</svg>
