<svg width="93" height="93" viewBox="0 0 93 93" fill="none" xmlns="http://www.w3.org/2000/svg">
<path d="M46.5 93C72.1812 93 93 72.1812 93 46.5C93 20.8188 72.1812 0 46.5 0C20.8188 0 0 20.8188 0 46.5C0 72.1812 20.8188 93 46.5 93Z" fill="#80DBFF"/>
<path d="M92.8692 50.0021L70.7186 27.8516L22.2812 76.5616L37.9281 92.2085C40.7067 92.7263 43.5712 93.0001 46.4999 93.0001C71.0031 93.0001 91.0786 74.0475 92.8692 50.0021Z" fill="#4AB8F7"/>
<path d="M56.4902 13.6226H22.2812V76.561H70.7186V27.851L56.4902 13.6226Z" fill="white"/>
<path d="M70.719 27.851L56.4905 13.6226H46.4224V76.561H70.719V27.851Z" fill="#F2F6FC"/>
<path d="M56.4902 27.851H70.7187L56.4902 13.6226V27.851Z" fill="#DCE1EB"/>
<path d="M46.5001 68.5989C57.1007 68.5989 65.6941 60.0054 65.6941 49.4049C65.6941 38.8044 57.1007 30.2109 46.5001 30.2109C35.8996 30.2109 27.3062 38.8044 27.3062 49.4049C27.3062 60.0054 35.8996 68.5989 46.5001 68.5989Z" fill="#FF432E"/>
<path d="M46.5003 30.2129C46.4743 30.2129 46.4485 30.2138 46.4224 30.2138V68.5985C46.4483 68.5986 46.4741 68.5994 46.5003 68.5994C57.1005 68.5994 65.6937 60.0063 65.6937 49.4059C65.6937 38.8056 57.1005 30.2129 46.5003 30.2129Z" fill="#DB0404"/>
<path d="M58.7827 45.7041H34.2158V52.9734H58.7827V45.7041Z" fill="white"/>
<path d="M58.7825 45.7041H46.4219V52.9734H58.7825V45.7041Z" fill="white"/>
</svg>
