<svg width="96" height="96" viewBox="0 0 96 96" fill="none" xmlns="http://www.w3.org/2000/svg">
<path d="M48 96C74.5097 96 96 74.5097 96 48C96 21.4903 74.5097 0 48 0C21.4903 0 0 21.4903 0 48C0 74.5097 21.4903 96 48 96Z" fill="#FFD400"/>
<path d="M96.0001 48.0002C96.0001 46.4756 95.9259 44.9685 95.7868 43.4803L80.7412 28.4346L64.2315 46.4891L46.1769 28.4346L15.2593 59.526L33.5415 77.8082L29.7189 80.8245L44.7849 95.8905C45.8478 95.9608 46.9194 96.0002 48.0001 96.0002C74.5098 96.0002 96.0001 74.5099 96.0001 48.0002Z" fill="#FFB000"/>
<path d="M71.6587 19.3525H49.8232V59.5261H80.7407V28.4347L71.6587 19.3525Z" fill="#F2F6FC"/>
<path d="M71.6592 28.4347H80.7411L71.6592 19.3525V28.4347Z" fill="#DCE1EB"/>
<path d="M37.0948 19.3525H15.2593V59.5261H46.1767V28.4347L37.0948 19.3525Z" fill="white"/>
<path d="M37.0947 28.4347H46.1767L37.0947 19.3525V28.4347Z" fill="#E9EDF5"/>
<path d="M55.5411 33.3159H29.7188V80.8245H66.2812V44.0563L55.5411 33.3159Z" fill="#64B044"/>
<path d="M66.2811 44.0563L55.5409 33.3159H47.9194V80.8243H66.2811V44.0563Z" fill="#678C41"/>
<path d="M55.541 44.0563H66.2812L55.541 33.3159V44.0563Z" fill="#64B044"/>
<path d="M44.7017 72.8656L34.9106 63.0746L39.8164 58.169L44.7017 63.0545L56.1835 51.5728L61.0888 56.4783L44.7017 72.8656Z" fill="white"/>
<path d="M56.1835 51.5728L47.9194 59.8366V69.6478L61.0889 56.4783L56.1835 51.5728Z" fill="#F2F6FC"/>
</svg>
