<svg width="116" height="116" viewBox="0 0 116 116" fill="none" xmlns="http://www.w3.org/2000/svg">
<path d="M78.2996 52.2008C83.1045 52.2008 86.9996 48.3057 86.9996 43.5008C86.9996 38.6959 83.1045 34.8008 78.2996 34.8008C73.4947 34.8008 69.5996 38.6959 69.5996 43.5008C69.5996 48.3057 73.4947 52.2008 78.2996 52.2008Z" fill="#F07500"/>
<path d="M37.7 52.2008C42.5049 52.2008 46.4 48.3057 46.4 43.5008C46.4 38.6959 42.5049 34.8008 37.7 34.8008C32.8951 34.8008 29 38.6959 29 43.5008C29 48.3057 32.8951 52.2008 37.7 52.2008Z" fill="#F07500"/>
<path d="M57.942 0C25.926 0 0 25.984 0 58C0 90.016 25.926 116 57.942 116C90.016 116 116 90.016 116 58C116 25.984 90.016 0 57.942 0ZM58 104.4C32.364 104.4 11.6 83.636 11.6 58C11.6 32.364 32.364 11.6 58 11.6C83.636 11.6 104.4 32.364 104.4 58C104.4 83.636 83.636 104.4 58 104.4ZM83.578 68.962C81.548 67.686 78.822 68.324 77.604 70.354C73.312 77.14 66.004 81.2 58 81.2C49.996 81.2 42.688 77.14 38.396 70.296C37.12 68.266 34.452 67.628 32.422 68.904C30.392 70.18 29.754 72.848 31.03 74.878C36.946 84.332 46.98 89.9 58 89.9C69.02 89.9 79.054 84.274 84.97 74.936C86.246 72.906 85.608 70.238 83.578 68.962Z" fill="#F07500"/>
</svg>
