<svg width="116" height="116" viewBox="0 0 116 116" fill="none" xmlns="http://www.w3.org/2000/svg">
<path d="M78.2996 52.2008C83.1045 52.2008 86.9996 48.3057 86.9996 43.5008C86.9996 38.6959 83.1045 34.8008 78.2996 34.8008C73.4947 34.8008 69.5996 38.6959 69.5996 43.5008C69.5996 48.3057 73.4947 52.2008 78.2996 52.2008Z" fill="#4D5160"/>
<path d="M37.7 52.2008C42.5049 52.2008 46.4 48.3057 46.4 43.5008C46.4 38.6959 42.5049 34.8008 37.7 34.8008C32.8951 34.8008 29 38.6959 29 43.5008C29 48.3057 32.8951 52.2008 37.7 52.2008Z" fill="#4D5160"/>
<path d="M57.942 0C25.926 0 0 25.984 0 58C0 90.016 25.926 116 57.942 116C90.016 116 116 90.016 116 58C116 25.984 90.016 0 57.942 0ZM58 104.4C32.364 104.4 11.6 83.636 11.6 58C11.6 32.364 32.364 11.6 58 11.6C83.636 11.6 104.4 32.364 104.4 58C104.4 83.636 83.636 104.4 58 104.4ZM58 69.6C46.98 69.6 36.946 75.226 31.03 84.564C29.754 86.594 30.392 89.262 32.422 90.538C34.452 91.814 37.12 91.176 38.396 89.146C42.688 82.302 49.996 78.242 58 78.242C66.004 78.242 73.312 82.302 77.604 89.146C78.416 90.48 79.866 91.176 81.316 91.176C82.128 91.176 82.882 90.944 83.636 90.538C85.666 89.262 86.304 86.594 85.028 84.564C79.054 75.168 69.02 69.6 58 69.6Z" fill="#4D5160"/>
</svg>
