<svg width="1440" height="244" viewBox="0 0 1440 244" fill="none" xmlns="http://www.w3.org/2000/svg">
<path d="M1264.23 191.25C1264.23 191.25 1275.13 206.6 1297.49 196.463C1313.26 189.256 1303.07 170.181 1303.07 170.181C1303.07 170.181 1336.84 172.031 1336.84 127.468C1336.84 75.2889 1314.17 80.5981 1314.17 80.5981C1314.17 80.5981 1318.2 50.1605 1296.43 42.5211C1296.43 42.5211 1295.97 17.4648 1262.23 19.0744C1243.06 19.9872 1237.89 45.1397 1237.89 45.1397C1237.89 45.1397 1210.31 51.9142 1210.31 75.337C1210.31 98.7597 1210.15 132.513 1213.17 147.599C1216.19 162.686 1231.55 167.442 1231.55 167.442C1231.55 167.442 1216.97 185.868 1245.34 194.661C1257.99 198.577 1264.23 191.25 1264.23 191.25Z" fill="#A7B816"/>
<path d="M1275.36 226.567L1273.05 160.191L1303.27 126.078L1271.25 152.599L1263.39 60.4219L1259.28 152.599L1242.8 147.867L1259.66 157.933L1256.6 226.567H1275.36Z" fill="#845600"/>
<path d="M1355.07 105.472C1355.07 151.116 1340.82 179.464 1323.2 179.464C1305.58 179.464 1291.36 150.996 1291.36 105.472C1291.36 59.9479 1323.22 23 1323.22 23C1323.22 23 1355.07 59.9239 1355.07 105.472Z" fill="#C7AB22"/>
<path d="M1355.07 105.472C1355.07 151.116 1340.82 179.464 1323.2 179.464V23C1323.2 23 1355.07 59.9239 1355.07 105.472Z" fill="#D9BA25"/>
<path d="M1421.39 222H-5.38907C-26.161 222 -43 227.526 -43 234.342V242.658C-43 249.474 -26.161 255 -5.38907 255H1421.39C1442.16 255 1459 249.474 1459 242.658V234.342C1459 227.526 1442.16 222 1421.39 222Z" fill="#BFD438"/>
<path d="M1430.44 234.91H1414.44C1413.77 234.91 1413.12 234.657 1412.65 234.207C1412.17 233.756 1411.9 233.145 1411.9 232.508C1411.9 231.871 1412.17 231.26 1412.65 230.809C1413.12 230.359 1413.77 230.105 1414.44 230.105H1430.44C1431.11 230.105 1431.75 230.359 1432.23 230.809C1432.7 231.26 1432.97 231.871 1432.97 232.508C1432.97 233.145 1432.7 233.756 1432.23 234.207C1431.75 234.657 1431.11 234.91 1430.44 234.91Z" fill="#BACA2C"/>
<path d="M1382.95 234.91H1366.96C1366.29 234.91 1365.64 234.657 1365.17 234.207C1364.69 233.756 1364.42 233.145 1364.42 232.508C1364.42 231.871 1364.69 231.26 1365.17 230.809C1365.64 230.359 1366.29 230.105 1366.96 230.105H1382.95C1383.63 230.105 1384.27 230.359 1384.75 230.809C1385.22 231.26 1385.49 231.871 1385.49 232.508C1385.49 233.145 1385.22 233.756 1384.75 234.207C1384.27 234.657 1383.63 234.91 1382.95 234.91Z" fill="#BACA2C"/>
<path d="M1065.45 233.156H1049.45C1048.78 233.156 1048.13 232.903 1047.66 232.453C1047.18 232.002 1046.92 231.391 1046.92 230.754C1046.92 230.117 1047.18 229.506 1047.66 229.055C1048.13 228.605 1048.78 228.352 1049.45 228.352H1065.45C1066.12 228.352 1066.76 228.605 1067.24 229.055C1067.72 229.506 1067.98 230.117 1067.98 230.754C1067.98 231.391 1067.72 232.002 1067.24 232.453C1066.76 232.903 1066.12 233.156 1065.45 233.156Z" fill="#BACA2C"/>
<path d="M1018.24 234.91H1002.27C1001.6 234.91 1000.95 234.657 1000.48 234.207C1000 233.756 999.734 233.145 999.734 232.508C999.734 231.871 1000 231.26 1000.48 230.809C1000.95 230.359 1001.6 230.105 1002.27 230.105H1018.24C1018.91 230.105 1019.56 230.359 1020.03 230.809C1020.51 231.26 1020.78 231.871 1020.78 232.508C1020.78 233.145 1020.51 233.756 1020.03 234.207C1019.56 234.657 1018.91 234.91 1018.24 234.91Z" fill="#BACA2C"/>
<path d="M1032.11 245.168H1016.14C1015.46 245.168 1014.82 244.915 1014.34 244.464C1013.87 244.014 1013.6 243.403 1013.6 242.766C1013.6 242.128 1013.87 241.517 1014.34 241.067C1014.82 240.616 1015.46 240.363 1016.14 240.363H1032.11C1032.78 240.363 1033.43 240.616 1033.9 241.067C1034.38 241.517 1034.64 242.128 1034.64 242.766C1034.64 243.403 1034.38 244.014 1033.9 244.464C1033.43 244.915 1032.78 245.168 1032.11 245.168Z" fill="#BACA2C"/>
<path d="M1405.77 241.637H1050.13C1043.06 241.637 1037.33 247.068 1037.33 253.768V261.96C1037.33 268.661 1043.06 274.092 1050.13 274.092H1405.77C1412.84 274.092 1418.57 268.661 1418.57 261.96V253.768C1418.57 247.068 1412.84 241.637 1405.77 241.637Z" fill="#FCD135"/>
<g style="mix-blend-mode:multiply">
<path d="M1323.17 226.109H1233.2L1222.2 227.671C1214.58 226.071 1206.79 225.353 1199 225.533C1184.09 225.533 1172 227.479 1172 229.881C1172 232.283 1184.09 234.253 1199 234.253H1201.69L1196.62 240.499H1200.85L1202.24 238.097L1228.08 240.74L1238.22 238.914L1255.48 240.74L1323.17 226.109ZM1204.02 235.527L1204.5 234.71L1238.29 238.986L1204.02 235.527Z" fill="#B5A78D"/>
</g>
<g style="mix-blend-mode:multiply">
<path d="M210.173 222.604H120.199L109.196 224.165C101.584 222.565 93.7947 221.847 85.9996 222.027C71.0928 222.027 59 223.973 59 226.375C59 228.778 71.0928 230.747 85.9996 230.747H88.6869L83.6166 236.993H87.8503L89.2447 234.591L115.078 237.234L125.219 235.408L142.483 237.234L210.173 222.604ZM91.0193 232.021L91.501 231.204L125.295 235.48L91.0193 232.021Z" fill="#B5A78D"/>
</g>
<g style="mix-blend-mode:multiply">
<path d="M1387.49 230.562C1382.42 230.562 1377.91 230.778 1373.93 231.162C1366.63 229.785 1359.19 229.157 1351.75 229.289C1336.84 229.289 1324.72 231.234 1324.72 233.637C1324.72 236.039 1336.84 238.009 1351.75 238.009C1356.69 238.009 1361.33 237.769 1365.31 237.408C1372.61 238.787 1380.05 239.415 1387.49 239.282C1402.4 239.282 1414.52 237.312 1414.52 234.91C1414.52 232.508 1402.4 230.562 1387.49 230.562Z" fill="#B5A78D"/>
</g>
<path d="M1244.5 149.955C1244.5 191.875 1234.95 218.085 1223.11 218.085C1211.27 218.085 1201.71 191.875 1201.71 149.955C1201.71 108.034 1223.11 74.041 1223.11 74.041C1223.11 74.041 1244.5 108.034 1244.5 149.955Z" fill="#FF8B2C"/>
<path d="M1246.11 149.914C1246.11 191.834 1236.75 217.684 1227.09 217.684C1222.02 217.684 1224.71 170.598 1224.71 128.797V74C1224.71 74 1246.11 107.993 1246.11 149.914Z" fill="#FFA230"/>
<path d="M1220.45 234.229H1226.05L1223.23 123.434L1220.45 234.229Z" fill="#8E5E31"/>
<path d="M1387.49 139.105C1387.49 188.233 1376.28 218.911 1362.39 218.911C1348.5 218.911 1337.32 188.233 1337.32 139.105C1337.32 89.9774 1362.34 50.2188 1362.34 50.2188C1362.34 50.2188 1387.49 90.0014 1387.49 139.105Z" fill="#FF6A4A"/>
<path d="M1387.49 139.104C1387.49 188.231 1376.28 218.909 1362.39 218.909V50.1934C1362.39 50.1934 1387.49 90 1387.49 139.104Z" fill="#FF7F63"/>
<path d="M1359.27 236.326H1365.84L1362.42 146.887L1359.27 236.326Z" fill="#B06731"/>
<path d="M1320.42 230.787H1326.42L1323.29 98.4297L1320.42 230.787Z" fill="#B06731"/>
<path d="M1424.66 128.368C1424.66 182.444 1412.28 216.221 1397.05 216.221C1381.81 216.221 1369.44 182.444 1369.44 128.368C1369.44 74.2912 1397.05 30.4727 1397.05 30.4727C1397.05 30.4727 1424.66 74.2912 1424.66 128.368Z" fill="#8DC730"/>
<path d="M1424.66 128.368C1424.66 182.444 1412.59 215.741 1400.12 215.741C1393.52 215.741 1397.05 155.058 1397.05 100.981V30.4727C1397.05 30.4727 1424.66 74.2912 1424.66 128.368Z" fill="#A2D43F"/>
<path d="M1393.45 237.264H1400.65L1396.9 88.3672L1393.45 237.264Z" fill="#C39F62"/>
<path d="M75.2886 223.268L80.7793 79.7201C80.7793 77.3516 81.6047 75.4316 83.9732 75.4316C86.3417 75.4316 87.1492 77.3516 87.1492 79.7201L92.6399 223.268" fill="#29803B"/>
<path d="M91.1147 35.3486C90.9918 47.3936 88.5552 59.3027 83.9373 70.428C79.2266 59.3359 76.7988 47.4085 76.7988 35.3576C76.7988 23.3067 79.2266 11.3792 83.9373 0.287109C88.5538 11.4066 90.9904 23.3096 91.1147 35.3486Z" fill="#82B7FF"/>
<path opacity="0.4" d="M85.6069 35.3476C85.6056 44.8034 85.0604 54.2513 83.974 63.6444C81.773 44.8441 81.773 25.8511 83.974 7.05078C85.0596 16.444 85.6047 25.8919 85.6069 35.3476V35.3476Z" fill="white"/>
<path d="M45.7537 89.1961C56.2312 83.2697 67.7508 79.4136 79.6847 77.8379C72.4383 87.4519 63.331 95.5091 52.9053 101.53C42.4797 107.55 30.9489 111.411 19 112.881C26.318 103.345 35.4006 95.3042 45.7537 89.1961V89.1961Z" fill="#82B7FF"/>
<path opacity="0.4" d="M48.4998 93.9524C56.6842 89.2221 65.1379 84.9742 73.818 81.2305C58.6344 92.5286 42.1897 102.025 24.8145 109.527C32.4027 103.883 40.311 98.6831 48.4998 93.9524V93.9524Z" fill="white"/>
<path d="M122.193 89.1961C111.708 83.2708 100.183 79.4148 88.2437 77.8379C95.4983 87.46 104.617 95.522 115.056 101.543C125.494 107.564 137.039 111.42 149 112.881C141.666 103.34 132.565 95.2986 122.193 89.1961V89.1961Z" fill="#82B7FF"/>
<path opacity="0.4" d="M119.483 93.9524C111.291 89.2239 102.832 84.976 94.1465 81.2305C109.333 92.5339 125.784 102.03 143.168 109.527C135.576 103.888 127.668 98.6883 119.483 93.9524V93.9524Z" fill="white"/>
<path d="M91.1136 75.361C91.1136 76.7805 90.6926 78.1682 89.9039 79.3485C89.1153 80.5288 87.9943 81.4488 86.6829 81.992C85.3714 82.5353 83.9282 82.6774 82.536 82.4005C81.1437 82.1235 79.8648 81.4399 78.861 80.4361C77.8572 79.4324 77.1736 78.1535 76.8967 76.7612C76.6198 75.3689 76.7619 73.9258 77.3051 72.6143C77.8484 71.3028 78.7683 70.1819 79.9486 69.3932C81.129 68.6046 82.5166 68.1836 83.9362 68.1836C85.8398 68.1836 87.6654 68.9398 89.0114 70.2858C90.3574 71.6318 91.1136 73.4574 91.1136 75.361Z" fill="#38B752"/>
<path d="M87.5441 75.3621C87.5441 76.0719 87.3336 76.7657 86.9393 77.3559C86.545 77.9461 85.9845 78.406 85.3287 78.6776C84.673 78.9492 83.9514 79.0203 83.2553 78.8819C82.5591 78.7434 81.9197 78.4016 81.4178 77.8997C80.9159 77.3978 80.5741 76.7584 80.4357 76.0623C80.2972 75.3661 80.3682 74.6446 80.6399 73.9888C80.9115 73.3331 81.3715 72.7726 81.9616 72.3783C82.5518 71.9839 83.2456 71.7734 83.9554 71.7734C84.9072 71.7734 85.82 72.1515 86.493 72.8245C87.166 73.4975 87.5441 74.4103 87.5441 75.3621Z" fill="#95DC5F"/>
<path d="M180.031 222.981L184.424 101.965C184.424 99.9682 185.084 98.3496 186.979 98.3496C188.874 98.3496 189.52 99.9682 189.52 101.965L193.912 222.981" fill="#29803B"/>
<path d="M192.692 64.5581C192.594 74.7124 190.644 84.7522 186.95 94.1313C183.181 84.7803 181.239 74.725 181.239 64.5657C181.239 54.4063 183.181 44.351 186.95 35C190.643 44.3741 192.593 54.4088 192.692 64.5581Z" fill="#82B7FF"/>
<path opacity="0.4" d="M188.286 64.5564C188.285 72.528 187.848 80.4928 186.979 88.4116C185.218 72.5623 185.218 56.5505 186.979 40.7012C187.848 48.62 188.284 56.5849 188.286 64.5564V64.5564Z" fill="white"/>
<path d="M156.403 109.954C164.785 104.958 174.001 101.707 183.548 100.379C177.751 108.484 170.465 115.276 162.124 120.352C153.784 125.427 144.559 128.682 135 129.922C140.854 121.882 148.121 115.104 156.403 109.954V109.954Z" fill="#82B7FF"/>
<path opacity="0.4" d="M158.6 113.963C165.147 109.976 171.91 106.394 178.854 103.238C166.707 112.763 153.552 120.768 139.651 127.094C145.722 122.335 152.049 117.951 158.6 113.963V113.963Z" fill="white"/>
<path d="M217.555 109.954C209.167 104.959 199.947 101.708 190.396 100.379C196.199 108.491 203.494 115.287 211.845 120.363C220.196 125.439 229.432 128.69 239.001 129.922C233.134 121.878 225.853 115.099 217.555 109.954V109.954Z" fill="#82B7FF"/>
<path opacity="0.4" d="M215.386 113.963C208.833 109.977 202.065 106.396 195.117 103.238C207.266 112.767 220.427 120.773 234.334 127.094C228.261 122.34 221.935 117.956 215.386 113.963V113.963Z" fill="white"/>
<path d="M192.691 98.2891C192.691 99.4858 192.354 100.656 191.723 101.651C191.092 102.646 190.195 103.421 189.146 103.879C188.097 104.337 186.943 104.457 185.829 104.224C184.715 103.99 183.692 103.414 182.889 102.568C182.086 101.721 181.539 100.643 181.317 99.4695C181.096 98.2958 181.21 97.0792 181.644 95.9735C182.079 94.8679 182.815 93.9229 183.759 93.258C184.703 92.5932 185.813 92.2383 186.949 92.2383C188.472 92.2383 189.932 92.8758 191.009 94.0105C192.086 95.1453 192.691 96.6843 192.691 98.2891Z" fill="#38B752"/>
<path d="M189.836 98.291C189.836 98.8894 189.667 99.4743 189.352 99.9718C189.036 100.469 188.588 100.857 188.063 101.086C187.539 101.315 186.962 101.375 186.405 101.258C185.848 101.142 185.336 100.853 184.935 100.43C184.533 100.007 184.26 99.4681 184.149 98.8813C184.038 98.2944 184.095 97.6861 184.312 97.1333C184.53 96.5805 184.898 96.1079 185.37 95.7755C185.842 95.4431 186.397 95.2656 186.965 95.2656C187.726 95.2656 188.456 95.5844 188.995 96.1517C189.533 96.7191 189.836 97.4886 189.836 98.291Z" fill="#95DC5F"/>
</svg>
