<svg width="643" height="469" viewBox="0 0 643 469" fill="none" xmlns="http://www.w3.org/2000/svg">
<path d="M570.906 246.382C570.906 110.369 460.536 0 324.524 0C188.511 0 77.9688 110.196 77.9688 246.382C77.9688 324.004 113.834 393.31 169.972 438.359H478.729C535.04 393.31 570.906 324.004 570.906 246.382Z" fill="#CFECFF"/>
<path d="M323.658 437.666H314.475C300.787 437.666 289.698 426.577 289.698 412.889V392.271H348.434V412.889C348.434 426.577 337.345 437.666 323.658 437.666Z" fill="#222023"/>
<path d="M347.568 414.967H291.258C281.035 414.967 272.545 406.651 272.545 396.255V328.509H366.108V396.428C366.108 406.651 357.791 414.967 347.568 414.967Z" fill="#A59AA5"/>
<path d="M366.454 368.359H271.505C265.268 368.359 260.243 363.335 260.243 357.097C260.243 350.86 265.268 345.835 271.505 345.835H366.454C372.692 345.835 377.716 350.86 377.716 357.097C377.716 363.335 372.692 368.359 366.454 368.359Z" fill="#C2B8C2"/>
<path d="M309.624 368.359H289.698C283.461 368.359 278.436 363.335 278.436 357.097C278.436 350.86 283.461 345.835 289.698 345.835H309.624C315.861 345.835 320.886 350.86 320.886 357.097C320.886 363.335 315.861 368.359 309.624 368.359Z" fill="#DBD5DB"/>
<path d="M366.454 402.492H271.505C265.268 402.492 260.243 397.467 260.243 391.229C260.243 384.992 265.268 379.967 271.505 379.967H366.454C372.692 379.967 377.716 384.992 377.716 391.229C377.716 397.467 372.692 402.492 366.454 402.492Z" fill="#C2B8C2"/>
<path d="M300.267 402.492H299.054C292.817 402.492 287.792 397.467 287.792 391.229C287.792 384.992 292.817 379.967 299.054 379.967H300.267C306.505 379.967 311.529 384.992 311.529 391.229C311.529 397.467 306.505 402.492 300.267 402.492Z" fill="#DBD5DB"/>
<path d="M452.566 173.264C452.566 105.344 392.964 50.2461 319.326 50.2461C245.689 50.2461 186.086 105.344 186.086 173.264C186.086 213.981 207.571 250.02 240.491 272.544C240.491 272.544 255.911 281.034 257.644 304.078V320.712C257.644 328.509 264.401 334.746 272.891 334.746H365.761C374.251 334.746 381.008 328.509 381.008 320.712V304.078C382.741 281.034 397.815 272.718 397.815 272.718C431.082 250.193 452.566 214.154 452.566 173.264Z" fill="#F1B030"/>
<path d="M414.853 205.447C426.171 153.56 393.282 102.322 341.395 91.0049C289.508 79.6874 238.27 112.576 226.953 164.463C215.636 216.35 248.524 267.587 300.411 278.905C352.298 290.222 403.536 257.334 414.853 205.447Z" fill="#FFC46C"/>
<path d="M305.292 334.746V195.962C305.292 185.739 296.975 177.422 286.752 177.422C276.53 177.422 268.213 185.739 268.213 195.962V206.358C268.213 216.58 276.53 224.897 286.752 224.897H318.806" stroke="white" stroke-width="2.2052" stroke-miterlimit="10"/>
<path d="M332.668 334.747V195.962C332.668 185.74 340.985 177.423 351.207 177.423C361.43 177.423 369.746 185.74 369.746 195.962V206.358C369.746 216.581 361.43 224.897 351.207 224.897H316.728" stroke="white" stroke-width="2.2052" stroke-miterlimit="10"/>
<path d="M239.971 115.048C248.808 104.306 259.723 95.2962 272.025 88.7122" stroke="white" stroke-width="13.1376" stroke-miterlimit="10" stroke-linecap="round" stroke-linejoin="round"/>
<path d="M218.833 202.202C217.447 195.271 216.581 188.167 216.581 180.89" stroke="white" stroke-width="9.0321" stroke-miterlimit="10" stroke-linecap="round" stroke-linejoin="round"/>
<path d="M425.191 180.89C425.191 190.593 423.805 200.123 421.379 209.132" stroke="white" stroke-width="9.0321" stroke-miterlimit="10" stroke-linecap="round" stroke-linejoin="round"/>
<path d="M0 437.666H628.257" stroke="#222021" stroke-width="0.9905" stroke-miterlimit="10"/>
<path d="M104.478 467.987H278.955" stroke="#222021" stroke-width="0.9905" stroke-miterlimit="10"/>
<path d="M638.652 285.022H609.544C607.638 285.022 606.079 283.462 606.079 281.556C606.079 279.65 607.638 278.091 609.544 278.091H638.652C640.558 278.091 642.118 279.65 642.118 281.556C642.291 283.462 640.731 285.022 638.652 285.022Z" fill="#F79B6B"/>
<path d="M118.513 51.1146H59.0835C57.1775 51.1146 55.6182 49.5553 55.6182 47.6494C55.6182 45.7435 57.1775 44.1841 59.0835 44.1841H118.513C120.419 44.1841 121.978 45.7435 121.978 47.6494C121.978 49.5553 120.419 51.1146 118.513 51.1146Z" fill="#FFBC7C"/>
<path d="M576.97 59.2572H571.426C570.04 59.2572 568.827 58.0443 568.827 56.6582V51.4603C568.827 50.0742 570.04 48.8613 571.426 48.8613H576.97C578.356 48.8613 579.569 50.0742 579.569 51.4603V56.6582C579.742 58.0443 578.529 59.2572 576.97 59.2572Z" fill="#FFBC7C"/>
<path d="M13.5145 277.051H7.97007C6.58395 277.051 5.37109 275.838 5.37109 274.452V269.254C5.37109 267.868 6.58395 266.655 7.97007 266.655H13.5145C14.9006 266.655 16.1135 267.868 16.1135 269.254V274.452C16.2867 275.838 15.0739 277.051 13.5145 277.051Z" fill="#FFBC7C"/>
<path d="M149.527 222.127H144.675C143.462 222.127 142.423 221.088 142.423 219.875V215.37C142.423 214.157 143.462 213.117 144.675 213.117H149.527C150.74 213.117 151.779 214.157 151.779 215.37V219.875C151.952 220.914 150.913 221.954 149.527 222.127Z" fill="white"/>
<path d="M333.534 27.2045H304.599C302.693 27.2045 301.134 25.6451 301.134 23.7392C301.134 21.8333 302.693 20.2739 304.599 20.2739H333.534C335.44 20.2739 337 21.8333 337 23.7392C337 25.8184 335.44 27.2045 333.534 27.2045Z" fill="white"/>
<path d="M612.143 167.546H584.594C580.955 167.546 578.01 164.601 578.01 160.962C578.01 157.323 580.955 154.378 584.594 154.378H612.143C615.781 154.378 618.727 157.323 618.727 160.962C618.9 164.601 615.781 167.546 612.143 167.546Z" fill="#F07500"/>
<path d="M592.738 160.96C592.738 161.826 592.045 162.693 591.005 162.693C590.139 162.693 589.272 162 589.272 160.96C589.272 159.921 589.966 159.228 591.005 159.228C592.045 159.228 592.738 160.094 592.738 160.96Z" fill="white"/>
<path d="M600.188 160.96C600.188 161.826 599.495 162.693 598.455 162.693C597.589 162.693 596.723 162 596.723 160.96C596.723 159.92 597.416 159.227 598.455 159.227C599.322 159.227 600.188 160.094 600.188 160.96Z" fill="white"/>
<path d="M607.465 160.96C607.465 161.826 606.772 162.693 605.733 162.693C604.866 162.693 604 162 604 160.96C604 159.92 604.693 159.227 605.733 159.227C606.599 159.227 607.465 159.92 607.465 160.96Z" fill="white"/>
<path d="M96.8546 157.671C110.347 157.671 121.285 146.733 121.285 133.24C121.285 119.748 110.347 108.81 96.8546 108.81C83.3621 108.81 72.4243 119.748 72.4243 133.24C72.4243 146.733 83.3621 157.671 96.8546 157.671Z" fill="#F76A7C"/>
<path d="M105.171 127.001C103.091 125.095 99.9727 125.095 98.0668 127.001L96.8539 128.387L95.4678 127.001C93.3887 125.095 90.2699 125.095 88.364 127.001C86.4581 129.08 86.4581 132.199 88.364 134.105L93.2154 138.956C94.0817 139.649 94.948 140.169 95.9876 140.342C97.547 140.515 99.2796 140.169 100.319 138.956L105.171 133.931C107.25 132.025 107.077 128.907 105.171 127.001Z" fill="white"/>
<path d="M507.664 82.4746H461.23C457.071 82.4746 453.779 79.1826 453.779 75.0243V35.1734C453.779 31.8814 456.378 29.2825 459.67 29.2825H507.664C510.956 29.2825 513.556 31.8814 513.556 35.1734V76.5837C513.556 79.8757 510.956 82.4746 507.664 82.4746Z" fill="#F79B6B"/>
<path d="M570.387 438.358C569.347 438.358 568.481 437.838 568.134 436.798L502.987 257.816L437.84 436.798C437.32 438.011 435.934 438.704 434.721 438.184C433.508 437.665 432.815 436.278 433.335 435.066L500.735 249.846C501.081 248.98 501.947 248.287 502.987 248.287C504.027 248.287 504.893 248.98 505.239 249.846L572.639 435.239C573.159 436.452 572.466 437.838 571.253 438.358C570.907 438.358 570.733 438.358 570.387 438.358Z" fill="#FB233F"/>
<path d="M510.784 274.623H475.265C473.879 274.623 472.839 273.584 472.839 272.197C472.839 270.811 473.879 269.772 475.265 269.772H510.784C512.17 269.772 513.21 270.811 513.21 272.197C513.21 273.41 511.997 274.623 510.784 274.623Z" fill="#FB233F"/>
<path d="M519.793 300.613H486.007C484.621 300.613 483.581 299.573 483.581 298.187C483.581 296.801 484.621 295.761 486.007 295.761H519.793C521.179 295.761 522.219 296.801 522.219 298.187C522.219 299.573 521.179 300.613 519.793 300.613Z" fill="#FB233F"/>
<path d="M482.368 300.613H449.968C448.755 300.613 447.715 299.573 447.715 298.187C447.715 296.801 448.755 295.761 449.968 295.761H482.368C483.581 295.761 484.621 296.801 484.621 298.187C484.621 299.573 483.581 300.613 482.368 300.613Z" fill="#FB233F"/>
<path d="M528.976 326.775H495.19C493.804 326.775 492.764 325.735 492.764 324.349C492.764 322.963 493.804 321.923 495.19 321.923H528.976C530.362 321.923 531.402 322.963 531.402 324.349C531.402 325.735 530.362 326.775 528.976 326.775Z" fill="#FB233F"/>
<path d="M475.265 326.775H441.478C440.092 326.775 439.053 325.735 439.053 324.349C439.053 322.963 440.092 321.923 441.478 321.923H475.265C476.651 321.923 477.691 322.963 477.691 324.349C477.691 325.735 476.651 326.775 475.265 326.775Z" fill="#FB233F"/>
<path d="M538.159 352.939H504.373C502.987 352.939 501.947 351.899 501.947 350.513C501.947 349.127 502.987 348.088 504.373 348.088H538.159C539.545 348.088 540.585 349.127 540.585 350.513C540.585 351.899 539.545 352.939 538.159 352.939Z" fill="#FB233F"/>
<path d="M465.215 352.939H431.429C430.043 352.939 429.003 351.899 429.003 350.513C429.003 349.127 430.043 348.088 431.429 348.088H465.215C466.601 348.088 467.641 349.127 467.641 350.513C467.641 351.899 466.601 352.939 465.215 352.939Z" fill="#FB233F"/>
<path d="M547.343 379.101H513.556C512.17 379.101 511.13 378.062 511.13 376.675C511.13 375.289 512.17 374.25 513.556 374.25H547.343C548.729 374.25 549.768 375.289 549.768 376.675C549.595 377.888 548.556 379.101 547.343 379.101Z" fill="#FB233F"/>
<path d="M456.205 379.101H422.419C421.033 379.101 419.993 378.062 419.993 376.675C419.993 375.289 421.033 374.25 422.419 374.25H456.205C457.591 374.25 458.631 375.289 458.631 376.675C458.458 377.888 457.418 379.101 456.205 379.101Z" fill="#FB233F"/>
<path d="M556.353 405.091H522.566C521.18 405.091 520.141 404.051 520.141 402.665C520.141 401.279 521.18 400.239 522.566 400.239H556.353C557.739 400.239 558.779 401.279 558.779 402.665C558.779 404.051 557.739 405.091 556.353 405.091Z" fill="#FB233F"/>
<path d="M446.676 405.091H412.89C411.503 405.091 410.464 404.051 410.464 402.665C410.464 401.279 411.503 400.239 412.89 400.239H446.676C448.062 400.239 449.102 401.279 449.102 402.665C449.102 404.051 448.062 405.091 446.676 405.091Z" fill="#FB233F"/>
<path d="M502.814 253.138H467.294C465.908 253.138 464.869 252.098 464.869 250.712C464.869 249.326 465.908 248.287 467.294 248.287H502.814C504.2 248.287 505.239 249.326 505.239 250.712C505.239 252.098 504.026 253.138 502.814 253.138Z" fill="#FB233F"/>
<path d="M513.384 365.587L514.597 346.355L524.82 347.741L522.74 368.013L512.864 366.107L513.384 365.587Z" fill="#FE9393"/>
<path d="M524.3 362.989C524.3 362.989 517.369 366.627 513.557 361.256L494.845 371.306L526.899 371.132L524.3 362.989Z" fill="black"/>
<path d="M526.91 371.214L494.856 371.417L494.875 374.363L526.929 374.16L526.91 371.214Z" fill="#A59AA5"/>
<path d="M524.473 237.025C524.473 237.025 515.29 242.569 514.077 273.064C513.037 303.558 511.131 354.844 511.131 354.844H526.725L534.695 255.391L532.616 237.025H524.473Z" fill="#FF9E41"/>
<path d="M540.413 365.588L539.374 346.355L549.596 347.741L549.769 368.013L539.893 366.108L540.413 365.588Z" fill="#FE9393"/>
<path d="M551.156 362.989C551.156 362.989 544.225 366.628 540.413 361.257L521.701 371.306L553.755 371.133L551.156 362.989Z" fill="black"/>
<path d="M553.766 371.216L521.712 371.419L521.731 374.365L553.785 374.162L553.766 371.216Z" fill="#A59AA5"/>
<path d="M545.611 241.01C545.611 241.01 554.968 251.753 553.581 270.812L553.062 355.018L535.389 354.498L529.844 239.971L545.611 241.01Z" fill="#FF9E41"/>
<path d="M532.097 289.697L531.057 265.267L524.473 255.911" stroke="#FF9E41" stroke-width="0.75" stroke-miterlimit="10"/>
<path d="M466.602 202.715L486.527 221.6C489.126 224.026 493.285 223.333 495.017 220.214L496.923 216.749L469.894 197.17L466.602 202.715Z" fill="#FE9393"/>
<path d="M470.414 200.117C469.374 203.236 465.909 205.142 462.79 204.102C459.671 203.062 457.765 199.597 458.805 196.478C459.845 193.36 463.31 191.454 466.429 192.493C469.721 193.533 471.454 196.998 470.414 200.117Z" fill="#FE9393"/>
<path d="M466.256 192.32L460.711 188.854C460.192 188.508 459.672 188.681 459.325 189.028C458.979 189.374 459.152 189.894 459.498 190.241L464.87 194.919L466.256 192.32Z" fill="#FE9393"/>
<path d="M489.646 213.111L515.29 203.581L514.077 215.71C514.077 215.71 500.216 221.774 491.552 223.16C482.889 224.546 489.646 213.111 489.646 213.111Z" fill="#FE9393"/>
<path d="M521.873 203.062C521.873 203.062 519.447 199.423 513.383 202.022C507.319 204.621 496.23 208.26 496.23 208.26L505.933 224.72L524.126 217.789L521.873 203.062Z" fill="#F76A7C"/>
<path d="M546.304 199.423L532.789 198.21L515.81 201.329C515.81 201.329 514.77 225.759 517.542 238.408C518.062 240.66 519.968 242.046 522.22 242.046L546.477 242.393C546.477 242.393 549.769 239.967 549.943 234.942L548.21 201.676C548.21 200.463 547.344 199.597 546.304 199.423Z" fill="#F76A7C"/>
<path d="M514.943 220.734L514.25 211.378" stroke="#F76A7C" stroke-width="0.75" stroke-miterlimit="10"/>
<path d="M587.887 257.641L508.879 249.498C507.146 249.325 505.76 247.765 505.933 246.033L506.799 236.503C506.973 234.77 508.532 233.384 510.265 233.558L589.273 241.701C591.006 241.874 592.392 243.434 592.219 245.166L591.352 254.696C591.179 256.602 589.62 257.815 587.887 257.641Z" fill="#005FEA"/>
<path d="M565.882 241.355C565.882 240.835 569.001 235.464 569.001 235.464L560.164 217.098C558.951 213.459 551.154 200.811 548.036 202.89C545.783 204.449 547.169 218.83 548.382 221.256L557.739 239.275L565.882 241.355Z" fill="#F76A7C"/>
<path d="M545.091 199.25C545.091 199.25 552.888 199.77 555.833 204.621C559.645 210.686 566.229 220.389 566.229 220.389L546.304 227.839L545.091 199.25Z" fill="#F76A7C"/>
<path d="M549.075 226.8L541.625 213.979" stroke="#F76A7C" stroke-width="0.75" stroke-miterlimit="10"/>
<path d="M560.165 232.171L538.507 247.938L541.972 252.962L565.536 242.74C569.175 241.18 570.214 236.502 567.615 233.383C565.709 231.304 562.764 230.784 560.165 232.171Z" fill="#FE9393"/>
<path d="M542.492 252.097C542.492 252.097 539.546 259.201 534.002 258.508C527.591 257.642 527.071 252.617 530.017 251.577L534.348 251.924C534.348 251.924 534.348 249.152 537.121 247.939C537.814 247.592 538.507 247.419 539.373 247.419L542.492 252.097Z" fill="#FE9393"/>
<path d="M538.161 247.593L532.096 248.632C531.75 248.632 531.403 249.152 531.403 249.498C531.403 250.018 531.75 250.365 532.27 250.365L538.161 250.885V247.593Z" fill="#FE9393"/>
<path d="M513.383 180.54C515.289 178.981 517.368 175.515 517.368 175.515L519.274 170.837L524.992 172.397L522.22 178.114L520.661 179.154L532.269 192.668C532.269 192.668 523.779 200.812 515.809 195.614C508.705 191.456 509.918 183.485 513.383 180.54Z" fill="#201C30"/>
<path d="M545.091 173.955C545.091 173.955 545.784 178.114 549.249 180.539C552.714 182.965 553.754 191.455 546.997 195.787C538.853 200.985 530.537 192.841 530.537 192.841L545.091 173.955Z" fill="#201C30"/>
<path d="M522.22 166.333C522.22 166.333 538.507 159.229 544.051 170.145C547.344 176.556 543.358 187.644 535.388 190.763C527.765 193.709 529.844 168.932 529.844 168.932L522.22 166.333Z" fill="#201C30"/>
<path d="M524.299 181.579C524.472 183.658 522.913 185.391 520.834 185.564C518.754 185.738 517.022 184.178 516.849 182.099C516.675 180.02 518.235 178.287 520.314 178.114C522.22 178.114 524.126 179.5 524.299 181.579Z" fill="#E15F60"/>
<path d="M525.339 191.975L526.032 200.119C526.205 202.891 528.111 204.277 530.883 204.104C533.309 203.931 535.388 202.544 535.561 200.119L534.002 187.47L525.339 191.975Z" fill="#FE9393"/>
<path d="M525.859 197.869L535.215 189.379L525.339 191.285L525.859 197.869Z" fill="#E15F60"/>
<path d="M527.938 193.362C523.087 193.362 519.101 189.723 518.928 185.738L518.582 176.555C518.408 171.704 522.047 167.372 526.898 167.026C531.923 166.679 537.121 170.318 537.641 175.342L537.814 182.793C537.987 188.337 533.656 192.842 527.938 193.362Z" fill="#FE9393"/>
<path d="M536.255 181.753C536.255 181.753 535.908 178.461 533.136 176.729C530.364 175.169 522.74 172.744 523.433 166.853C523.433 166.853 535.215 163.387 539.72 171.184C544.052 178.981 536.255 181.753 536.255 181.753Z" fill="#201C30"/>
<path d="M542.319 181.926C542.492 184.005 540.932 185.738 538.853 185.911C536.774 186.084 535.041 184.525 534.868 182.445C534.695 180.366 536.254 178.634 538.333 178.46C540.413 178.287 542.145 179.847 542.319 181.926Z" fill="#FE9393"/>
<path d="M526.551 166.853C526.551 166.853 525.685 171.704 518.235 174.996C518.235 174.996 516.329 171.531 521.353 166.853C521.873 166.506 522.393 166.16 523.086 166.16H528.977L526.551 166.853Z" fill="#201C30"/>
<path d="M539.546 198.734L531.922 197.867L521.873 200.12C521.873 200.12 521.873 207.223 530.017 206.877C538.16 206.357 539.546 198.734 539.546 198.734Z" fill="#FE9393"/>
<path d="M534.348 438.358C533.308 438.358 532.442 437.838 532.095 436.799L466.948 257.817L401.801 436.799C401.281 438.012 399.895 438.705 398.682 438.185C397.469 437.665 396.776 436.279 397.296 435.066L464.696 249.846C465.042 248.98 465.908 248.287 466.948 248.287C467.988 248.287 468.854 248.98 469.2 249.846L536.6 435.066C537.12 436.279 536.427 437.665 535.214 438.185C535.041 438.358 534.694 438.358 534.348 438.358Z" fill="#F76A7C"/>
<path d="M99.6273 405.784L98.4144 425.536L89.2314 425.19L89.578 405.264L99.6273 405.784Z" fill="#FE9393"/>
<path d="M99.1074 423.456L115.741 431.079C116.78 431.599 117.473 432.812 117.127 434.025H87.8452L88.8848 423.456H99.1074Z" fill="black"/>
<path d="M87.292 437.072H117.44V433.954H87.292V437.072Z" fill="#C2B8C2"/>
<path d="M69.9989 405.784L68.7861 425.536L59.603 425.19L59.9496 405.264L69.9989 405.784Z" fill="#FE9393"/>
<path d="M69.479 423.456L86.1124 431.079C87.1519 431.599 87.845 432.812 87.4985 434.025H58.2168L59.2564 423.456H69.479Z" fill="black"/>
<path d="M57.5136 437.072H87.6616V433.954H57.5136V437.072Z" fill="#C2B8C2"/>
<path d="M94.4291 313.088L59.6029 315.86L54.9248 413.755H73.9839L80.2214 339.944L88.5381 371.478L85.7659 414.967L102.053 415.141L107.597 366.973L94.4291 313.088Z" fill="#F79B6B"/>
<path d="M88.0181 335.611L80.2212 339.943" stroke="#F79B6B" stroke-width="0.75" stroke-miterlimit="10"/>
<path d="M93.9091 283.285L93.7358 292.814L99.2802 292.987L98.7604 282.592L93.9091 283.285Z" fill="#FFAC9D"/>
<path d="M94.2555 266.824C94.2555 266.824 103.092 272.022 101.706 288.482L93.5625 286.576L94.2555 266.824Z" fill="#435FEA"/>
<path d="M76.7565 261.454C67.92 261.454 58.0439 264.572 58.0439 264.572L58.3905 320.364L95.4691 317.591L95.1225 268.731C95.1225 267.864 94.6028 266.998 93.9097 266.652L83.6871 262.32C83.5138 262.147 78.4891 261.454 76.7565 261.454Z" fill="#435FEA"/>
<path d="M95.1221 287.096V276.354" stroke="#435FEA" stroke-width="0.75" stroke-miterlimit="10"/>
<path d="M62.3752 283.286L59.9495 310.835C59.9495 310.835 57.3506 316.379 52.6724 310.662C47.9942 304.944 51.9794 282.246 51.9794 282.246L62.3752 283.286Z" fill="#FE9393"/>
<path d="M63.588 289.175C63.588 289.175 66.5335 265.611 60.1227 264.572C53.3654 263.359 47.1279 279.126 47.1279 292.294L63.588 289.175Z" fill="#435FEA"/>
<path d="M61.855 289.348L64.2807 288.481L64.8004 277.392" stroke="#435FEA" stroke-width="0.75" stroke-miterlimit="10"/>
<path d="M78.3159 285.017C78.3159 285.017 79.7019 280.165 84.5533 279.645C89.4047 279.126 90.7909 282.938 89.9245 285.537C89.0582 288.135 85.7662 292.121 81.0881 290.041C76.0634 288.135 78.3159 285.017 78.3159 285.017Z" fill="#FE9393"/>
<path d="M86.1123 279.819C86.1123 279.819 90.9637 280.339 94.4289 282.072C94.7755 282.245 94.9487 282.591 94.9487 283.111C94.9487 283.631 94.429 283.977 93.9092 283.977L87.3251 282.765L86.1123 279.819Z" fill="#FE9393"/>
<path d="M58.9098 312.392L80.9144 290.214L78.3154 285.016L56.8306 298.704L58.9098 312.392Z" fill="#FE9393"/>
<path d="M61.3355 295.931L56.8306 298.703" stroke="#FE9393" stroke-width="0.4825" stroke-miterlimit="10"/>
<path d="M108.29 290.734L99.1071 318.11C98.7606 318.976 97.8942 319.669 96.8546 319.496L74.3302 316.55C72.9441 316.377 72.2511 314.991 72.5976 313.778L82.1271 286.402C82.4737 285.536 83.34 284.843 84.3796 285.016L106.557 287.962C107.77 288.135 108.637 289.521 108.29 290.734Z" fill="#090B0C"/>
<path d="M107.77 288.655L108.983 290.214L73.9834 317.243L72.7705 315.511L107.77 288.655Z" fill="#090B0C"/>
<path d="M109.33 292.122L100.147 319.498C99.8001 320.364 98.9338 321.057 97.8942 320.884L75.3698 317.938C73.9837 317.765 73.2906 316.379 73.6371 315.166L83.1667 287.79C83.5132 286.924 84.3795 286.231 85.4191 286.404L107.597 289.35C108.983 289.523 109.676 290.736 109.33 292.122Z" fill="#3D5057"/>
<path d="M108.29 300.089L106.211 305.807C106.038 306.5 105.172 306.846 104.478 306.846C102.399 306.5 101.013 304.421 101.533 302.342L102.053 300.436C102.573 298.876 103.959 297.837 105.518 298.01H106.731C107.944 298.01 108.637 299.05 108.29 300.089Z" fill="#FE9393"/>
<path d="M84.8993 253.137L83.8597 262.146C83.5132 265.265 81.4341 266.825 78.3153 266.305C75.7163 265.958 73.1173 264.399 73.4638 261.627L74.85 247.419L84.8993 253.137Z" fill="#FE9393"/>
<path d="M83.8601 261.453C83.8601 261.453 73.6374 257.815 74.5038 248.632C74.677 245.86 84.8996 252.617 84.8996 252.617L83.8601 261.453Z" fill="#E15F60"/>
<path d="M85.939 263.186L81.6074 261.107L73.8105 261.28L69.3056 261.973C69.3056 261.973 67.573 268.73 79.0084 269.077C88.1914 269.597 85.939 263.186 85.939 263.186Z" fill="#FE9393"/>
<path d="M90.7902 241.529C90.7902 241.529 99.6267 234.945 95.6416 228.881C91.6565 222.816 84.3794 228.014 84.3794 228.014L90.7902 241.529Z" fill="#171E21"/>
<path d="M83.8596 226.453C83.8596 226.453 59.0829 222.988 69.9985 242.22L72.7708 234.423L83.8596 226.453Z" fill="#171E21"/>
<path d="M91.3105 231.652C91.3105 231.652 95.4688 235.117 90.2709 242.741L88.8848 233.038L91.3105 231.652Z" fill="#171E21"/>
<path d="M86.6318 244.993C86.4585 247.073 87.8446 248.979 89.9238 249.152C92.003 249.325 93.7356 247.939 94.0821 245.86C94.2554 243.781 92.8693 241.875 90.7901 241.701C88.7109 241.355 86.9783 242.914 86.6318 244.993Z" fill="#E15F60"/>
<path d="M80.9144 256.43C86.1123 256.776 90.6172 252.618 90.9637 248.286L91.6568 239.103C92.1766 233.559 88.1915 228.707 82.9935 228.188C77.6223 227.495 71.7313 231.48 71.0383 237.024L70.5185 244.128C70.3452 250.539 74.8501 255.563 80.9144 256.43Z" fill="#FE9393"/>
<path d="M91.83 236.85C91.83 236.85 92.1765 234.425 87.4984 233.905C82.8202 233.385 76.756 233.732 73.2907 237.89V244.474L69.1323 240.316L71.3848 230.44L84.0331 226.281L91.6567 231.479L91.83 236.85Z" fill="#171E21"/>
<path d="M66.0136 243.607C65.8404 245.686 67.2265 247.592 69.1324 247.765C71.2116 247.939 72.9442 246.553 73.1175 244.473C73.2908 242.394 71.9046 240.488 69.9987 240.315C67.9195 240.142 66.1869 241.528 66.0136 243.607Z" fill="#FE9393"/>
<path d="M87.4983 228.36C87.4983 228.36 88.5379 225.414 84.7261 223.855C81.2608 222.469 77.7955 222.989 70.1719 228.187L87.4983 228.36Z" fill="#171E21"/>
<path d="M90.0975 252.271C90.0975 251.751 89.751 251.232 89.2312 250.885C88.5381 250.538 87.3252 250.192 85.4193 249.845C83.1669 249.499 79.8749 250.192 78.1422 250.712C77.4492 250.885 76.5828 250.538 76.2363 249.845C75.0235 247.42 72.9443 242.048 74.5037 235.638L71.9047 237.544L72.2512 241.529C72.2512 241.529 74.3304 245.86 71.0384 247.766C71.0384 247.766 70.8651 256.776 79.1818 258.509C81.6075 259.028 84.3798 258.509 86.6322 257.469C88.5381 256.603 90.0975 254.524 90.0975 252.271Z" fill="#171E21"/>
<path d="M73.4638 239.968C73.4638 239.968 79.0083 238.755 76.9291 233.384C74.8499 228.013 72.251 234.77 72.251 234.77L73.4638 239.968Z" fill="#171E21"/>
<path d="M146.062 441.208L154.899 427.173L165.295 432.371L154.552 448.831L146.236 445.019L146.062 441.208Z" fill="#FE9393"/>
<path d="M145.889 440.168C145.889 440.168 150.913 448.312 157.671 446.059L165.468 465.465L138.092 445.713L145.889 440.168Z" fill="black"/>
<path d="M138.234 445.723L136.508 448.11L163.889 467.905L165.615 465.518L138.234 445.723Z" fill="#C2B8C2"/>
<path d="M174.824 357.001L164.255 402.223L146.235 432.371L163.215 442.247L184.873 403.782L191.977 375.021L174.824 357.001Z" fill="#00A8A3"/>
<path d="M163.366 443.035L145 432.119L150.198 423.456L168.564 434.892L163.366 443.035Z" fill="#049792"/>
<path d="M228.189 455.166L221.432 439.919L231.654 434.375L239.278 452.221L231.481 457.072L228.189 455.166Z" fill="#FE9393"/>
<path d="M227.149 454.648C227.149 454.648 236.852 454.995 238.758 448.238L259.203 452.743L227.669 464.005L227.149 454.648Z" fill="black"/>
<path d="M259.234 452.546L227.488 464.112L228.497 466.879L260.242 455.314L259.234 452.546Z" fill="#C2B8C2"/>
<path d="M195.419 344.546V354.768L222.449 396.525L239.255 442.093L222.795 448.677L205.815 406.921L173.588 365.337C173.588 365.337 162.846 351.303 175.667 339.001L195.419 344.546Z" fill="#00B7B1"/>
<path d="M189.182 385.783L173.068 364.818" stroke="#00B7B1" stroke-width="0.75" stroke-miterlimit="10"/>
<path d="M240.468 441.747L221.409 449.717L217.597 440.188L237.349 432.737L240.468 441.747Z" fill="#049792"/>
<path d="M197.348 307.721L209.823 316.904L224.897 297.498L229.576 300.097C229.576 300.097 224.031 319.156 216.581 328.859C215.195 330.592 212.942 331.111 211.036 330.418C207.051 328.859 199.428 325.22 190.071 317.25L197.348 307.721Z" fill="#E15F60"/>
<path d="M201.16 310.492L191.631 326.259L182.274 319.155C178.463 316.21 177.596 310.838 180.195 306.853C183.141 302.348 189.205 300.962 193.537 304.428L201.16 310.492Z" fill="#D7D7D7"/>
<path d="M193.537 304.427L178.809 299.402C178.809 299.402 166.161 310.838 175.69 339.426L195.442 344.797C195.442 344.797 197.002 336.827 197.348 327.644C204.799 316.902 193.537 304.427 193.537 304.427Z" fill="white"/>
<path d="M267 321.409H229.229C224.551 321.409 220.739 317.597 220.739 312.919V275.84C220.739 271.162 224.551 267.35 229.229 267.35H267C271.678 267.35 275.49 271.162 275.49 275.84V312.919C275.664 317.424 271.852 321.409 267 321.409Z" fill="#F39236"/>
<path d="M258.683 292.129L257.998 291.992C257.358 291.864 256.851 291.344 256.608 290.739C256.34 290.076 256.371 289.32 256.801 288.748L257.124 288.317C257.47 287.797 257.47 287.104 256.951 286.584L255.911 285.545C255.391 285.025 254.698 285.025 254.178 285.371L253.684 285.742C253.138 286.152 252.391 286.193 251.765 285.918C251.127 285.638 250.626 285.109 250.489 284.425L250.367 283.812C250.193 283.119 249.674 282.772 249.154 282.772H247.594C246.901 282.772 246.382 283.292 246.208 283.812L246.071 284.498C245.943 285.137 245.424 285.644 244.819 285.888C244.155 286.155 243.4 286.124 242.828 285.695L242.396 285.371C241.877 285.025 241.184 285.025 240.664 285.545L239.624 286.584C239.104 287.104 239.104 287.797 239.451 288.317L239.821 288.811C240.232 289.358 240.273 290.104 239.998 290.73C239.718 291.369 239.188 291.869 238.505 292.006L237.892 292.129C237.199 292.302 236.852 292.822 236.852 293.515V294.901C236.852 295.594 237.372 296.114 237.892 296.287L238.577 296.424C239.217 296.552 239.724 297.072 239.967 297.676C240.234 298.34 240.204 299.095 239.774 299.668L239.451 300.099C239.104 300.619 239.104 301.312 239.624 301.832L240.664 302.871C241.184 303.391 241.877 303.391 242.396 303.044L242.89 302.674C243.437 302.264 244.184 302.223 244.81 302.498C245.448 302.778 245.949 303.307 246.086 303.991L246.208 304.604C246.382 305.297 246.901 305.643 247.594 305.643H249.154C249.847 305.643 250.367 305.124 250.54 304.604L250.677 303.918C250.805 303.279 251.324 302.772 251.929 302.528C252.593 302.261 253.348 302.292 253.921 302.721L254.352 303.044C254.871 303.391 255.564 303.391 256.084 302.871L257.124 301.832C257.644 301.312 257.644 300.619 257.297 300.099L256.927 299.605C256.517 299.058 256.476 298.311 256.75 297.685C257.031 297.047 257.56 296.546 258.244 296.41L258.857 296.287C259.55 296.114 259.896 295.594 259.896 294.901C259.896 293.98 259.948 292.882 259.193 292.356C259.048 292.255 258.88 292.178 258.683 292.129ZM248.287 298.193C246.035 298.193 244.302 296.46 244.302 294.208C244.302 291.955 246.035 290.223 248.287 290.223C250.54 290.223 252.273 291.955 252.273 294.208C252.099 296.46 250.367 298.193 248.287 298.193Z" fill="white"/>
<path d="M194.056 313.094L204.972 326.262L223.338 309.975L227.149 313.613C227.149 313.613 216.927 330.767 207.397 338.217C205.665 339.603 203.412 339.603 201.68 338.217C198.214 335.618 191.804 330.247 184.7 320.198L194.056 313.094Z" fill="#FE9393"/>
<path d="M236.852 304.603C236.679 304.256 236.159 304.256 235.812 304.43L233.04 306.162L232.867 305.989L235.639 303.043C235.986 302.697 235.986 302.177 235.639 301.831C235.292 301.484 234.599 301.484 234.253 301.831L231.134 304.603C230.961 304.603 230.961 304.43 230.788 304.43L233.733 300.271C233.906 299.925 233.906 299.405 233.56 299.232C233.213 298.885 232.694 298.885 232.347 299.232L228.882 302.87C228.708 302.697 228.708 302.697 228.535 302.697L230.441 299.232C230.614 298.885 230.614 298.365 230.095 298.192C229.748 297.845 229.055 298.019 228.882 298.539L226.976 301.657C226.976 301.657 226.283 303.217 225.416 304.949L224.897 302.004C224.897 301.657 224.55 301.484 224.377 301.484C223.857 301.311 223.51 301.657 223.337 302.177C223.164 304.083 223.337 309.801 222.991 310.147L226.803 313.786L234.253 307.548L236.332 305.642C237.025 305.296 237.025 304.949 236.852 304.603Z" fill="#FE9393"/>
<path d="M197.175 316.558L183.834 329.726L176.556 320.543C173.611 316.731 174.131 311.36 177.596 308.068C181.581 304.429 187.819 305.122 191.111 309.454L197.175 316.558Z" fill="white"/>
<path d="M188.512 325.394L183.834 329.726L176.73 320.37" stroke="#D0D0D0" stroke-width="0.75" stroke-miterlimit="10"/>
<path d="M197.175 316.558L190.244 308.241" stroke="#D0D0D0" stroke-width="0.75" stroke-miterlimit="10"/>
<path d="M191.804 285.541L199.081 283.635C204.106 286.58 204.799 294.724 204.799 294.724H192.151L191.804 285.541Z" fill="#171E21"/>
<path d="M194.23 291.085L190.245 302.694L179.502 298.362L185.567 280.689L194.23 291.085Z" fill="#FE9393"/>
<path d="M191.977 297.843C191.977 297.67 189.898 290.566 189.898 290.566L194.403 292.645L191.977 297.843Z" fill="#E15F60"/>
<path d="M197.522 266.655C197.522 266.655 203.066 267.521 203.413 274.625C203.413 274.625 203.586 279.65 203.759 286.927C203.932 290.739 200.294 293.857 196.655 293.164C194.403 292.645 191.804 291.778 189.551 289.872L186.259 286.927C178.809 278.437 185.566 265.096 196.829 266.655C196.829 266.482 197.175 266.655 197.522 266.655Z" fill="#FE9393"/>
<path d="M202.72 281.903L205.318 284.328C205.665 284.675 205.492 285.195 204.972 285.368L202.373 285.714L202.72 281.903Z" fill="#FE9393"/>
<path d="M190.071 279.13C190.071 279.13 186.779 262.15 201.507 269.081C201.507 269.081 195.789 259.724 182.968 265.442C180.195 266.655 177.423 269.947 176.903 272.892C176.037 277.571 178.636 281.556 182.968 289.006L187.819 283.288C187.992 282.075 190.071 279.13 190.071 279.13Z" fill="#171E21"/>
<path d="M185.22 274.28L188.165 281.21C207.051 275.319 198.388 266.483 198.388 266.483C198.388 266.483 183.314 261.978 185.22 274.28Z" fill="#171E21"/>
<path d="M194.75 277.571L192.151 281.556L188.859 276.878L194.75 277.571Z" fill="#171E21"/>
<path d="M195.79 267.52C195.79 267.52 202.2 268.56 203.24 273.064C203.24 273.064 208.265 267.867 197.869 265.614C191.458 264.228 195.79 267.52 195.79 267.52Z" fill="#171E21"/>
<path d="M188.859 283.288C188.859 283.288 187.646 291.778 188.512 294.897L172.745 294.031C172.745 294.031 175.691 288.486 175.864 284.155C176.037 280.689 174.304 273.066 179.502 267.868L182.101 277.917L188.859 283.288Z" fill="#171E21"/>
<path d="M184.874 281.556C184.7 283.635 186.26 285.368 188.339 285.541C190.418 285.714 192.151 284.155 192.324 282.076C192.497 279.996 190.938 278.264 188.859 278.091C186.779 277.917 185.047 279.477 184.874 281.556Z" fill="#FE9393"/>
<path d="M178.81 299.229C178.81 299.229 184.354 304.6 193.537 304.253L187.126 296.63L180.889 295.243L178.81 299.229Z" fill="#FE9393"/>
</svg>
