<svg width="589" height="411" viewBox="0 0 589 411" fill="none" xmlns="http://www.w3.org/2000/svg">
<path d="M20.8908 388.369C20.8908 388.369 -20.7019 338.477 44.0574 266.599C108.817 194.721 67.0507 148.656 119.92 65.4862C172.788 -17.6834 306.055 -27.4319 365.412 69.9746C381.602 96.5587 438.471 163.838 478.269 183.366C510.538 199.273 586.117 211.131 588.51 306.648C589.046 328.697 574.336 368.604 554.965 388.306L20.8908 388.369Z" fill="#CFECFF"/>
<path d="M206.255 406.543H165.985L164.615 403.252L157.181 385.109V333.138H195.908C195.908 333.138 203.498 374.274 206.255 406.543Z" fill="#2034AA"/>
<path d="M164.662 403.236L157.213 391.991V373.754L163.512 362.872C163.512 362.872 164.725 388.731 164.662 403.236Z" fill="#0F267A"/>
<path d="M111.698 329.043C108.21 336.516 105.904 344.485 104.863 352.666C103.588 362.84 106.013 403.992 106.013 403.992L146.472 411C146.472 411 160.11 384.227 169.119 340.304C173.182 320.428 134.109 329.657 134.109 329.657" fill="#2034AA"/>
<path d="M372.452 406.543H416.461L417.959 403.252L426.082 385.109V333.138H383.76C383.76 333.138 375.464 374.274 372.452 406.543Z" fill="#2034AA"/>
<path d="M417.907 403.236L426.048 391.991V373.754L419.163 362.872C419.163 362.872 417.838 388.731 417.907 403.236Z" fill="#0F267A"/>
<path d="M475.788 329.043C479.6 336.516 482.12 344.485 483.258 352.666C484.652 362.84 482.001 403.992 482.001 403.992L437.786 411C437.786 411 422.881 384.227 413.036 340.304C408.596 320.428 451.297 329.657 451.297 329.657" fill="#2034AA"/>
<path d="M191.435 100.638C191.435 100.638 192.427 109.253 189.529 115.411C186.631 121.569 182.993 102.387 182.993 102.387L184.962 95.457" fill="#18004D"/>
<path d="M169.245 142.75C169.245 142.75 168.819 143.963 168.205 145.9C167.591 147.837 166.63 151.066 165.827 154.373C164.484 159.186 163.821 164.164 163.859 169.161C163.859 169.161 148.204 170.736 140.503 165.933C140.503 165.933 145.228 147.16 138.44 128.75L169.245 142.75Z" fill="#FE9393"/>
<path d="M168.205 145.932C167.544 148.074 166.63 151.098 165.827 154.405C152.22 149.995 144.488 137.821 144.488 137.821L168.205 145.932Z" fill="#E15F60"/>
<path d="M140.944 137.852C147.133 145.05 181.891 159.586 186.758 142.357C191.624 125.127 189.246 104.701 186.758 92.2752C185.183 84.5583 181.104 69.8804 160.52 72.1482C139.936 74.416 113.793 106.355 140.944 137.852Z" fill="#FE9393"/>
<path d="M130.739 90.3856C130.739 90.3856 114.029 91.9605 110.927 81.2985C107.824 70.6366 119.715 57.0768 130.203 62.6834C140.692 68.29 139.653 82.0387 139.653 82.0387" fill="#18004D"/>
<path d="M123.542 91.7554C123.542 91.7554 125.305 75.8806 140.393 73.03L134.739 82.3848L123.542 91.7554Z" fill="#506AFF"/>
<path d="M184.222 87.7875C184.222 87.7875 178.473 112.466 144.188 113.521C143.29 113.226 142.315 113.267 141.446 113.638C140.576 114.009 139.872 114.684 139.464 115.537C138.612 117.825 138.562 120.335 139.322 122.655C141.432 129.27 142.771 136.073 141.668 142.924L141.763 143.712C141.763 143.712 124.738 141.57 120.124 117.096C114.769 88.7482 140.598 65.8809 158.205 68.6054C165.685 69.7551 182.647 76.0074 184.222 87.7875Z" fill="#18004D"/>
<path d="M173.229 87.2359C173.229 87.2359 183.923 101.914 192.222 102.323C192.222 102.323 194.868 82.3065 183.529 74.1801C168.048 63.1559 150.456 68.9043 150.456 68.9043" fill="#18004D"/>
<path d="M141.401 161.57C141.268 162.465 140.931 163.317 140.418 164.063C139.905 164.808 139.229 165.426 138.44 165.869C133.668 168.565 128.692 170.882 123.557 172.799C123.557 172.799 156.268 196.296 180.426 171.224C180.426 171.224 171.686 168.562 169.245 166.799C163.386 162.578 164.52 160.499 164.52 160.499" fill="#FE9393"/>
<path d="M182.663 222.755C182.663 222.755 188.364 240.079 193.026 253.166C194.595 257.839 196.709 262.311 199.325 266.489C201.782 269.639 205.073 273.435 210.979 270.301C216.885 267.167 217.783 264.458 216.728 258.473C215.672 252.489 205.703 217.038 205.703 217.038" fill="#FE9393"/>
<path d="M193.026 253.165C193.026 253.165 201.168 280.757 212.79 278.175C218.806 276.6 229.358 253.528 234.099 244.378C249.028 215.573 250.225 209.1 250.225 209.1L242.682 205.573C242.682 205.573 212.759 243.968 210.444 247.59" fill="#FE9393"/>
<path d="M195.908 333.043C159.071 341.233 125.132 336.083 109.777 333.406C107.997 328.335 110.486 320.051 112.47 312.286C118.486 288.537 115.62 261.04 113.588 244.755C112.754 238.204 112.013 233.495 112.013 231.526C112.013 229.952 111.887 227.936 111.73 225.636C110.628 211.462 107.005 186.264 106.659 182.862C106.297 178.941 129.038 170.263 129.038 170.263C129.038 170.263 169.339 194.564 171.906 167.933C178.736 170.065 185.4 172.697 191.844 175.807C193.545 187.43 194.396 212.722 194.711 225.81C194.852 230.802 190.521 240.204 190.521 240.204C190.521 240.204 191.167 279.576 193.167 308.286C193.939 318.806 196.474 329.027 195.908 333.043Z" fill="white"/>
<path d="M123.242 212.88C123.242 212.88 122.707 233.086 120.203 243.716C118.091 244.466 115.86 244.819 113.62 244.756C112.785 238.204 112.045 233.495 112.045 231.527C112.045 229.952 111.919 227.936 111.761 225.637L123.242 212.88Z" fill="#E9EDF2"/>
<path d="M166.174 322.807L104.974 316.239L115.179 227.022L176.379 233.574L166.174 322.807Z" fill="#4262EA"/>
<path d="M161.732 322.319L100.532 315.752L110.753 226.535L171.938 233.102L161.732 322.319Z" fill="#506AFF"/>
<path d="M95.1149 220.991C95.1149 220.991 93.0203 239.165 91.8076 252.945C91.2904 257.855 91.3591 262.808 92.0124 267.702C92.9258 271.576 94.3274 276.427 101.005 276.049C107.682 275.671 109.62 273.576 111.179 267.702C112.738 261.827 118.455 225.432 118.455 225.432" fill="#FE9393"/>
<path d="M91.7446 253.622C91.7446 253.622 89.2248 274.096 96.0283 280.474C100.454 283.34 110.407 284.096 120.66 285.088C152.96 288.238 159.417 286.931 159.417 286.931L159.858 278.631C159.858 278.631 113.1 265.182 108.864 264.347" fill="#FE9393"/>
<path d="M155.118 277.277C157.406 277.95 159.839 277.95 162.126 277.277C163.827 276.679 165.796 275.356 166.851 275.025C169.209 275.051 171.552 275.406 173.812 276.08C174.568 276.395 173.812 277.655 172.993 277.907C172.001 278.086 170.993 278.171 169.985 278.159L168.064 279.86L167.638 289.939C166.359 290.356 165.011 290.516 163.67 290.412C160.898 290.412 158.567 287.656 153.023 287.262" fill="#FE9393"/>
<path d="M170.709 277.529C170.709 277.529 172.946 278.442 173.119 279.214C173.292 279.985 172.473 288.395 171.135 289.403C170.3 290.017 165.78 290.269 165.78 290.269L165.213 287.214C165.213 287.214 165.103 280.915 165.213 280.757C165.323 280.6 167.906 278.474 167.906 278.474L170.694 277.529" fill="#FE9393"/>
<path d="M147.653 114.45C147.653 114.45 146.614 106.859 139.779 109.347C134.408 111.315 137.999 121.395 140.031 124.812C142.062 128.23 146.11 127.332 146.708 124.812" fill="#FE9393"/>
<path d="M212.822 237.432C212.822 237.432 202.113 180.233 191.86 175.917C192.821 182.406 183.513 198.36 184.222 210.061C184.935 220.862 186.739 231.562 189.608 242C204.522 241.338 212.822 237.432 212.822 237.432Z" fill="white"/>
<path d="M113.132 177.414C113.132 177.414 97.0993 183.966 92.5794 207.731C88.343 229.952 87.6028 239.102 87.6028 239.102C87.6028 239.102 106.328 244.992 117.683 241.89C119.809 234.567 123.557 210.975 123.557 210.975" fill="white"/>
<path d="M185.419 196.123C185.419 196.123 190.726 207.683 193.435 215.62C196.144 223.558 190.569 240.252 190.569 240.252C190.569 240.252 196.632 229.542 195.876 218.203C195.12 206.864 185.419 196.123 185.419 196.123Z" fill="#E9EDF2"/>
<path d="M240.004 209.053C240.785 207.78 241.419 206.422 241.894 205.006C242.099 200.974 242.115 189.871 244.335 185.824C244.569 185.768 244.812 185.759 245.049 185.798C245.286 185.837 245.513 185.923 245.717 186.05C245.921 186.178 246.097 186.344 246.236 186.541C246.374 186.737 246.472 186.959 246.524 187.194C247.186 189.021 245.721 192.344 246.383 194.029C247.044 195.714 248.036 194.958 249.249 194.029C251.383 191.649 253.199 189.002 254.651 186.154C255.328 183.997 256.383 181.603 256.856 181.619C258.084 181.619 257.879 183.43 257.753 184.926C257.553 185.918 257.29 186.896 256.966 187.855C256.486 189.3 255.864 190.692 255.108 192.013C255.935 190.823 256.823 189.677 257.769 188.58C258.336 187.304 258.934 186.328 259.627 184.611C260.226 182.453 261.297 182.154 261.769 182.579C262.242 183.005 261.769 184.658 261.108 187.21C260.685 188.58 260.081 189.888 259.312 191.1C258.131 192.911 257.139 194.249 257.139 194.249C257.139 194.249 258.32 192.674 259.785 190.989C260.7 189.784 261.466 188.472 262.069 187.084C262.321 184.343 263.785 183.383 264.147 183.934C264.423 185.394 264.359 186.897 263.958 188.328C263.701 189.685 263.193 190.983 262.462 192.155C261.045 194.186 259.564 196.029 259.564 196.029C259.564 196.029 263.738 190.422 264.478 191.21C265.218 191.997 261.328 197.872 260.147 199.698C258.966 201.525 255.895 205.085 254.304 205.777C252.714 206.47 249.186 212.345 248.745 213.652" fill="#FE9393"/>
<path d="M262.194 192.705C262.194 192.705 263.769 189.76 264.084 189.461C264.399 189.162 265.076 188.39 265.659 188.91C266.242 189.43 263.864 193.713 263.864 193.713" fill="#FE9393"/>
<path d="M182.364 89.8979C182.329 90.5595 182.244 91.2175 182.112 91.8666C181.986 92.4808 181.828 93.2367 181.576 94.0871C181.306 95.0389 180.969 95.9703 180.568 96.8747C180.106 97.9546 179.58 99.0063 178.993 100.024C178.312 101.138 177.538 102.192 176.678 103.174C175.779 104.265 174.783 105.272 173.702 106.182C173.159 106.666 172.579 107.109 171.969 107.505C171.371 107.915 170.772 108.356 170.158 108.749C168.835 109.379 167.575 110.167 166.221 110.655L164.205 111.379C163.56 111.626 162.897 111.821 162.221 111.962C160.882 112.261 159.591 112.529 158.362 112.75L154.866 113.049L153.291 113.175H151.89L149.622 113.08L147.653 112.97L149.622 112.813L151.811 112.655L153.181 112.561L154.756 112.34L158.142 111.82L161.843 110.86C163.134 110.56 164.363 109.93 165.67 109.49C166.977 109.049 168.142 108.23 169.402 107.615C170.001 107.269 170.552 106.844 171.135 106.45C171.726 106.091 172.285 105.68 172.804 105.222L174.379 103.883C174.86 103.423 175.317 102.94 175.749 102.434C176.606 101.502 177.406 100.518 178.143 99.489C178.776 98.5467 179.355 97.5686 179.875 96.5597C180.329 95.7041 180.738 94.8264 181.104 93.9296C181.434 93.1265 181.686 92.3548 181.875 91.8193C182.076 91.189 182.239 90.5474 182.364 89.8979Z" fill="#18004D"/>
<path d="M142.251 126.167C143.147 126.167 143.873 125.441 143.873 124.545C143.873 123.649 143.147 122.923 142.251 122.923C141.355 122.923 140.629 123.649 140.629 124.545C140.629 125.441 141.355 126.167 142.251 126.167Z" fill="white"/>
<path d="M140.44 113.977C141.039 113.743 141.702 113.734 142.307 113.951C142.912 114.168 143.418 114.597 143.732 115.158C145.559 117.788 145.102 120.591 143.054 120.198C141.921 119.977 141.795 118.371 142.299 117.442C142.455 117.156 142.704 116.933 143.005 116.81C143.306 116.686 143.641 116.67 143.952 116.764C143.952 116.764 143.212 113.599 140.44 113.977Z" fill="#E15F60"/>
<path d="M295.85 262.631L283.251 259.623C280.635 257.886 278.299 255.762 276.321 253.323C271.99 248.409 265.785 248.961 264.478 249.024C263.171 249.087 263.061 250.74 265.376 252.315C266.951 253.37 269.612 252.866 270.526 256.473C270.935 258.048 266.384 258.142 264.037 257.355C261.69 256.567 253.722 252.772 251.69 251.921C249.658 251.071 247.926 252.362 253.265 256.268C255.958 258.293 258.795 260.12 261.753 261.733C262.293 262.886 262.92 263.997 263.628 265.056C263.894 265.331 264.216 265.546 264.572 265.686C265.08 266.779 265.67 267.832 266.336 268.836C266.459 268.967 266.596 269.083 266.746 269.182C267.234 270.19 267.691 271.182 268.116 272.033C269.691 275.34 276.148 274.411 278.951 274.064C281.754 273.718 293.787 276.411 293.787 276.411L295.85 262.631Z" fill="#FE9393"/>
<path d="M265.202 261.576C262.458 261.368 259.752 260.801 257.155 259.89C252.43 258.316 246.414 254.945 245.17 254.804C243.926 254.662 243.8 256.253 245.17 257.481C247.51 259.238 250.009 260.772 252.635 262.064C257.242 263.72 261.931 265.139 266.683 266.316" fill="#FE9393"/>
<path d="M266.777 264.898C264.025 265.003 261.272 264.743 258.588 264.126C253.721 263.103 247.359 260.441 246.115 260.441C244.871 260.441 244.918 262.016 246.414 263.087C248.913 264.577 251.55 265.822 254.288 266.804C257.044 267.812 268.714 270.694 268.714 270.694" fill="#FE9393"/>
<path d="M270.746 269.765C268 269.87 265.252 269.616 262.572 269.009C257.69 267.969 251.328 265.308 250.084 265.324C248.839 265.339 248.887 266.898 250.383 267.969C252.886 269.45 255.523 270.695 258.257 271.686C263.022 272.813 267.843 273.69 272.699 274.316" fill="#FE9393"/>
<path d="M409.84 223.479C402.217 242.551 383.319 273.292 383.319 273.292C371.098 274.348 354.64 268.568 354.64 268.568C356.766 245.433 377.633 182.847 377.633 182.847C377.633 182.847 378.893 172.957 405.682 165.964" fill="#435FEA"/>
<path d="M366.263 267.419L291.613 260.851L288.826 276.317C288.826 276.317 345.27 297.971 366.373 297.971C383.697 297.971 397.319 248.93 397.319 248.93L366.263 267.419Z" fill="#435FEA"/>
<path d="M382.941 199.415C382.941 199.415 379.177 256.11 377.492 291.529C380.639 287.686 383.363 283.514 385.618 279.088L382.941 199.415Z" fill="#3155BA"/>
<path d="M483.655 261.623C482.41 268.253 480.284 279.261 478.316 290.207C477.591 294.349 476.851 298.475 476.205 302.349C474.788 311.058 474.631 318.003 475.276 321.925C476.709 330.634 478.426 334.524 476.268 337.044C471.308 342.808 437.384 345.217 421.462 345.217C407.288 345.217 383.145 341.422 381.933 336.886C380.106 330.146 382.358 330.146 382.988 323.059C383.618 315.972 379.539 184.012 385.114 177.618C391.697 172.153 402.17 166.83 412.659 163.366C420.108 162.153 432.754 162.673 446.046 166.137C461.496 170.138 479.45 173.524 482.127 179.382C484.647 184.941 487.371 241.952 483.655 261.623Z" fill="#435FEA"/>
<path d="M478.316 290.207C477.591 294.349 476.851 298.475 476.205 302.349C449.684 291.577 405.036 268.505 403.666 267.781L478.316 290.207Z" fill="#264C9E"/>
<path d="M480.962 277.529L473.812 238.157L465.843 223.825C465.843 223.825 466.725 238.928 468.032 256.756C449.259 254.11 411.336 250.646 411.336 250.646C411.336 250.646 446.44 261.67 447.857 261.938C448.991 262.19 463.228 263.875 468.583 264.52C468.914 268.835 469.26 273.214 469.622 277.482L480.962 277.529Z" fill="#3155BA"/>
<path d="M382.941 246.047C382.941 246.047 371.035 248.787 370.562 249.496C370.09 250.205 370.562 252.142 374.452 252.331C377.157 252.317 379.822 251.67 382.232 250.441" fill="#FE9393"/>
<path d="M381.051 252.819L373.759 257.953C373.759 257.953 369.224 263.828 369.46 264.253C369.909 264.582 370.467 264.729 371.02 264.661C371.573 264.594 372.08 264.318 372.436 263.891C373.791 262.662 376.468 260.095 376.468 260.095L383.508 257.449" fill="#FE9393"/>
<path d="M384.075 254.709L376.767 259.827C376.767 259.827 372.231 265.717 372.468 266.127C372.912 266.466 373.471 266.619 374.026 266.555C374.581 266.49 375.09 266.212 375.444 265.78C376.799 264.552 379.476 261.985 379.476 261.985L386.468 259.276" fill="#FE9393"/>
<path d="M387.224 256.615L379.917 261.749C379.917 261.749 375.381 267.623 375.617 268.049C376.066 268.378 376.624 268.524 377.177 268.457C377.73 268.39 378.237 268.114 378.594 267.686C379.948 266.458 382.626 263.891 382.626 263.891L389.665 261.245" fill="#FE9393"/>
<path d="M410.422 253.906L398.06 247.606C398.06 247.606 385.098 246.031 383.256 246.031C381.413 246.031 372.389 252.551 371.098 253.118C369.806 253.685 364.436 263.497 364.436 263.497C364.569 263.796 364.792 264.047 365.075 264.213C365.357 264.38 365.684 264.454 366.011 264.426C367.365 264.426 373.255 257.307 373.255 257.307L380.09 253.591C380.789 256.597 382.109 259.424 383.964 261.89C386.358 264.835 392.547 263.701 397.288 263.26C399.155 263.112 401.035 263.244 402.863 263.654" fill="#FE9393"/>
<path d="M514.428 287.719C514.534 286.888 514.592 286.052 514.601 285.215C514.601 265.497 512.286 212.77 491.576 185.635C483.544 175.115 465.118 170.973 465.118 170.973L465.512 219.92C466.016 238.205 478.331 287.719 478.331 287.719H514.428Z" fill="#435FEA"/>
<path d="M402.69 256.693C401.603 260.063 401.102 263.595 401.209 267.134C401.209 267.134 479.954 300.427 502.333 302.711L501.435 266.63L406.611 249.874C404.846 251.851 403.511 254.173 402.69 256.693Z" fill="#435FEA"/>
<path d="M502.333 302.711C502.333 302.711 515.609 305.31 514.601 283.01C513.719 263.355 496.143 268.568 496.143 268.568L492.143 284.821L502.333 302.711Z" fill="#435FEA"/>
<path d="M446.078 166.09C446.078 166.09 431.085 177.382 412.69 163.318C412.69 163.318 415.021 158.877 415.415 158.074C417.368 154.627 418.806 150.913 419.683 147.049C419.809 146.671 419.872 146.262 419.982 145.837C420.358 144.092 420.616 142.324 420.754 140.545C421.098 136.936 421.008 133.298 420.486 129.71L422.265 128.277L451.605 105.189L454.96 102.575C454.96 102.575 453.984 108.181 452.645 116.402C451.921 121.127 451.07 126.529 450.157 132.293C448.44 144.026 446.771 156.829 446.078 166.09Z" fill="#FE9393"/>
<path d="M441.495 132.987C437.29 139.097 427.809 151.271 415.431 158.09C417.384 154.644 418.822 150.93 419.698 147.066C417.937 147.594 416.128 147.942 414.297 148.106C414.375 146.751 414.438 145.365 414.407 143.901L416.36 142.72L420.769 140.562L443.952 129.27C443.952 129.27 443.164 130.703 441.495 132.987Z" fill="#E15F60"/>
<path d="M395.162 85.0471C395.162 85.0471 390.059 99.0321 399.178 106.985L403.54 85.6771L395.162 85.0471Z" fill="#18004D"/>
<path d="M446.314 127.049C444.862 129.123 443.284 131.106 441.59 132.987C438.765 136.085 435.595 138.849 432.14 141.223C428.407 143.836 424.259 145.801 419.872 147.035C418.111 147.562 416.301 147.911 414.47 148.074C410.138 148.634 405.74 147.813 401.902 145.728C394.595 134.861 394.863 117.254 396.532 103.899C397.178 98.481 398.107 93.7879 398.784 90.4806C399.43 87.5041 399.918 85.756 399.918 85.756C399.918 85.756 399.918 85.5355 399.997 85.3938C403.147 68.1488 426.234 67.5503 442.094 77.2674C443.021 77.8289 443.915 78.4442 444.771 79.11C449.165 82.1621 452.693 86.3025 455.008 91.1263C458.724 99.2685 456.441 108.45 452.629 116.419L452.015 117.679C450.347 120.938 448.442 124.07 446.314 127.049Z" fill="#FE9393"/>
<path d="M447.227 75.9597C447.227 75.9597 428.439 104.922 396.926 89.6927C387.713 85.2358 385.665 53.8956 393.776 60.1637C410.359 72.999 423.399 48.5568 439.322 56.7934C444.408 59.4392 449.464 65.8962 447.227 75.9597Z" fill="#18004D"/>
<path d="M440.991 79.5823C440.991 79.5823 430.061 136.451 441.605 110.324C441.605 110.324 444.534 103.048 449.826 103.71C455.118 104.371 450.865 123.947 450.141 132.231C450.141 132.231 462.268 123.569 466.725 97.7564C471.181 71.9441 453.842 61.3609 444.235 72.5583L440.991 79.5823Z" fill="#18004D"/>
<path d="M448.787 107.835C448.787 107.835 445.81 108.245 445.18 113.694C444.55 119.143 448.062 120.245 448.771 117.363C449.48 114.481 446.818 112.749 446.235 113.962C446.093 112.807 446.253 111.635 446.701 110.561C447.148 109.487 447.867 108.547 448.787 107.835Z" fill="#E15F60"/>
<path d="M392.343 104.607C392.53 103.77 392.995 103.021 393.661 102.481C394.326 101.941 395.155 101.641 396.012 101.63C398.949 101.743 401.855 102.274 404.643 103.205C406.753 104.15 408.029 105.882 406.469 110.15C405.493 112.828 403.461 115.977 397.902 115.001C393.225 114.229 391.618 109.505 392.343 104.607Z" stroke="#435FEA" stroke-width="0.63" stroke-miterlimit="10"/>
<path d="M415.604 104.513C419.264 104.471 422.912 104.948 426.439 105.93C427.499 106.285 428.388 107.022 428.932 107.998C429.477 108.974 429.638 110.118 429.384 111.206C427.809 116.718 425.793 120.104 418.234 118.907C411.934 117.931 411.934 111.253 412.202 107.41C412.314 106.594 412.723 105.847 413.35 105.313C413.978 104.778 414.78 104.493 415.604 104.513V104.513Z" stroke="#435FEA" stroke-width="0.63" stroke-miterlimit="10"/>
<path d="M407.163 107.836C407.975 107.555 408.84 107.462 409.694 107.563C410.548 107.664 411.367 107.956 412.092 108.419" stroke="#435FEA" stroke-width="0.63" stroke-miterlimit="10"/>
<path d="M429.479 110.638C429.479 110.638 440.172 109.457 443.558 108.827" stroke="#435FEA" stroke-width="0.63" stroke-miterlimit="10"/>
<path d="M441.243 111.19C442.18 108.811 443.67 106.689 445.59 105.001L445.353 108.544L441.243 111.19Z" fill="#FE9393"/>
<path d="M360.263 268.568H238.43C237.741 268.568 237.074 268.328 236.545 267.887C236.015 267.447 235.657 266.835 235.532 266.158L219.216 178.548C219.107 177.961 219.129 177.357 219.28 176.78C219.431 176.203 219.707 175.666 220.089 175.207C220.471 174.749 220.949 174.38 221.489 174.127C222.03 173.874 222.619 173.743 223.216 173.744H339.222C340.169 173.747 341.086 174.08 341.814 174.687C342.541 175.294 343.034 176.136 343.207 177.067L360.263 268.568Z" fill="#18004D"/>
<path d="M397.713 268.568H339.805V263.623H395.256C395.893 263.619 396.519 263.783 397.072 264.098C397.625 264.413 398.085 264.869 398.406 265.418L398.989 266.41C399.118 266.631 399.186 266.882 399.186 267.138C399.185 267.394 399.116 267.645 398.986 267.865C398.856 268.085 398.669 268.266 398.446 268.39C398.222 268.513 397.969 268.575 397.713 268.568Z" fill="#18004D"/>
<path d="M337.269 177.823C337.828 177.824 338.37 178.019 338.801 178.375C339.232 178.731 339.525 179.227 339.631 179.776L355.49 260.551" stroke="#CFECFF" stroke-width="0.3" stroke-miterlimit="10" stroke-linecap="round"/>
<path d="M292.212 222.093C292.212 225.652 288.337 228.534 283.565 228.534C278.794 228.534 274.935 225.652 274.935 222.093C274.935 218.534 278.809 215.668 283.565 215.668C288.322 215.668 292.212 218.55 292.212 222.093Z" fill="#31216D"/>
<path d="M1 387.897H571.092" stroke="#52A5E8" stroke-width="1.09" stroke-miterlimit="10" stroke-linecap="round"/>
<path d="M283.503 30.1934H290.826" stroke="white" stroke-width="0.97" stroke-miterlimit="10" stroke-linecap="round"/>
<path d="M287.172 26.5239V33.8629" stroke="white" stroke-width="0.97" stroke-miterlimit="10" stroke-linecap="round"/>
<path d="M338.938 305.562H346.277" stroke="white" stroke-width="0.97" stroke-miterlimit="10" stroke-linecap="round"/>
<path d="M342.608 301.892V309.231" stroke="white" stroke-width="0.97" stroke-miterlimit="10" stroke-linecap="round"/>
<path d="M353.002 84.3061C353.002 84.9733 352.804 85.6256 352.433 86.1801C352.062 86.7347 351.535 87.1666 350.918 87.4213C350.301 87.6759 349.623 87.7417 348.969 87.6104C348.314 87.479 347.714 87.1565 347.243 86.6836C346.773 86.2107 346.453 85.6087 346.325 84.9539C346.196 84.2991 346.265 83.6209 346.523 83.0054C346.78 82.3898 347.215 81.8646 347.771 81.4962C348.327 81.1277 348.98 80.9327 349.648 80.9358C350.09 80.9358 350.527 81.0231 350.935 81.1927C351.343 81.3622 351.714 81.6107 352.025 81.9239C352.337 82.2371 352.584 82.6087 352.751 83.0175C352.919 83.4263 353.004 83.8642 353.002 84.3061Z" fill="white"/>
<path d="M240.225 153.018C240.228 153.686 240.033 154.339 239.665 154.895C239.296 155.451 238.771 155.886 238.155 156.143C237.54 156.401 236.862 156.47 236.207 156.341C235.552 156.213 234.95 155.893 234.477 155.423C234.004 154.952 233.682 154.352 233.55 153.697C233.419 153.043 233.485 152.365 233.739 151.748C233.994 151.131 234.426 150.604 234.981 150.233C235.535 149.862 236.187 149.664 236.855 149.664C237.746 149.664 238.601 150.017 239.232 150.645C239.864 151.274 240.221 152.127 240.225 153.018Z" fill="white"/>
<path d="M199.278 30.193C199.278 30.8596 199.08 31.5112 198.71 32.0655C198.34 32.6197 197.813 33.0517 197.197 33.3067C196.582 33.5618 195.904 33.6286 195.25 33.4985C194.596 33.3685 193.996 33.0475 193.524 32.5762C193.053 32.1048 192.732 31.5043 192.602 30.8505C192.472 30.1968 192.539 29.5191 192.794 28.9033C193.049 28.2875 193.481 27.7611 194.035 27.3908C194.589 27.0205 195.241 26.8228 195.908 26.8228C196.351 26.8207 196.79 26.9065 197.2 27.0751C197.61 27.2437 197.982 27.4919 198.295 27.8053C198.609 28.1186 198.857 28.491 199.026 28.9008C199.194 29.3107 199.28 29.7499 199.278 30.193Z" fill="white"/>
<path d="M533.846 124.639C533.849 125.307 533.654 125.96 533.286 126.516C532.917 127.072 532.392 127.507 531.777 127.764C531.161 128.022 530.483 128.091 529.828 127.963C529.173 127.834 528.571 127.515 528.098 127.044C527.626 126.573 527.303 125.973 527.172 125.318C527.04 124.664 527.106 123.986 527.361 123.369C527.615 122.752 528.047 122.225 528.602 121.854C529.157 121.483 529.809 121.285 530.476 121.285C531.367 121.285 532.222 121.638 532.854 122.266C533.485 122.895 533.842 123.748 533.846 124.639Z" fill="#CFECFF"/>
<path d="M470.252 147.633C470.255 148.301 470.06 148.954 469.691 149.511C469.322 150.068 468.795 150.502 468.179 150.759C467.562 151.016 466.884 151.084 466.228 150.955C465.573 150.825 464.971 150.504 464.499 150.031C464.027 149.559 463.705 148.957 463.576 148.302C463.446 147.647 463.514 146.968 463.771 146.351C464.028 145.735 464.463 145.209 465.019 144.84C465.576 144.47 466.23 144.275 466.898 144.278C467.787 144.278 468.641 144.632 469.27 145.261C469.899 145.89 470.252 146.743 470.252 147.633Z" fill="#CFECFF"/>
<path d="M572.62 261.465C572.623 262.132 572.428 262.786 572.058 263.343C571.689 263.9 571.163 264.334 570.547 264.591C569.93 264.848 569.251 264.916 568.596 264.787C567.941 264.657 567.339 264.336 566.867 263.863C566.394 263.391 566.073 262.789 565.943 262.134C565.814 261.479 565.882 260.8 566.139 260.183C566.396 259.567 566.83 259.041 567.387 258.671C567.944 258.302 568.597 258.107 569.265 258.11C570.155 258.11 571.008 258.463 571.637 259.093C572.266 259.722 572.62 260.575 572.62 261.465Z" fill="#3F49A5"/>
<path d="M249.989 367.109C249.989 367.776 249.791 368.428 249.42 368.983C249.049 369.537 248.522 369.969 247.905 370.224C247.288 370.478 246.61 370.544 245.955 370.413C245.301 370.282 244.701 369.959 244.23 369.486C243.759 369.013 243.44 368.411 243.311 367.756C243.183 367.102 243.252 366.423 243.51 365.808C243.767 365.192 244.202 364.667 244.758 364.299C245.314 363.93 245.967 363.735 246.635 363.738C247.076 363.738 247.514 363.826 247.922 363.995C248.33 364.165 248.7 364.413 249.012 364.726C249.324 365.04 249.571 365.411 249.738 365.82C249.906 366.229 249.991 366.667 249.989 367.109Z" fill="white"/>
<path d="M40.073 255.402C40.073 256.068 39.8753 256.72 39.505 257.274C39.1347 257.828 38.6083 258.26 37.9925 258.515C37.3767 258.77 36.699 258.837 36.0452 258.707C35.3915 258.577 34.791 258.256 34.3196 257.785C33.8483 257.313 33.5273 256.713 33.3973 256.059C33.2672 255.405 33.334 254.728 33.5891 254.112C33.8441 253.496 34.2761 252.97 34.8303 252.599C35.3846 252.229 36.0362 252.031 36.7028 252.031C37.1459 252.029 37.5851 252.115 37.995 252.284C38.4048 252.452 38.7771 252.7 39.0905 253.014C39.4039 253.327 39.6521 253.699 39.8207 254.109C39.9894 254.519 40.0751 254.958 40.073 255.402Z" fill="#CFECFF"/>
<path d="M526.806 80.6841H534.145" stroke="#3F49A5" stroke-width="0.97" stroke-miterlimit="10" stroke-linecap="round"/>
<path d="M530.476 77.0149V84.3539" stroke="#3F49A5" stroke-width="0.97" stroke-miterlimit="10" stroke-linecap="round"/>
<path d="M538.461 350.131H545.8" stroke="#3F49A5" stroke-width="0.97" stroke-miterlimit="10" stroke-linecap="round"/>
<path d="M542.13 346.461V353.784" stroke="#3F49A5" stroke-width="0.97" stroke-miterlimit="10" stroke-linecap="round"/>
<path d="M30.293 344.052H37.6162" stroke="white" stroke-width="0.97" stroke-miterlimit="10" stroke-linecap="round"/>
<path d="M33.9468 340.382V347.721" stroke="white" stroke-width="0.97" stroke-miterlimit="10" stroke-linecap="round"/>
<path d="M101.21 100.244H43.333C41.8196 100.244 40.3679 100.844 39.2962 101.913C38.2245 102.982 37.6204 104.432 37.6162 105.945V121.206C37.6162 122.722 38.2185 124.176 39.2906 125.248C40.3627 126.321 41.8168 126.923 43.333 126.923H88.233L96.5326 135.207V126.923H101.257C102.773 126.923 104.228 126.321 105.3 125.248C106.372 124.176 106.974 122.722 106.974 121.206V105.945C106.972 105.192 106.821 104.446 106.53 103.752C106.239 103.057 105.813 102.426 105.277 101.896C104.742 101.367 104.107 100.948 103.409 100.664C102.711 100.381 101.963 100.238 101.21 100.244Z" fill="#FFBC7C"/>
<path d="M46.2622 107.521H90.6267" stroke="white" stroke-width="0.97" stroke-miterlimit="10" stroke-linecap="round"/>
<path d="M46.2622 113.583H97.5089" stroke="white" stroke-width="0.97" stroke-miterlimit="10" stroke-linecap="round"/>
<path d="M46.2622 119.647H64.6411" stroke="white" stroke-width="0.97" stroke-miterlimit="10" stroke-linecap="round"/>
<path d="M375.224 109.3H317.347C316.596 109.298 315.851 109.444 315.157 109.731C314.462 110.017 313.831 110.438 313.3 110.97C312.769 111.501 312.348 112.132 312.061 112.827C311.775 113.521 311.628 114.265 311.63 115.017V130.277C311.63 131.027 311.778 131.77 312.066 132.463C312.353 133.155 312.774 133.785 313.305 134.314C313.837 134.844 314.467 135.263 315.16 135.549C315.854 135.835 316.597 135.98 317.347 135.978H362.247L370.531 144.278V135.978H375.255C376.767 135.978 378.218 135.378 379.287 134.309C380.356 133.239 380.957 131.789 380.957 130.277V115.017C380.959 114.264 380.812 113.518 380.524 112.823C380.237 112.127 379.814 111.496 379.281 110.964C378.748 110.433 378.115 110.012 377.419 109.726C376.723 109.441 375.977 109.296 375.224 109.3Z" fill="#FFBC7C"/>
<path d="M320.276 116.575H364.641" stroke="white" stroke-width="0.97" stroke-miterlimit="10" stroke-linecap="round"/>
<path d="M320.276 122.639H347.285" stroke="white" stroke-width="0.97" stroke-miterlimit="10" stroke-linecap="round"/>
<path d="M351.144 122.639H371.523" stroke="white" stroke-width="0.97" stroke-miterlimit="10" stroke-linecap="round"/>
<path d="M320.276 128.702H338.655" stroke="white" stroke-width="0.97" stroke-miterlimit="10" stroke-linecap="round"/>
<path d="M280.117 87.6922C280.128 91.3881 279.549 95.062 278.4 98.5747C276.449 104.581 272.921 109.952 268.184 114.128C263.447 118.303 257.675 121.13 251.472 122.311C245.269 123.492 238.862 122.986 232.922 120.844C226.981 118.701 221.726 115.003 217.704 110.134C214.11 105.775 211.617 100.615 210.435 95.0896C209.254 89.5644 209.418 83.8361 210.915 78.3879C212.413 72.9397 215.198 67.9315 219.037 63.7859C222.876 59.6402 227.656 56.4787 232.973 54.5681C238.29 52.6575 243.989 52.0538 249.589 52.8079C255.188 53.5621 260.524 55.652 265.147 58.9013C269.769 62.1506 273.542 66.464 276.147 71.4776C278.753 76.4912 280.114 82.0579 280.117 87.708V87.6922Z" fill="#EF831D"/>
<path d="M283.597 86.6212C283.602 90.6804 282.964 94.7148 281.707 98.5745L244.902 86.6212V47.9263C255.164 47.9304 265.003 52.0086 272.259 59.2644C279.515 66.5202 283.593 76.3599 283.597 86.6212Z" fill="#FF9E41"/>
<path d="M244.902 86.6221L232.303 127.49C224.68 125.07 217.917 120.505 212.822 114.34L244.902 86.6221Z" fill="white"/>
<path d="M283.991 321.673H273.77V368.353H283.991V321.673Z" fill="#EF831D"/>
<path d="M300.417 329.154H290.196V368.337H300.417V329.154Z" fill="#EF831D"/>
<path d="M267.707 335.547H257.486V368.352H267.707V335.547Z" fill="#EF831D"/>
<path d="M316.843 315.467H306.622V368.352H316.843V315.467Z" fill="#EF831D"/>
<path d="M262.636 331.563C263.309 331.563 263.956 331.297 264.434 330.821C264.912 330.346 265.183 329.702 265.187 329.028C265.18 328.64 265.089 328.258 264.919 327.909L277.518 315.767C277.922 316.026 278.393 316.163 278.873 316.161C279.217 316.161 279.558 316.091 279.874 315.956C280.191 315.82 280.477 315.622 280.715 315.373L292.795 322.602C292.787 322.728 292.787 322.854 292.795 322.98C292.845 323.62 293.135 324.218 293.606 324.653C294.078 325.089 294.696 325.331 295.338 325.331C295.98 325.331 296.598 325.089 297.07 324.653C297.541 324.218 297.831 323.62 297.881 322.98C297.88 322.549 297.766 322.125 297.551 321.752L310.795 306.003C311.104 306.135 311.436 306.205 311.772 306.208C312.343 306.212 312.899 306.025 313.352 305.678C313.806 305.331 314.13 304.842 314.275 304.29C314.419 303.737 314.375 303.152 314.15 302.628C313.924 302.103 313.531 301.668 313.031 301.393C312.531 301.117 311.953 301.016 311.389 301.105C310.825 301.195 310.307 301.47 309.917 301.887C309.526 302.303 309.286 302.839 309.234 303.407C309.183 303.976 309.322 304.546 309.63 305.026L296.448 320.775C296.1 320.606 295.718 320.514 295.33 320.508C294.989 320.511 294.651 320.582 294.337 320.717C294.024 320.852 293.74 321.049 293.503 321.295L281.408 314.082C281.416 313.956 281.416 313.83 281.408 313.704C281.436 313.353 281.391 313 281.275 312.668C281.16 312.335 280.977 312.03 280.738 311.772C280.499 311.513 280.21 311.307 279.887 311.166C279.565 311.025 279.217 310.952 278.865 310.952C278.513 310.952 278.165 311.025 277.842 311.166C277.52 311.307 277.23 311.513 276.991 311.772C276.752 312.03 276.569 312.335 276.454 312.668C276.339 313 276.294 313.353 276.321 313.704C276.318 314.039 276.383 314.371 276.51 314.68L263.911 326.886C263.538 326.67 263.114 326.556 262.683 326.555C262.043 326.605 261.445 326.895 261.01 327.367C260.574 327.838 260.332 328.457 260.332 329.098C260.332 329.74 260.574 330.359 261.01 330.83C261.445 331.302 262.043 331.592 262.683 331.642L262.636 331.563Z" fill="#9DBEED"/>
<path d="M76.3739 312.932V307.42H74.0746C73.7019 305.504 72.9466 303.683 71.854 302.066L73.4289 300.491L69.539 296.601L67.9641 298.176C66.3466 297.083 64.5254 296.328 62.6094 295.955V293.656H57.0973V295.955C55.1793 296.321 53.3569 297.077 51.7427 298.176L50.1679 296.601L46.2937 300.444L47.8685 302.019C46.7698 303.633 46.014 305.455 45.6479 307.373H43.3486V312.885H45.6479C46.0207 314.801 46.776 316.622 47.8685 318.24L46.2937 319.815L50.1836 323.705L51.7585 322.13C53.3726 323.225 55.1955 323.976 57.1131 324.335V326.65H62.6252V324.335C64.5428 323.976 66.3657 323.225 67.9798 322.13L69.5547 323.705L73.4446 319.815L71.8698 318.24C72.9654 316.626 73.716 314.803 74.0746 312.885L76.3739 312.932ZM59.8534 319.374C58.0343 319.374 56.2562 318.834 54.7437 317.824C53.2312 316.813 52.0523 315.377 51.3562 313.696C50.6601 312.016 50.4779 310.166 50.8328 308.382C51.1877 306.598 52.0637 304.959 53.3499 303.673C54.6362 302.387 56.275 301.511 58.0591 301.156C59.8432 300.801 61.6925 300.983 63.3731 301.679C65.0537 302.375 66.4901 303.554 67.5007 305.067C68.5113 306.579 69.0507 308.357 69.0507 310.176C69.0528 311.385 68.8163 312.582 68.3549 313.699C67.8934 314.815 67.216 315.83 66.3615 316.685C65.507 317.539 64.4923 318.216 63.3755 318.678C62.2587 319.139 61.0618 319.376 59.8534 319.374Z" fill="#FF9E41"/>
<path d="M93.5402 327.138V323.453H91.9653C91.7165 322.174 91.2131 320.958 90.4849 319.878L91.5716 318.791L88.9573 316.177L87.8706 317.264C86.7938 316.529 85.5767 316.025 84.2956 315.783V314.208H80.6104V315.783C79.3246 316.025 78.1023 316.529 77.0197 317.264L75.933 316.177L73.3187 318.791L74.4054 319.878C73.6772 320.958 73.1738 322.174 72.925 323.453H71.3501V327.138H72.925C73.1767 328.421 73.6798 329.641 74.4054 330.729L73.3187 331.815L75.933 334.43L77.0197 333.327C78.1023 334.062 79.3246 334.566 80.6104 334.808V336.383H84.2956V334.808C85.5767 334.566 86.7938 334.062 87.8706 333.327L88.9573 334.43L91.5716 331.815L90.4849 330.729C91.2105 329.641 91.7136 328.421 91.9653 327.138H93.5402ZM82.516 331.453C81.2975 331.456 80.1054 331.098 79.0907 330.423C78.076 329.748 77.2842 328.788 76.8158 327.663C76.3473 326.538 76.223 325.299 76.4589 324.104C76.6947 322.908 77.2799 321.81 78.1405 320.947C79.001 320.084 80.0982 319.496 81.2931 319.257C82.4881 319.018 83.727 319.139 84.8531 319.605C85.9792 320.07 86.9419 320.86 87.6192 321.873C88.2965 322.886 88.6581 324.077 88.6581 325.295C88.6581 326.926 88.0115 328.49 86.8601 329.644C85.7087 330.798 84.1464 331.449 82.516 331.453Z" fill="#FF9E41"/>
<path d="M557.627 301.373H525.168V323.5H557.627V301.373Z" fill="white"/>
<path d="M525.168 323.5C527.736 321.106 530.366 318.775 533.043 316.491C535.72 314.208 538.397 311.971 541.075 309.704L541.406 309.42L541.752 309.704L545.784 313.09C547.122 314.224 548.477 315.326 549.784 316.491C552.445 318.791 555.076 321.09 557.658 323.5C554.808 321.437 552.036 319.295 549.28 317.2C547.878 316.129 546.54 315.011 545.17 313.909L541.091 310.601H541.768C539.043 312.79 536.334 315.027 533.578 317.2C530.822 319.373 528.019 321.437 525.168 323.5Z" fill="#ABA6E2"/>
<path d="M525.168 301.373L541.39 314.759L557.627 301.373" fill="white"/>
<path d="M525.168 301.373C528.019 303.436 530.791 305.578 533.547 307.751C536.303 309.924 539.012 312.145 541.736 314.334H541.059L545.138 311.027C546.508 309.94 547.847 308.806 549.248 307.751C552.004 305.578 554.776 303.436 557.627 301.373C555.06 303.782 552.43 306.097 549.752 308.381C548.445 309.546 547.091 310.649 545.752 311.783L541.721 315.169L541.374 315.452L541.043 315.169C538.366 312.901 535.657 310.68 533.011 308.381C530.366 306.082 527.736 303.782 525.168 301.373Z" fill="#ABA6E2"/>
<path d="M481.717 93.5356C479.197 90.2254 478.007 86.0921 478.38 81.9484C478.753 77.8047 480.662 73.9505 483.733 71.1435C486.804 68.3366 490.814 66.7801 494.975 66.78C499.135 66.78 503.145 68.3364 506.216 71.1432C509.287 73.95 511.197 77.8042 511.57 81.9479C511.943 86.0915 510.753 90.2249 508.232 93.5352C505.712 96.8455 502.045 99.0933 497.951 99.8365C493.858 100.58 489.634 99.7647 486.111 97.5516L478.237 101.898L481.717 93.5356Z" fill="#CFECFF"/>
<path d="M501.246 84.3066C501.246 84.858 501.41 85.3969 501.716 85.8553C502.022 86.3137 502.458 86.671 502.967 86.882C503.476 87.093 504.037 87.1482 504.577 87.0406C505.118 86.9331 505.615 86.6676 506.005 86.2777C506.395 85.8879 506.66 85.3912 506.768 84.8505C506.875 84.3097 506.82 83.7492 506.609 83.2399C506.398 82.7305 506.041 82.2952 505.582 81.9889C505.124 81.6826 504.585 81.5191 504.034 81.5191C503.667 81.517 503.304 81.5877 502.964 81.727C502.625 81.8664 502.317 82.0716 502.058 82.3309C501.799 82.5902 501.593 82.8983 501.454 83.2374C501.315 83.5766 501.244 83.94 501.246 84.3066Z" fill="#FF9E41"/>
<path d="M492.175 84.3066C492.175 84.8586 492.339 85.3982 492.646 85.8569C492.953 86.3157 493.389 86.673 493.899 86.8835C494.41 87.094 494.971 87.1483 495.512 87.0394C496.053 86.9306 496.55 86.6635 496.939 86.2721C497.328 85.8807 497.593 85.3825 497.698 84.8407C497.804 84.299 497.747 83.738 497.533 83.2289C497.32 82.7199 496.96 82.2856 496.5 81.9812C496.039 81.6768 495.499 81.516 494.947 81.5191C494.581 81.5191 494.22 81.5913 493.882 81.7316C493.545 81.8719 493.239 82.0774 492.981 82.3365C492.724 82.5956 492.52 82.903 492.381 83.2411C492.243 83.5792 492.173 83.9413 492.175 84.3066Z" fill="#FF9E41"/>
<path d="M483.088 84.3066C483.088 84.858 483.251 85.3969 483.558 85.8553C483.864 86.3137 484.299 86.671 484.808 86.882C485.318 87.093 485.878 87.1482 486.419 87.0406C486.96 86.9331 487.457 86.6676 487.846 86.2777C488.236 85.8879 488.502 85.3912 488.609 84.8505C488.717 84.3097 488.662 83.7492 488.451 83.2399C488.24 82.7305 487.882 82.2952 487.424 81.9889C486.965 81.6826 486.427 81.5191 485.875 81.5191C485.509 81.517 485.145 81.5877 484.806 81.727C484.467 81.8664 484.159 82.0716 483.9 82.3309C483.64 82.5902 483.435 82.8983 483.296 83.2374C483.156 83.5766 483.086 83.94 483.088 84.3066Z" fill="#FF9E41"/>
<path d="M533.642 145.097C531.132 141.868 527.63 139.555 523.675 138.513C519.72 137.472 515.533 137.761 511.758 139.336C507.984 140.91 504.833 143.683 502.79 147.226C500.748 150.769 499.928 154.886 500.457 158.941C500.986 162.996 502.835 166.764 505.718 169.665C508.601 172.565 512.358 174.436 516.41 174.99C520.462 175.543 524.583 174.748 528.139 172.727C531.694 170.706 534.485 167.571 536.083 163.807C537.362 160.747 537.805 157.403 537.368 154.115C536.931 150.828 535.629 147.716 533.594 145.097H533.642ZM518.948 167.602C517.117 167.604 515.315 167.15 513.704 166.281C512.093 165.412 510.723 164.156 509.719 162.625C508.52 160.826 507.884 158.709 507.892 156.546C507.879 154.249 508.584 152.006 509.908 150.128C511.232 148.251 513.11 146.835 515.278 146.077C517.447 145.319 519.798 145.257 522.003 145.9C524.208 146.543 526.157 147.859 527.578 149.664C529.139 151.618 529.989 154.045 529.988 156.546C529.993 157.978 529.715 159.396 529.169 160.72C528.344 162.754 526.931 164.496 525.11 165.722C523.289 166.948 521.143 167.603 518.948 167.602Z" fill="#CFECFF"/>
<path d="M533.641 145.097L527.578 149.664C526.545 148.366 525.232 147.319 523.738 146.599C522.244 145.879 520.606 145.505 518.948 145.506V137.852C521.787 137.859 524.588 138.516 527.134 139.771C529.681 141.027 531.907 142.849 533.641 145.097Z" fill="#EF831D"/>
<g style="mix-blend-mode:multiply" opacity="0.63">
<path d="M536.082 163.806C534.773 166.897 532.653 169.578 529.946 171.565C527.239 173.552 524.046 174.771 520.704 175.093C517.362 175.416 513.995 174.83 510.958 173.398C507.921 171.965 505.328 169.74 503.451 166.955L509.75 162.609C510.853 164.295 512.396 165.646 514.212 166.517C516.028 167.388 518.048 167.744 520.053 167.548C522.057 167.351 523.97 166.61 525.582 165.403C527.195 164.196 528.446 162.571 529.2 160.703L536.082 163.806Z" fill="#EF831D"/>
</g>
</svg>
