<svg width="181" height="71" viewBox="0 0 181 71" fill="none" xmlns="http://www.w3.org/2000/svg">
    <path d="M19.8977 51.791C18.6461 51.791 17.6346 52.585 17.6346 53.8421V61.842C17.6346 66.8704 21.7812 70.9845 26.7252 70.9845V51.791H19.8977Z" fill="#F07500"/>
    <path d="M33.5524 51.791H26.7252V70.9845C31.8287 70.9845 35.8158 66.8703 35.8158 61.842V53.8421C35.8158 52.585 34.8042 51.791 33.5524 51.791Z" fill="#F07500"/>
    <path d="M37.0917 56.4706V54.7559C37.0917 54.4418 36.7101 54.1934 36.3973 54.1934H26.7253V57.0765H36.3973C36.7101 57.0765 37.0917 56.7847 37.0917 56.4706Z" fill="#F07500"/>
    <path d="M17.0532 54.1934C16.7406 54.1934 16.5183 54.4418 16.5183 54.7559V56.4706C16.5183 56.7847 16.7406 57.0765 17.0532 57.0765H26.7253V54.1934H17.0532Z" fill="#F07500"/>
    <path d="M36.3973 62.3627C36.7102 62.3627 37.0917 62.042 37.0917 61.7276V60.0132C37.0917 59.6991 36.7101 59.4795 36.3973 59.4795H26.7253V62.3627H36.3973V62.3627Z" fill="#F07500"/>
    <path d="M16.5183 60.0132V61.7276C16.5183 62.042 16.7406 62.3627 17.0532 62.3627H26.7253V59.4795H17.0532C16.7406 59.4795 16.5183 59.6991 16.5183 60.0132Z" fill="#F07500"/>
    
    <mask id="mask0" mask-type="alpha" maskUnits="userSpaceOnUse" x="0" y="0" width="54" height="54">
        <ellipse cx="26.6189" cy="26.7344" rx="26.6189" ry="26.7344" fill="#F07500"/>
    </mask>
    
    <g mask="url(#mask0)">
        <path fill-rule="evenodd" clip-rule="evenodd" d="M26.6563 61.4182L26.6377 61.6118L26.3856 61.9859L26.6209 61.7879L26.568 62.3396L26.8522 61.5933L26.8635 61.5838L26.8846 61.6007L27.2406 62.5108L27.169 61.828L28.0354 62.5208L27.1799 61.3176L76.3382 19.9592L62.9194 7.79285L27.1143 60.9049L49.8289 1.2484L32.8035 -2.76562L26.8804 59.0784L20.4136 -2.5346L3.42534 1.63537L26.2772 60.0481L-9.83538 9.26164L-22.9473 21.761L26.6563 61.4182Z" fill="#F07500"/>
    </g>
    
    
    <path d="M70.69 22.9844H75.364V40.8346H84.8918V44.7098H70.69V22.9844Z" fill="#F07500"/>
    <path d="M98.2864 44.9844C95.2903 44.9844 93.0132 44.2012 91.4552 42.6349C89.8972 41.0685 89.1182 38.7699 89.1182 35.7389V22.9844H93.7023V35.9525C93.7023 37.6816 94.0918 39.0038 94.8708 39.9192C95.6698 40.8142 96.8083 41.2618 98.2864 41.2618C99.7645 41.2618 100.893 40.8142 101.672 39.9192C102.451 39.0038 102.841 37.6816 102.841 35.9525V22.9844H107.455V35.7389C107.455 38.7495 106.666 41.0482 105.088 42.6349C103.53 44.2012 101.263 44.9844 98.2864 44.9844Z" fill="#F07500"/>
    <path d="M135.172 22.9844V44.7098H131.037V32.8401L126.124 44.7098H123.097L118.154 32.9927V44.7098H114.049V22.9844H117.764L124.655 39.0038L131.487 22.9844H135.172Z" fill="#F07500"/>
    <path d="M141.871 22.9844H156.582V26.6765H146.425V31.8027H155.953V35.5253H146.425V41.0177H156.582V44.7098H141.871V22.9844Z" fill="#F07500"/>
    <path d="M180.69 22.9844V44.7098H177.214L166.578 30.8568V44.7098H162.204V22.9844H165.649L176.286 36.8068V22.9844H180.69Z" fill="#F07500"/>
</svg>
