<svg width="200" height="197" viewBox="0 0 200 197" fill="none" xmlns="http://www.w3.org/2000/svg">
<path d="M193.882 153.813H130.969V189.741H193.882V153.813Z" fill="#E0E0E0"/>
<path d="M167.125 159.335V184.057C167.125 184.057 166.772 184.409 167.125 184.409C171.831 181.015 171.688 162.419 167.125 159.335Z" fill="#BABABA"/>
<path d="M167.122 184.058H134.105V159.839H167.122C167.122 159.839 170.1 163.501 170.1 172.066C170.1 180.631 167.122 184.058 167.122 184.058Z" fill="#303030"/>
<path d="M134.107 159.839H133.755V184.058H134.107V159.839Z" fill="white"/>
<path d="M173.238 153.814H172.609V189.741H173.238V153.814Z" fill="white"/>
<path d="M193.893 153.814H193.264V189.741H193.893V153.814Z" fill="white"/>
<path d="M174.448 153.814H173.819V189.741H174.448V153.814Z" fill="#BABABA"/>
<path d="M164.977 181.694H136.288V162.419H164.977L165.111 163.014C166.444 168.949 166.444 175.105 165.111 181.04L164.977 181.694Z" fill="#3E4754"/>
<path d="M164.5 181.411L136.692 162.773H164.5L165.02 166.67C165.498 170.249 165.498 173.876 165.02 177.455L164.5 181.411Z" fill="#444E5C"/>
<path d="M191.134 156.897H177.201V186.992H191.134V156.897Z" fill="#C2C2C2"/>
<path d="M181.503 157.569H177.955V161.114H181.503V157.569Z" fill="#A3A3A3"/>
<path d="M181.206 160.802C181.068 160.084 180.7 159.431 180.157 158.941C179.597 158.461 178.951 158.091 178.253 157.852H181.206V160.802Z" fill="#919191"/>
<path d="M185.983 157.569H182.435V161.114H185.983V157.569Z" fill="#A3A3A3"/>
<path d="M185.685 160.802C185.543 160.085 185.176 159.433 184.636 158.941C184.073 158.461 183.424 158.091 182.724 157.852H185.685V160.802Z" fill="#919191"/>
<path d="M190.402 157.569H186.854V161.114H190.402V157.569Z" fill="#A3A3A3"/>
<path d="M190.105 160.802C189.963 160.085 189.596 159.433 189.056 158.941C188.496 158.461 187.85 158.091 187.152 157.852H190.105V160.802Z" fill="#919191"/>
<path d="M181.503 162.071H177.955V165.616H181.503V162.071Z" fill="#A3A3A3"/>
<path d="M181.206 165.312C181.068 164.594 180.7 163.941 180.157 163.451C179.599 162.966 178.952 162.594 178.253 162.353H181.206V165.312Z" fill="#919191"/>
<path d="M185.983 162.071H182.435V165.616H185.983V162.071Z" fill="#A3A3A3"/>
<path d="M185.685 165.312C185.547 164.594 185.179 163.941 184.636 163.451C184.074 162.968 183.425 162.595 182.724 162.353H185.685V165.312Z" fill="#919191"/>
<path d="M190.402 162.071H186.854V165.616H190.402V162.071Z" fill="#A3A3A3"/>
<path d="M190.105 165.312C189.967 164.594 189.599 163.941 189.056 163.451C188.498 162.966 187.851 162.594 187.152 162.353H190.105V165.312Z" fill="#919191"/>
<path d="M181.503 166.566H177.955V170.111H181.503V166.566Z" fill="#A3A3A3"/>
<path d="M181.206 169.811C181.068 169.093 180.7 168.44 180.157 167.951C179.599 167.466 178.952 167.093 178.253 166.853H181.206V169.811Z" fill="#919191"/>
<path d="M185.983 166.566H182.435V170.111H185.983V166.566Z" fill="#A3A3A3"/>
<path d="M185.685 169.811C185.547 169.093 185.179 168.44 184.636 167.951C184.074 167.467 183.425 167.095 182.724 166.853H185.685V169.811Z" fill="#919191"/>
<path d="M190.402 166.566H186.854V170.111H190.402V166.566Z" fill="#A3A3A3"/>
<path d="M190.105 169.811C189.967 169.093 189.599 168.44 189.056 167.951C188.498 167.466 187.851 167.093 187.152 166.853H190.105V169.811Z" fill="#919191"/>
<path d="M181.503 171.068H177.955V174.613H181.503V171.068Z" fill="#A3A3A3"/>
<path d="M181.206 174.313C181.068 173.595 180.7 172.942 180.157 172.452C179.596 171.971 178.95 171.599 178.253 171.354H181.206V174.313Z" fill="#919191"/>
<path d="M185.983 171.068H182.435V174.613H185.983V171.068Z" fill="#A3A3A3"/>
<path d="M185.685 174.313C185.547 173.595 185.179 172.942 184.636 172.452C184.072 171.972 183.423 171.6 182.724 171.354H185.685V174.313Z" fill="#919191"/>
<path d="M190.402 171.068H186.854V174.613H190.402V171.068Z" fill="#A3A3A3"/>
<path d="M190.105 174.313C189.967 173.595 189.599 172.942 189.056 172.452C188.495 171.971 187.85 171.599 187.152 171.354H190.105V174.313Z" fill="#919191"/>
<path d="M181.503 175.569H177.955V179.114H181.503V175.569Z" fill="#A3A3A3"/>
<path d="M181.206 178.814C181.068 178.097 180.7 177.443 180.157 176.954C179.596 176.473 178.95 176.1 178.253 175.856H181.206V178.814Z" fill="#919191"/>
<path d="M190.404 175.569H182.435V179.114H190.404V175.569Z" fill="#CF4040"/>
<path d="M190.105 178.813C190.105 178.813 189.451 178.385 187.547 177.346C186.013 176.631 184.391 176.121 182.724 175.829H190.105V178.813Z" fill="#B53838"/>
<path d="M190.401 180.021H178.767C178.544 180.021 178.331 180.109 178.173 180.266C178.016 180.423 177.928 180.637 177.928 180.859V185.242C177.928 185.464 178.016 185.677 178.173 185.834C178.331 185.992 178.544 186.08 178.767 186.08H190.401V180.021Z" fill="#919191"/>
<path d="M173.827 153.814H173.24V189.741H173.827V153.814Z" fill="#878787"/>
<path d="M167.132 184.061H133.755V184.413H167.132V184.061Z" fill="white"/>
<path d="M167.132 159.335H133.755V159.838H167.132V159.335Z" fill="#BABABA"/>
<path d="M193.261 189.741H130.969V191.409H193.261V189.741Z" fill="#BABABA"/>
<path d="M193.261 189.741H130.969V190.219H193.261V189.741Z" fill="#808080"/>
<path d="M139.248 192.466H135.842C135.566 192.466 135.3 192.357 135.104 192.162C134.907 191.967 134.796 191.703 134.794 191.427H140.28C140.277 191.7 140.168 191.962 139.976 192.156C139.783 192.35 139.522 192.462 139.248 192.466Z" fill="#858585"/>
<path d="M188.553 192.466H185.155C184.879 192.466 184.613 192.357 184.417 192.162C184.22 191.967 184.109 191.703 184.107 191.427H189.601C189.599 191.703 189.487 191.967 189.291 192.162C189.095 192.357 188.829 192.466 188.553 192.466Z" fill="#858585"/>
<path d="M63.026 155.859H11.9408V190.504H63.026V155.859Z" fill="#E0E0E0"/>
<path d="M63.026 190.505H11.9408V191.704H63.026V190.505Z" fill="#BABABA"/>
<path d="M63.026 154.67H11.9408V155.868H63.026V154.67Z" fill="#BABABA"/>
<path d="M59.9559 196.343H15.0026C14.1912 196.341 13.4137 196.018 12.84 195.444C12.2663 194.871 11.943 194.094 11.9408 193.284V191.7H63.026V193.284C63.0238 194.096 62.6994 194.874 62.1238 195.447C61.5483 196.021 60.7687 196.343 59.9559 196.343Z" fill="#9E9E9E"/>
<path d="M57.8168 149.414H17.15C15.7699 149.414 14.4462 149.961 13.4695 150.935C12.4928 151.91 11.943 153.231 11.9408 154.61V154.669H63.026V154.61C63.0238 153.231 62.474 151.91 61.4973 150.935C60.5207 149.961 59.197 149.414 57.8168 149.414Z" fill="#E0E0E0"/>
<path d="M55.7258 149.414H50.7599C50.7599 149.414 54.8366 151.4 54.3836 154.61L60.9266 154.669V154.61C60.9266 153.232 60.3786 151.91 59.4033 150.936C58.428 149.961 57.1051 149.414 55.7258 149.414Z" fill="#EBEBEB"/>
<path d="M18.752 149.697H23.4411C23.4411 149.697 19.5908 151.574 20.0186 154.616L13.828 154.667V154.616C13.828 153.312 14.3467 152.06 15.2702 151.138C16.1936 150.215 17.446 149.697 18.752 149.697Z" fill="#CFCFCF"/>
<path d="M16.9736 196.075H21.6124C21.6124 196.075 20.0605 195.07 20.0605 192.069H13.828V192.111C13.828 194.265 14.2138 196.075 16.9736 196.075Z" fill="#858585"/>
<path d="M57.7565 196.075H53.1261C53.1261 196.075 54.7199 195.103 54.7199 192.069H60.9105V192.111C60.8685 194.265 60.4743 196.075 57.7565 196.075Z" fill="#B0B0B0"/>
<path d="M50.9545 157.015H24.0026C22.8074 157.015 21.8384 157.983 21.8384 159.177V174.857C21.8384 176.051 22.8074 177.019 24.0026 177.019H50.9545C52.1498 177.019 53.1187 176.051 53.1187 174.857V159.177C53.1187 157.983 52.1498 157.015 50.9545 157.015Z" fill="#C7C7C7"/>
<path d="M50.5002 157.352H24.4542C23.3007 157.352 22.3655 158.286 22.3655 159.438V174.59C22.3655 175.743 23.3007 176.677 24.4542 176.677H50.5002C51.6537 176.677 52.5889 175.743 52.5889 174.59V159.438C52.5889 158.286 51.6537 157.352 50.5002 157.352Z" fill="white"/>
<path d="M47.3051 159.218H27.6511C26.8728 159.218 26.2419 159.848 26.2419 160.625V166.291C26.2419 167.068 26.8728 167.699 27.6511 167.699H47.3051C48.0834 167.699 48.7143 167.068 48.7143 166.291V160.625C48.7143 159.848 48.0834 159.218 47.3051 159.218Z" fill="#ADADAD"/>
<path d="M47.3135 167.707H27.6511C27.4661 167.707 27.2828 167.671 27.1118 167.6C26.9409 167.529 26.7855 167.425 26.6546 167.295C26.5238 167.164 26.42 167.009 26.3492 166.838C26.2783 166.667 26.2419 166.484 26.2419 166.299V160.625C26.2419 160.252 26.3904 159.894 26.6546 159.63C26.9189 159.366 27.2774 159.218 27.6511 159.218L28.0705 159.913C28.8423 159.913 46.8941 167.011 46.8941 167.011C46.9906 167.267 47.1327 167.502 47.3135 167.707Z" fill="#D9D9D9"/>
<path d="M46.8948 159.916H28.0713V167.022H46.8948V159.916Z" fill="#3A495E"/>
<path d="M46.5408 166.621L28.7658 160.31H46.5408V166.621Z" fill="#42536B"/>
<path d="M51.4742 159.218H49.9811C49.6707 159.218 49.4191 159.469 49.4191 159.779V160.827C49.4191 161.137 49.6707 161.388 49.9811 161.388H51.4742C51.7846 161.388 52.0362 161.137 52.0362 160.827V159.779C52.0362 159.469 51.7846 159.218 51.4742 159.218Z" fill="#ADADAD"/>
<path d="M49.9308 159.421H51.2897C51.4254 159.421 51.5555 159.475 51.6515 159.571C51.7475 159.667 51.8014 159.797 51.8014 159.933V160.771C51.611 160.42 51.344 160.116 51.0202 159.883C50.6963 159.649 50.324 159.491 49.9308 159.421Z" fill="#9E9E9E"/>
<path d="M51.4742 162.411H49.9811C49.6707 162.411 49.4191 162.662 49.4191 162.972V164.02C49.4191 164.33 49.6707 164.581 49.9811 164.581H51.4742C51.7846 164.581 52.0362 164.33 52.0362 164.02V162.972C52.0362 162.662 51.7846 162.411 51.4742 162.411Z" fill="#ADADAD"/>
<path d="M49.9308 162.603H51.2897C51.3576 162.603 51.4248 162.617 51.4874 162.643C51.5501 162.669 51.6069 162.708 51.6545 162.756C51.7021 162.804 51.7396 162.862 51.7648 162.925C51.7901 162.988 51.8025 163.055 51.8014 163.123V163.961C51.6105 163.61 51.3435 163.305 51.0199 163.071C50.6962 162.836 50.3241 162.676 49.9308 162.603Z" fill="#9E9E9E"/>
<path d="M51.4742 165.539H49.9811C49.6707 165.539 49.4191 165.79 49.4191 166.101V167.148C49.4191 167.458 49.6707 167.71 49.9811 167.71H51.4742C51.7846 167.71 52.0362 167.458 52.0362 167.148V166.101C52.0362 165.79 51.7846 165.539 51.4742 165.539Z" fill="#ADADAD"/>
<path d="M49.9308 165.772H51.2897C51.4254 165.772 51.5555 165.826 51.6515 165.921C51.7475 166.017 51.8014 166.147 51.8014 166.283V167.121C51.611 166.77 51.344 166.467 51.0202 166.233C50.6963 166 50.324 165.842 49.9308 165.772Z" fill="#9E9E9E"/>
<path d="M25.069 159.218H23.5758C23.2655 159.218 23.0138 159.469 23.0138 159.779V160.827C23.0138 161.137 23.2655 161.388 23.5758 161.388H25.069C25.3794 161.388 25.631 161.137 25.631 160.827V159.779C25.631 159.469 25.3794 159.218 25.069 159.218Z" fill="#ADADAD"/>
<path d="M23.5236 159.421H24.8825C25.0081 159.429 25.1263 159.484 25.2145 159.573C25.3027 159.663 25.3547 159.782 25.3607 159.907V160.746C25.1709 160.403 24.9079 160.107 24.5903 159.878C24.2728 159.649 23.9085 159.493 23.5236 159.421Z" fill="#9E9E9E"/>
<path d="M25.069 162.411H23.5758C23.2655 162.411 23.0138 162.662 23.0138 162.972V164.02C23.0138 164.33 23.2655 164.581 23.5758 164.581H25.069C25.3794 164.581 25.631 164.33 25.631 164.02V162.972C25.631 162.662 25.3794 162.411 25.069 162.411Z" fill="#ADADAD"/>
<path d="M23.5236 162.603H24.8825C24.9504 162.603 25.0177 162.617 25.0803 162.643C25.1429 162.669 25.1997 162.708 25.2474 162.756C25.295 162.804 25.3325 162.862 25.3577 162.925C25.3829 162.988 25.3953 163.055 25.3942 163.123V163.961C25.2034 163.61 24.9364 163.305 24.6127 163.071C24.2891 162.836 23.917 162.676 23.5236 162.603Z" fill="#9E9E9E"/>
<path d="M25.069 165.539H23.5758C23.2655 165.539 23.0138 165.79 23.0138 166.101V167.148C23.0138 167.458 23.2655 167.71 23.5758 167.71H25.069C25.3794 167.71 25.631 167.458 25.631 167.148V166.101C25.631 165.79 25.3794 165.539 25.069 165.539Z" fill="#ADADAD"/>
<path d="M23.5236 165.772H24.8825C25.0182 165.772 25.1484 165.826 25.2444 165.921C25.3403 166.017 25.3942 166.147 25.3942 166.283V167.121C25.2039 166.77 24.9369 166.467 24.613 166.233C24.2892 166 23.9168 165.842 23.5236 165.772Z" fill="#9E9E9E"/>
<path d="M29.9186 172.166C29.9202 172.622 29.7862 173.069 29.5333 173.449C29.2805 173.829 28.9203 174.126 28.4984 174.302C28.0766 174.477 27.6121 174.523 27.1638 174.435C26.7156 174.346 26.3038 174.126 25.9806 173.804C25.6575 173.481 25.4377 173.069 25.3489 172.622C25.2602 172.174 25.3066 171.71 25.4822 171.288C25.6578 170.867 25.9548 170.507 26.3354 170.254C26.7161 170.002 27.1632 169.868 27.6202 169.869C28.2291 169.872 28.8124 170.114 29.243 170.544C29.6735 170.975 29.9164 171.557 29.9186 172.166Z" fill="#ADADAD"/>
<path d="M28.9336 173.792C28.7636 173.048 28.3989 172.363 27.8767 171.806C27.3517 171.306 26.6881 170.976 25.9725 170.859C26.1627 170.654 26.3921 170.49 26.6471 170.376C26.9022 170.262 27.1777 170.2 27.4571 170.195C27.7365 170.189 28.0141 170.24 28.2734 170.344C28.5327 170.449 28.7683 170.604 28.9662 170.801C29.1641 170.998 29.3202 171.233 29.4252 171.492C29.5302 171.751 29.5819 172.028 29.5773 172.307C29.5727 172.586 29.5118 172.861 29.3984 173.117C29.2849 173.372 29.1211 173.601 28.9169 173.792H28.9336Z" fill="#9E9E9E"/>
<path d="M25.8074 171.549C26.1242 172.048 26.4834 172.519 26.8812 172.957C27.3038 173.324 27.7752 173.632 28.282 173.87C27.9531 174.028 27.5824 174.078 27.2235 174.012C26.8646 173.945 26.5361 173.767 26.2856 173.501C26.0464 173.243 25.877 172.929 25.7933 172.587C25.7097 172.245 25.7145 171.888 25.8074 171.549Z" fill="#C7C7C7"/>
<path d="M36.6113 172.166C36.6129 172.622 36.4788 173.069 36.226 173.449C35.9732 173.829 35.613 174.126 35.1911 174.302C34.7693 174.477 34.3048 174.523 33.8565 174.435C33.4082 174.346 32.9964 174.126 32.6733 173.804C32.3502 173.481 32.1303 173.069 32.0416 172.622C31.9529 172.174 31.9992 171.71 32.1749 171.288C32.3505 170.867 32.6475 170.507 33.0281 170.254C33.4088 170.002 33.8559 169.868 34.3129 169.869C34.9218 169.872 35.5051 170.114 35.9356 170.544C36.3662 170.975 36.6091 171.557 36.6113 172.166Z" fill="#ADADAD"/>
<path d="M35.6204 173.793C35.4602 173.05 35.104 172.364 34.5886 171.806C34.0636 171.307 33.4 170.977 32.6844 170.859C33.0737 170.47 33.6018 170.252 34.1524 170.252C34.703 170.252 35.231 170.47 35.6204 170.859C36.0097 171.248 36.2284 171.776 36.2284 172.326C36.2284 172.876 36.0097 173.404 35.6204 173.793Z" fill="#9E9E9E"/>
<path d="M32.4936 171.549C32.8144 172.047 33.1763 172.518 33.5757 172.957C33.9959 173.323 34.4644 173.631 34.9682 173.87C34.6417 174.033 34.271 174.085 33.9123 174.019C33.5535 173.952 33.2263 173.771 32.9801 173.501C32.7415 173.243 32.5719 172.929 32.4868 172.587C32.4018 172.246 32.4041 171.889 32.4936 171.549Z" fill="#C7C7C7"/>
<path d="M43.3039 172.166C43.3056 172.622 43.1717 173.068 42.9193 173.448C42.6668 173.828 42.3071 174.125 41.8857 174.301C41.4644 174.477 41.0003 174.523 40.5523 174.435C40.1042 174.347 39.6924 174.129 39.369 173.807C39.0455 173.485 38.825 173.074 38.7353 172.627C38.6456 172.179 38.6908 171.716 38.8651 171.294C39.0395 170.872 39.3351 170.512 39.7147 170.258C40.0942 170.005 40.5405 169.869 40.9971 169.869C41.6075 169.869 42.193 170.111 42.6253 170.541C43.0577 170.972 43.3017 171.556 43.3039 172.166Z" fill="#ADADAD"/>
<path d="M42.3162 173.792C42.1609 173.052 41.8105 172.366 41.3012 171.806C40.7736 171.305 40.1071 170.975 39.3887 170.859C39.7826 170.492 40.3038 170.291 40.8425 170.3C41.3813 170.309 41.8956 170.527 42.2772 170.907C42.6587 171.287 42.8778 171.8 42.8882 172.338C42.8986 172.877 42.6996 173.398 42.333 173.792H42.3162Z" fill="#9E9E9E"/>
<path d="M39.1843 171.549C39.5041 172.046 39.8631 172.517 40.258 172.957C40.6821 173.322 41.1532 173.63 41.6589 173.87C41.3325 174.033 40.9618 174.085 40.603 174.019C40.2443 173.952 39.917 173.771 39.6708 173.501C39.4322 173.243 39.2626 172.929 39.1776 172.587C39.0926 172.246 39.0949 171.889 39.1843 171.549Z" fill="#C7C7C7"/>
<path d="M49.9986 172.166C50.0002 172.622 49.8664 173.068 49.6139 173.448C49.3614 173.828 49.0017 174.125 48.5804 174.301C48.159 174.477 47.6949 174.523 47.2469 174.435C46.7989 174.347 46.3871 174.129 46.0636 173.807C45.7401 173.485 45.5196 173.074 45.4299 172.627C45.3402 172.179 45.3854 171.716 45.5598 171.294C45.7341 170.872 46.0298 170.512 46.4093 170.258C46.7888 170.005 47.2352 169.869 47.6918 169.869C48.3021 169.869 48.8876 170.111 49.32 170.541C49.7523 170.972 49.9964 171.556 49.9986 172.166Z" fill="#CF4040"/>
<path d="M49.0088 173.792C48.8556 173.054 48.5115 172.369 48.0105 171.806C47.4864 171.305 46.8224 170.975 46.1064 170.859C46.2965 170.654 46.5259 170.49 46.781 170.376C47.0361 170.262 47.3115 170.2 47.5909 170.195C47.8703 170.189 48.1479 170.24 48.4072 170.344C48.6665 170.449 48.9021 170.604 49.1 170.801C49.2979 170.998 49.454 171.233 49.559 171.492C49.664 171.751 49.7157 172.028 49.7111 172.307C49.7065 172.586 49.6457 172.861 49.5322 173.117C49.4187 173.372 49.255 173.601 49.0507 173.792H49.0088Z" fill="#B03636"/>
<path d="M45.881 171.549C46.2007 172.046 46.5598 172.517 46.9547 172.957C47.3787 173.322 47.8499 173.63 48.3555 173.87C48.0264 174.027 47.656 174.076 47.2974 174.01C46.9388 173.943 46.6103 173.766 46.3591 173.501C46.1233 173.241 45.956 172.927 45.8726 172.586C45.7891 172.245 45.792 171.888 45.881 171.549Z" fill="#FF5454"/>
<path d="M61.3049 155.859H54.5439V190.504H61.3049V155.859Z" fill="#EBEBEB"/>
<path d="M20.312 155.859H13.551V190.504H20.312V155.859Z" fill="#CFCFCF"/>
<path d="M63.026 155.859H11.9408V156.236H63.026V155.859Z" fill="white"/>
<path d="M63.026 154.291H11.9408V154.668H63.026V154.291Z" fill="#8F8F8F"/>
<path d="M63.026 191.7H11.9408V192.077H63.026V191.7Z" fill="white"/>
<path d="M63.026 190.124H11.9408V190.501H63.026V190.124Z" fill="#8F8F8F"/>
<path d="M54.6138 149.364C49.8845 146.092 44.2692 144.338 38.5165 144.335H36.453C30.7003 144.338 25.085 146.092 20.3557 149.364L20.2802 149.414H54.7229L54.6138 149.364ZM29.6836 148.836C31.8302 147.359 34.3749 146.567 36.9814 146.565H37.9461C40.5527 146.567 43.0973 147.359 45.244 148.836H29.6836Z" fill="#B0B0B0"/>
<path d="M29.6808 148.836L25.3608 148.643C25.3608 148.643 28.7581 145.232 37.6162 145.232C46.4743 145.232 48.6805 148.836 48.6805 148.836H45.2832C43.0436 147.287 40.3726 146.484 37.6498 146.539C32.5161 146.539 29.6808 148.836 29.6808 148.836Z" fill="#999999"/>
<path d="M126.398 72.198H67.5957V191.251H126.398V72.198Z" fill="#E0E0E0"/>
<path d="M126.398 71.24H67.5957V72.2037H126.398V71.24Z" fill="#9C9C9C"/>
<path d="M126.398 67.5703H67.5954V71.241H126.398V67.5703Z" fill="#BABABA"/>
<path d="M126.398 67.5703H67.5954L125.962 68.0061L126.398 71.241V67.5703Z" fill="#D9D9D9"/>
<path d="M126.398 191.258H67.5957V194.929H126.398V191.258Z" fill="#BABABA"/>
<path d="M78.1163 196.679H72.4793C72.0188 196.679 71.5771 196.496 71.2515 196.171C70.9259 195.845 70.7429 195.404 70.7429 194.944H79.8863C79.8863 195.175 79.8403 195.403 79.7509 195.616C79.6616 195.828 79.5307 196.021 79.3659 196.183C79.2011 196.344 79.0057 196.471 78.7911 196.556C78.5766 196.641 78.3471 196.683 78.1163 196.679Z" fill="#858585"/>
<path d="M121.519 196.679H115.89C115.43 196.679 114.988 196.496 114.663 196.17C114.337 195.845 114.154 195.404 114.154 194.944H123.255C123.255 195.404 123.072 195.845 122.747 196.17C122.421 196.496 121.979 196.679 121.519 196.679Z" fill="#858585"/>
<path d="M67.5957 192.08V191.258H126.398V191.468L67.5957 192.08Z" fill="#8C8C8C"/>
<path d="M126.398 107.145H67.5957V107.513H126.398V107.145Z" fill="#666666"/>
<path d="M126.398 72.198H67.5957V72.6086H126.398V72.198Z" fill="white"/>
<path d="M126.398 70.8225H67.5957V71.2332H126.398V70.8225Z" fill="#878787"/>
<path d="M67.5957 107.51V107.946H73.5346C73.5346 109.421 74.7258 109.79 76.2022 109.79H81.1513C82.6277 109.79 83.8188 109.421 83.8188 107.946H126.398V107.535L67.5957 107.51Z" fill="white"/>
<path d="M83.8188 106.723C83.8188 105.249 82.6277 104.888 81.1513 104.888H76.2022C74.7258 104.888 73.5346 105.249 73.5346 106.723H67.5957V107.142H126.398V106.723H83.8188Z" fill="#878787"/>
<path d="M121.165 100.883H109.354V103.263H121.165V100.883Z" fill="#878787"/>
<path d="M121.323 100.723H109.512V103.103H121.323V100.723Z" fill="#3A495E"/>
</svg>
