<svg width="183" height="172" viewBox="0 0 183 172" fill="none" xmlns="http://www.w3.org/2000/svg">
<path d="M182.027 129.077H119.114V165.004H182.027V129.077Z" fill="#E0E0E0"/>
<path d="M155.27 134.598V159.32C155.27 159.32 154.918 159.672 155.27 159.672C159.976 156.278 159.833 137.682 155.27 134.598Z" fill="#BABABA"/>
<path d="M155.271 159.321H122.254V135.102H155.271C155.271 135.102 158.249 138.764 158.249 147.329C158.249 155.894 155.271 159.321 155.271 159.321Z" fill="#303030"/>
<path d="M122.252 135.102H121.9V159.321H122.252V135.102Z" fill="white"/>
<path d="M161.383 129.077H160.754V165.004H161.383V129.077Z" fill="white"/>
<path d="M182.038 129.077H181.409V165.004H182.038V129.077Z" fill="white"/>
<path d="M162.595 129.077H161.966V165.004H162.595V129.077Z" fill="#BABABA"/>
<path d="M153.122 156.957H124.434V137.682H153.122L153.256 138.277C154.59 144.212 154.59 150.368 153.256 156.303L153.122 156.957Z" fill="#3E4754"/>
<path d="M152.645 156.674L124.838 138.036H152.645L153.165 141.933C153.643 145.512 153.643 149.139 153.165 152.718L152.645 156.674Z" fill="#444E5C"/>
<path d="M179.279 132.16H165.346V162.255H179.279V132.16Z" fill="#C2C2C2"/>
<path d="M169.648 132.832H166.1V136.377H169.648V132.832Z" fill="#A3A3A3"/>
<path d="M169.355 136.066C169.217 135.349 168.849 134.695 168.306 134.206C167.746 133.725 167.1 133.356 166.402 133.116H169.355V136.066Z" fill="#919191"/>
<path d="M174.128 132.832H170.58V136.377H174.128V132.832Z" fill="#A3A3A3"/>
<path d="M173.834 136.066C173.692 135.35 173.325 134.698 172.785 134.206C172.222 133.726 171.573 133.356 170.873 133.116H173.834V136.066Z" fill="#919191"/>
<path d="M178.547 132.832H174.999V136.377H178.547V132.832Z" fill="#A3A3A3"/>
<path d="M178.252 136.066C178.111 135.35 177.743 134.698 177.203 134.206C176.644 133.725 175.997 133.356 175.299 133.116H178.252V136.066Z" fill="#919191"/>
<path d="M169.648 137.333H166.1V140.878H169.648V137.333Z" fill="#A3A3A3"/>
<path d="M169.355 140.574C169.217 139.857 168.849 139.203 168.306 138.714C167.748 138.229 167.101 137.856 166.402 137.616H169.355V140.574Z" fill="#919191"/>
<path d="M174.128 137.333H170.58V140.878H174.128V137.333Z" fill="#A3A3A3"/>
<path d="M173.834 140.574C173.697 139.857 173.328 139.203 172.785 138.714C172.223 138.231 171.574 137.858 170.873 137.616H173.834V140.574Z" fill="#919191"/>
<path d="M178.547 137.333H174.999V140.878H178.547V137.333Z" fill="#A3A3A3"/>
<path d="M178.252 140.574C178.115 139.857 177.746 139.203 177.203 138.714C176.645 138.229 175.999 137.856 175.299 137.616H178.252V140.574Z" fill="#919191"/>
<path d="M169.648 141.831H166.1V145.376H169.648V141.831Z" fill="#A3A3A3"/>
<path d="M169.355 145.074C169.217 144.356 168.849 143.703 168.306 143.214C167.748 142.729 167.101 142.356 166.402 142.116H169.355V145.074Z" fill="#919191"/>
<path d="M174.128 141.831H170.58V145.376H174.128V141.831Z" fill="#A3A3A3"/>
<path d="M173.834 145.074C173.697 144.356 173.328 143.703 172.785 143.214C172.223 142.73 171.574 142.358 170.873 142.116H173.834V145.074Z" fill="#919191"/>
<path d="M178.547 141.831H174.999V145.376H178.547V141.831Z" fill="#A3A3A3"/>
<path d="M178.252 145.074C178.115 144.356 177.746 143.703 177.203 143.214C176.645 142.729 175.999 142.356 175.299 142.116H178.252V145.074Z" fill="#919191"/>
<path d="M169.648 146.331H166.1V149.875H169.648V146.331Z" fill="#A3A3A3"/>
<path d="M169.355 149.576C169.217 148.858 168.849 148.205 168.306 147.715C167.745 147.234 167.099 146.862 166.402 146.617H169.355V149.576Z" fill="#919191"/>
<path d="M174.128 146.331H170.58V149.875H174.128V146.331Z" fill="#A3A3A3"/>
<path d="M173.834 149.576C173.697 148.858 173.328 148.205 172.785 147.715C172.221 147.235 171.572 146.863 170.873 146.617H173.834V149.576Z" fill="#919191"/>
<path d="M178.547 146.331H174.999V149.875H178.547V146.331Z" fill="#A3A3A3"/>
<path d="M178.252 149.576C178.115 148.858 177.746 148.205 177.203 147.715C176.643 147.234 175.997 146.862 175.299 146.617H178.252V149.576Z" fill="#919191"/>
<path d="M169.648 150.832H166.1V154.377H169.648V150.832Z" fill="#A3A3A3"/>
<path d="M169.355 154.077C169.217 153.359 168.849 152.706 168.306 152.217C167.745 151.736 167.099 151.363 166.402 151.119H169.355V154.077Z" fill="#919191"/>
<path d="M178.549 150.832H170.58V154.377H178.549V150.832Z" fill="#CF4040"/>
<path d="M178.254 154.075C178.254 154.075 177.6 153.648 175.696 152.609C174.162 151.894 172.54 151.384 170.873 151.092H178.254V154.075Z" fill="#B53838"/>
<path d="M178.548 155.284H166.914C166.691 155.284 166.478 155.372 166.321 155.529C166.163 155.686 166.075 155.899 166.075 156.122V160.505C166.075 160.727 166.163 160.94 166.321 161.097C166.478 161.254 166.691 161.343 166.914 161.343H178.548V155.284Z" fill="#919191"/>
<path d="M161.972 129.077H161.385V165.004H161.972V129.077Z" fill="#878787"/>
<path d="M155.277 159.323H121.9V159.675H155.277V159.323Z" fill="white"/>
<path d="M155.277 134.598H121.9V135.101H155.277V134.598Z" fill="#BABABA"/>
<path d="M181.407 165.004H119.114V166.672H181.407V165.004Z" fill="#BABABA"/>
<path d="M181.407 165.004H119.114V165.482H181.407V165.004Z" fill="#808080"/>
<path d="M127.395 167.729H123.989C123.713 167.729 123.447 167.619 123.251 167.425C123.054 167.23 122.943 166.966 122.941 166.689H128.427C128.425 166.963 128.315 167.225 128.123 167.419C127.93 167.613 127.669 167.724 127.395 167.729Z" fill="#858585"/>
<path d="M176.702 167.729H173.304C173.028 167.729 172.762 167.619 172.566 167.425C172.37 167.23 172.258 166.966 172.256 166.689H177.75C177.748 166.966 177.637 167.23 177.44 167.425C177.244 167.619 176.978 167.729 176.702 167.729Z" fill="#858585"/>
<path d="M51.1712 131.123H0.0859375V165.768H51.1712V131.123Z" fill="#E0E0E0"/>
<path d="M51.1712 165.77H0.0859375V166.968H51.1712V165.77Z" fill="#BABABA"/>
<path d="M51.1712 129.934H0.0859375V131.133H51.1712V129.934Z" fill="#BABABA"/>
<path d="M48.101 171.607H3.1477C2.33635 171.605 1.55886 171.282 0.985151 170.709C0.411439 170.136 0.0881513 169.359 0.0859375 168.549L0.0859375 166.965H51.1712V168.549C51.169 169.361 50.8445 170.139 50.269 170.712C49.6935 171.285 48.9138 171.607 48.101 171.607Z" fill="#9E9E9E"/>
<path d="M45.962 124.679H5.29512C3.91501 124.679 2.59131 125.226 1.61463 126.2C0.637964 127.174 0.0881599 128.496 0.0859375 129.875L0.0859375 129.933H51.1712V129.875C51.1689 128.496 50.6191 127.174 49.6425 126.2C48.6658 125.226 47.3421 124.679 45.962 124.679Z" fill="#E0E0E0"/>
<path d="M43.871 124.679H38.905C38.905 124.679 42.9818 126.665 42.5288 129.875L49.0717 129.933V129.875C49.0717 128.497 48.5238 127.175 47.5485 126.201C46.5731 125.226 45.2503 124.679 43.871 124.679Z" fill="#EBEBEB"/>
<path d="M6.89706 124.961H11.5862C11.5862 124.961 7.7359 126.839 8.16371 129.881L1.97308 129.931V129.881C1.97308 128.576 2.49186 127.325 3.41528 126.402C4.33871 125.48 5.59114 124.961 6.89706 124.961Z" fill="#CFCFCF"/>
<path d="M5.11873 171.34H9.7575C9.7575 171.34 8.20565 170.334 8.20565 167.334H1.97308V167.376C1.97308 169.529 2.35895 171.34 5.11873 171.34Z" fill="#858585"/>
<path d="M45.9016 171.34H41.2712C41.2712 171.34 42.865 170.367 42.865 167.334H49.0557V167.376C49.0137 169.529 48.6195 171.34 45.9016 171.34Z" fill="#B0B0B0"/>
<path d="M39.0996 132.28H12.1478C10.9525 132.28 9.98358 133.248 9.98358 134.442V150.122C9.98358 151.316 10.9525 152.284 12.1478 152.284H39.0996C40.2949 152.284 41.2638 151.316 41.2638 150.122V134.442C41.2638 133.248 40.2949 132.28 39.0996 132.28Z" fill="#C7C7C7"/>
<path d="M38.6453 132.616H12.5994C11.4458 132.616 10.5107 133.55 10.5107 134.703V149.855C10.5107 151.007 11.4458 151.942 12.5994 151.942H38.6453C39.7989 151.942 40.734 151.007 40.734 149.855V134.703C40.734 133.55 39.7989 132.616 38.6453 132.616Z" fill="white"/>
<path d="M35.4502 134.482H15.7963C15.018 134.482 14.387 135.113 14.387 135.89V141.555C14.387 142.333 15.018 142.963 15.7963 142.963H35.4502C36.2285 142.963 36.8595 142.333 36.8595 141.555V135.89C36.8595 135.113 36.2285 134.482 35.4502 134.482Z" fill="#ADADAD"/>
<path d="M35.4586 142.972H15.7963C15.6112 142.972 15.428 142.935 15.257 142.864C15.086 142.794 14.9306 142.69 14.7998 142.559C14.6689 142.429 14.5651 142.273 14.4943 142.102C14.4235 141.932 14.387 141.749 14.387 141.564V135.89C14.387 135.517 14.5355 135.159 14.7998 134.895C15.0641 134.631 15.4225 134.482 15.7963 134.482L16.2157 135.178C16.9874 135.178 35.0392 142.276 35.0392 142.276C35.1357 142.531 35.2778 142.767 35.4586 142.972Z" fill="#D9D9D9"/>
<path d="M35.04 135.18H16.2164V142.287H35.04V135.18Z" fill="#3A495E"/>
<path d="M34.6859 141.885L16.9109 135.575H34.6859V141.885Z" fill="#42536B"/>
<path d="M39.6194 134.482H38.1262C37.8158 134.482 37.5642 134.734 37.5642 135.044V136.091C37.5642 136.401 37.8158 136.653 38.1262 136.653H39.6194C39.9298 136.653 40.1814 136.401 40.1814 136.091V135.044C40.1814 134.734 39.9298 134.482 39.6194 134.482Z" fill="#ADADAD"/>
<path d="M38.0759 134.686H39.4348C39.5706 134.686 39.7007 134.74 39.7967 134.836C39.8926 134.932 39.9465 135.062 39.9465 135.197V136.035C39.7562 135.684 39.4892 135.381 39.1653 135.147C38.8415 134.914 38.4691 134.756 38.0759 134.686Z" fill="#9E9E9E"/>
<path d="M39.6194 137.676H38.1262C37.8158 137.676 37.5642 137.927 37.5642 138.237V139.285C37.5642 139.595 37.8158 139.846 38.1262 139.846H39.6194C39.9298 139.846 40.1814 139.595 40.1814 139.285V138.237C40.1814 137.927 39.9298 137.676 39.6194 137.676Z" fill="#ADADAD"/>
<path d="M38.0759 137.868H39.4348C39.5028 137.868 39.57 137.881 39.6326 137.908C39.6953 137.934 39.752 137.972 39.7997 138.021C39.8473 138.069 39.8848 138.126 39.91 138.189C39.9352 138.252 39.9477 138.32 39.9465 138.387V139.226C39.7557 138.874 39.4887 138.57 39.165 138.335C38.8414 138.1 38.4693 137.941 38.0759 137.868Z" fill="#9E9E9E"/>
<path d="M39.6194 140.803H38.1262C37.8158 140.803 37.5642 141.055 37.5642 141.365V142.413C37.5642 142.723 37.8158 142.974 38.1262 142.974H39.6194C39.9298 142.974 40.1814 142.723 40.1814 142.413V141.365C40.1814 141.055 39.9298 140.803 39.6194 140.803Z" fill="#ADADAD"/>
<path d="M38.0759 141.036H39.4348C39.5706 141.036 39.7007 141.09 39.7967 141.186C39.8926 141.282 39.9465 141.412 39.9465 141.548V142.386C39.7562 142.035 39.4892 141.731 39.1653 141.498C38.8415 141.264 38.4691 141.106 38.0759 141.036Z" fill="#9E9E9E"/>
<path d="M13.2141 134.482H11.721C11.4106 134.482 11.159 134.734 11.159 135.044V136.091C11.159 136.401 11.4106 136.653 11.721 136.653H13.2141C13.5245 136.653 13.7762 136.401 13.7762 136.091V135.044C13.7762 134.734 13.5245 134.482 13.2141 134.482Z" fill="#ADADAD"/>
<path d="M11.6688 134.686H13.0277C13.1533 134.694 13.2714 134.748 13.3596 134.838C13.4479 134.928 13.4999 135.047 13.5058 135.172V136.01C13.3161 135.668 13.053 135.372 12.7355 135.143C12.4179 134.914 12.0537 134.758 11.6688 134.686Z" fill="#9E9E9E"/>
<path d="M13.2141 137.676H11.721C11.4106 137.676 11.159 137.927 11.159 138.237V139.285C11.159 139.595 11.4106 139.846 11.721 139.846H13.2141C13.5245 139.846 13.7762 139.595 13.7762 139.285V138.237C13.7762 137.927 13.5245 137.676 13.2141 137.676Z" fill="#ADADAD"/>
<path d="M11.6688 137.868H13.0277C13.0956 137.868 13.1628 137.881 13.2255 137.908C13.2881 137.934 13.3449 137.972 13.3925 138.021C13.4401 138.069 13.4776 138.126 13.5029 138.189C13.5281 138.252 13.5405 138.32 13.5394 138.387V139.226C13.3485 138.874 13.0815 138.57 12.7579 138.335C12.4342 138.1 12.0621 137.941 11.6688 137.868Z" fill="#9E9E9E"/>
<path d="M13.2141 140.803H11.721C11.4106 140.803 11.159 141.055 11.159 141.365V142.413C11.159 142.723 11.4106 142.974 11.721 142.974H13.2141C13.5245 142.974 13.7762 142.723 13.7762 142.413V141.365C13.7762 141.055 13.5245 140.803 13.2141 140.803Z" fill="#ADADAD"/>
<path d="M11.6688 141.036H13.0277C13.1634 141.036 13.2935 141.09 13.3895 141.186C13.4855 141.282 13.5394 141.412 13.5394 141.548V142.386C13.349 142.035 13.082 141.731 12.7582 141.498C12.4343 141.264 12.062 141.106 11.6688 141.036Z" fill="#9E9E9E"/>
<path d="M18.0637 147.43C18.0654 147.887 17.9313 148.333 17.6785 148.714C17.4256 149.094 17.0654 149.391 16.6436 149.566C16.2217 149.741 15.7572 149.788 15.309 149.699C14.8607 149.611 14.4489 149.391 14.1258 149.068C13.8027 148.745 13.5828 148.334 13.4941 147.886C13.4053 147.438 13.4517 146.974 13.6273 146.553C13.803 146.131 14.0999 145.771 14.4806 145.519C14.8612 145.266 15.3084 145.132 15.7653 145.134C16.3742 145.136 16.9575 145.379 17.3881 145.809C17.8187 146.239 18.0615 146.822 18.0637 147.43Z" fill="#ADADAD"/>
<path d="M17.0788 149.057C16.9088 148.313 16.544 147.627 16.0218 147.07C15.4968 146.571 14.8332 146.241 14.1177 146.123C14.3078 145.919 14.5372 145.755 14.7923 145.64C15.0473 145.526 15.3228 145.465 15.6022 145.459C15.8816 145.454 16.1592 145.505 16.4185 145.609C16.6778 145.713 16.9134 145.868 17.1113 146.066C17.3092 146.263 17.4653 146.498 17.5703 146.756C17.6753 147.015 17.727 147.292 17.7224 147.572C17.7178 147.851 17.657 148.126 17.5435 148.381C17.43 148.636 17.2663 148.866 17.062 149.057H17.0788Z" fill="#9E9E9E"/>
<path d="M13.9526 146.813C14.2693 147.312 14.6286 147.784 15.0263 148.221C15.4489 148.589 15.9203 148.896 16.4271 149.135C16.0983 149.293 15.7275 149.342 15.3686 149.276C15.0097 149.21 14.6812 149.031 14.4307 148.766C14.1915 148.508 14.0221 148.193 13.9384 147.851C13.8548 147.51 13.8596 147.152 13.9526 146.813Z" fill="#C7C7C7"/>
<path d="M24.7564 147.43C24.7581 147.887 24.624 148.333 24.3711 148.714C24.1183 149.094 23.7581 149.391 23.3363 149.566C22.9144 149.741 22.4499 149.788 22.0016 149.699C21.5534 149.611 21.1416 149.391 20.8185 149.068C20.4954 148.745 20.2755 148.334 20.1867 147.886C20.098 147.438 20.1444 146.974 20.32 146.553C20.4957 146.131 20.7926 145.771 21.1733 145.519C21.5539 145.266 22.001 145.132 22.458 145.134C23.0669 145.136 23.6502 145.379 24.0808 145.809C24.5113 146.239 24.7542 146.822 24.7564 147.43Z" fill="#ADADAD"/>
<path d="M23.7655 149.057C23.6054 148.315 23.2491 147.629 22.7338 147.071C22.2087 146.571 21.5452 146.241 20.8296 146.124C21.2189 145.735 21.747 145.517 22.2976 145.517C22.8482 145.517 23.3762 145.735 23.7655 146.124C24.1549 146.513 24.3736 147.041 24.3736 147.591C24.3736 148.141 24.1549 148.668 23.7655 149.057Z" fill="#9E9E9E"/>
<path d="M20.6387 146.813C20.9595 147.312 21.3215 147.783 21.7208 148.221C22.141 148.588 22.6096 148.895 23.1133 149.135C22.7869 149.298 22.4162 149.35 22.0574 149.283C21.6987 149.217 21.3714 149.035 21.1253 148.766C20.8866 148.507 20.717 148.193 20.632 147.852C20.547 147.51 20.5493 147.153 20.6387 146.813Z" fill="#C7C7C7"/>
<path d="M31.4491 147.43C31.4508 147.886 31.3169 148.333 31.0644 148.713C30.812 149.093 30.4523 149.389 30.0309 149.565C29.6095 149.741 29.1455 149.788 28.6974 149.7C28.2494 149.612 27.8376 149.393 27.5141 149.071C27.1907 148.749 26.9701 148.338 26.8805 147.891C26.7908 147.444 26.836 146.98 27.0103 146.558C27.1846 146.137 27.4803 145.776 27.8598 145.523C28.2394 145.269 28.6857 145.134 29.1423 145.134C29.7527 145.134 30.3381 145.375 30.7705 145.806C31.2029 146.236 31.4469 146.82 31.4491 147.43Z" fill="#ADADAD"/>
<path d="M30.4614 149.057C30.3061 148.316 29.9557 147.631 29.4464 147.071C28.9188 146.57 28.2522 146.24 27.5338 146.124C27.9277 145.756 28.4489 145.556 28.9877 145.565C29.5264 145.574 30.0408 145.791 30.4223 146.171C30.8039 146.551 31.0229 147.065 31.0333 147.603C31.0438 148.141 30.8447 148.662 30.4781 149.057H30.4614Z" fill="#9E9E9E"/>
<path d="M27.3295 146.813C27.6492 147.31 28.0083 147.781 28.4032 148.221C28.8272 148.587 29.2984 148.894 29.804 149.135C29.4776 149.298 29.1069 149.35 28.7482 149.283C28.3894 149.217 28.0621 149.035 27.816 148.766C27.5774 148.507 27.4077 148.193 27.3227 147.852C27.2377 147.51 27.24 147.153 27.3295 146.813Z" fill="#C7C7C7"/>
<path d="M38.1437 147.43C38.1454 147.886 38.0115 148.333 37.7591 148.713C37.5066 149.093 37.1469 149.389 36.7255 149.565C36.3042 149.741 35.8401 149.788 35.3921 149.7C34.944 149.612 34.5322 149.393 34.2088 149.071C33.8853 148.749 33.6648 148.338 33.5751 147.891C33.4854 147.444 33.5306 146.98 33.7049 146.558C33.8793 146.137 34.175 145.776 34.5545 145.523C34.934 145.269 35.3803 145.134 35.8369 145.134C36.4473 145.134 37.0328 145.375 37.4651 145.806C37.8975 146.236 38.1415 146.82 38.1437 147.43Z" fill="#CF4040"/>
<path d="M37.1539 149.057C37.0008 148.319 36.6566 147.634 36.1557 147.07C35.6316 146.569 34.9676 146.239 34.2515 146.123C34.4416 145.919 34.6711 145.755 34.9261 145.64C35.1812 145.526 35.4566 145.465 35.7361 145.459C36.0155 145.454 36.2931 145.505 36.5524 145.609C36.8117 145.713 37.0473 145.868 37.2452 146.066C37.443 146.263 37.5991 146.498 37.7041 146.756C37.8091 147.015 37.8609 147.292 37.8563 147.572C37.8517 147.851 37.7908 148.126 37.6774 148.381C37.5639 148.636 37.4001 148.866 37.1958 149.057H37.1539Z" fill="#B03636"/>
<path d="M34.0261 146.813C34.3459 147.31 34.7049 147.781 35.0998 148.221C35.5239 148.587 35.995 148.894 36.5007 149.135C36.1715 149.292 35.8011 149.34 35.4425 149.274C35.0839 149.208 34.7555 149.03 34.5042 148.766C34.2684 148.506 34.1012 148.191 34.0177 147.85C33.9342 147.509 33.9371 147.153 34.0261 146.813Z" fill="#FF5454"/>
<path d="M49.4501 131.123H42.689V165.768H49.4501V131.123Z" fill="#EBEBEB"/>
<path d="M8.45714 131.123H1.69611V165.768H8.45714V131.123Z" fill="#CFCFCF"/>
<path d="M51.1712 131.123H0.0859375V131.5H51.1712V131.123Z" fill="white"/>
<path d="M51.1712 129.555H0.0859375V129.933H51.1712V129.555Z" fill="#8F8F8F"/>
<path d="M51.1712 166.965H0.0859375V167.342H51.1712V166.965Z" fill="white"/>
<path d="M51.1712 165.389H0.0859375V165.766H51.1712V165.389Z" fill="#8F8F8F"/>
<path d="M42.7589 124.628C38.0296 121.356 32.4143 119.602 26.6616 119.6H24.5981C18.8454 119.602 13.2301 121.356 8.50079 124.628L8.42529 124.679H42.868L42.7589 124.628ZM17.8287 124.1C19.9754 122.623 22.52 121.831 25.1266 121.829H26.0912C28.6978 121.831 31.2424 122.623 33.3891 124.1H17.8287Z" fill="#B0B0B0"/>
<path d="M17.8259 124.1L13.5059 123.907C13.5059 123.907 16.9032 120.497 25.7613 120.497C34.6195 120.497 36.8256 124.1 36.8256 124.1H33.4283C31.1888 122.552 28.5177 121.749 25.7949 121.804C20.6612 121.804 17.8259 124.1 17.8259 124.1Z" fill="#999999"/>
<path d="M114.545 47.4626H55.7429V166.516H114.545V47.4626Z" fill="#E0E0E0"/>
<path d="M114.545 46.5046H55.7429V47.4684H114.545V46.5046Z" fill="#9C9C9C"/>
<path d="M114.545 42.8359H55.7425V46.5066H114.545V42.8359Z" fill="#BABABA"/>
<path d="M114.545 42.8359H55.7425L114.109 43.2717L114.545 46.5066V42.8359Z" fill="#D9D9D9"/>
<path d="M114.545 166.523H55.7429V170.193H114.545V166.523Z" fill="#BABABA"/>
<path d="M66.2635 171.945H60.6265C60.166 171.945 59.7243 171.762 59.3987 171.437C59.073 171.112 58.8901 170.671 58.8901 170.21H68.0334C68.0335 170.441 67.9875 170.669 67.8981 170.882C67.8088 171.095 67.6778 171.288 67.513 171.449C67.3482 171.611 67.1528 171.738 66.9383 171.823C66.7237 171.908 66.4943 171.95 66.2635 171.945Z" fill="#858585"/>
<path d="M109.664 171.945H104.036C103.575 171.945 103.133 171.762 102.808 171.437C102.482 171.112 102.299 170.671 102.299 170.21H111.401C111.401 170.671 111.218 171.112 110.892 171.437C110.566 171.762 110.125 171.945 109.664 171.945Z" fill="#858585"/>
<path d="M55.7429 167.344V166.523H114.545V166.732L55.7429 167.344Z" fill="#8C8C8C"/>
<path d="M114.545 82.4072H55.7429V82.776H114.545V82.4072Z" fill="#666666"/>
<path d="M114.545 47.4626H55.7429V47.8733H114.545V47.4626Z" fill="white"/>
<path d="M114.545 46.0852H55.7429V46.4959H114.545V46.0852Z" fill="#878787"/>
<path d="M55.7429 82.7766V83.2124H61.6818C61.6818 84.6874 62.873 85.0561 64.3493 85.0561H69.2985C70.7748 85.0561 71.966 84.6874 71.966 83.2124H114.545V82.8018L55.7429 82.7766Z" fill="white"/>
<path d="M71.966 81.9898C71.966 80.5149 70.7748 80.1545 69.2985 80.1545H64.3493C62.873 80.1545 61.6818 80.5149 61.6818 81.9898H55.7429V82.4089H114.545V81.9898H71.966Z" fill="#878787"/>
<path d="M109.312 76.1475H97.5015V78.5275H109.312V76.1475Z" fill="#878787"/>
<path d="M109.472 75.9897H97.6611V78.3698H109.472V75.9897Z" fill="#3A495E"/>
<path d="M134.546 1.47082V1.46652C134.547 1.39392 134.533 1.32194 134.505 1.25475C134.478 1.18756 134.437 1.12648 134.386 1.07509M134.546 1.47082L134.386 1.07509M134.546 1.47082L134.557 19.64C134.56 24.8889 130.306 29.1457 125.057 29.1457H45.2413C39.9946 29.1457 35.7413 24.8924 35.7413 19.6457V1.11016C35.7413 1.05845 35.7619 1.00875 35.7986 0.972035C35.8354 0.935305 35.8854 0.914585 35.9376 0.914585L133.989 0.914601L133.993 0.914568C134.066 0.913984 134.138 0.927886 134.206 0.955457C134.273 0.983024 134.334 1.0237 134.386 1.07509M134.546 1.47082L134.739 0.721374L134.386 1.07509" fill="white" stroke="#C4C4C4"/>
<path d="M35.2403 29.644V32.1079C35.2025 33.3405 35.4753 34.5628 36.0338 35.6625C36.5922 36.7623 37.4184 37.7042 38.4363 38.4016C39.9346 39.1375 41.5909 39.4943 43.2596 39.4408H127.051C128.715 39.495 130.366 39.1381 131.858 38.4016C132.875 37.7038 133.7 36.7616 134.257 35.6618C134.814 34.562 135.085 33.3398 135.045 32.1079V29.644H35.2403Z" fill="#F1F2F3"/>
<path d="M132.797 25.5967C132.797 25.0721 132.588 24.5691 132.217 24.1982C131.846 23.8273 131.342 23.6189 130.817 23.6189H39.5097C38.9846 23.6189 38.4811 23.8273 38.1099 24.1982C37.7386 24.5691 37.53 25.0721 37.53 25.5967L37.7481 29.6445H132.621L132.797 25.5967Z" fill="#D6D7D8"/>
<path d="M39.1311 37.1362C39.6491 37.4033 40.226 37.5359 40.8088 37.5217H40.9849H129.264H129.432C130.013 37.5313 130.589 37.402 131.11 37.1446C131.47 36.8957 131.763 36.5606 131.961 36.1697C132.159 35.7789 132.255 35.3447 132.242 34.907L132.527 29.644H37.7051L37.9903 34.907C37.9771 35.3445 38.0747 35.7782 38.2742 36.1679C38.4736 36.5577 38.7684 36.8907 39.1311 37.1362Z" fill="#C2C1C1"/>
<path d="M131.924 31.0785C131.924 31.1829 131.883 31.2831 131.809 31.357C131.735 31.4308 131.635 31.4723 131.53 31.4723H38.6707C38.5661 31.4723 38.4658 31.4308 38.3919 31.357C38.318 31.2831 38.2764 31.1829 38.2764 31.0785C38.2764 30.974 38.318 30.8738 38.3919 30.7999C38.4658 30.7261 38.5661 30.6846 38.6707 30.6846H131.53C131.635 30.6846 131.735 30.7261 131.809 30.7999C131.883 30.8738 131.924 30.974 131.924 31.0785Z" fill="#8E8A89"/>
<path d="M131.354 32.7716C131.354 32.8738 131.313 32.9719 131.241 33.0442C131.169 33.1165 131.07 33.1571 130.968 33.1571H39.367C39.3157 33.1582 39.2646 33.149 39.2168 33.1302C39.169 33.1113 39.1255 33.0831 39.0887 33.0472C39.052 33.0113 39.0228 32.9684 39.0029 32.9211C38.983 32.8737 38.9728 32.8229 38.9728 32.7716C38.9728 32.6671 39.0143 32.5669 39.0883 32.4931C39.1622 32.4192 39.2625 32.3777 39.367 32.3777H130.943C131.046 32.3799 131.144 32.4223 131.216 32.496C131.288 32.5696 131.329 32.6685 131.329 32.7716H131.354Z" fill="#8E8A89"/>
<path d="M130.945 34.4202C130.943 34.5233 130.901 34.6213 130.827 34.6934C130.753 34.7654 130.654 34.8058 130.551 34.8057H39.7133C39.6102 34.8058 39.5112 34.7654 39.4375 34.6934C39.3638 34.6213 39.3213 34.5233 39.3191 34.4202C39.3191 34.3158 39.3606 34.2156 39.4346 34.1417C39.5085 34.0679 39.6088 34.0264 39.7133 34.0264H130.576C130.681 34.0264 130.781 34.0679 130.855 34.1417C130.929 34.2156 130.971 34.3158 130.971 34.4202H130.945Z" fill="#8E8A89"/>
<path d="M130.71 36.0643C130.71 36.1688 130.669 36.269 130.595 36.3428C130.521 36.4167 130.42 36.4582 130.316 36.4582H39.973C39.8685 36.4582 39.7682 36.4167 39.6943 36.3428C39.6203 36.269 39.5788 36.1688 39.5788 36.0643C39.5788 36.013 39.589 35.9621 39.6089 35.9148C39.6289 35.8675 39.658 35.8246 39.6948 35.7887C39.7315 35.7528 39.775 35.7246 39.8228 35.7057C39.8706 35.6868 39.9217 35.6777 39.973 35.6788H130.316C130.367 35.6777 130.418 35.6868 130.466 35.7057C130.514 35.7246 130.557 35.7528 130.594 35.7887C130.631 35.8246 130.66 35.8675 130.68 35.9148C130.7 35.9621 130.71 36.013 130.71 36.0643Z" fill="#8E8A89"/>
<path d="M98.7062 20.6699C98.7062 20.9678 98.5878 21.2534 98.377 21.464C98.1662 21.6746 97.8803 21.7929 97.5822 21.7929H72.7022C72.4041 21.7929 72.1182 21.6746 71.9074 21.464C71.6966 21.2534 71.5782 20.9678 71.5782 20.6699C71.5782 20.3713 71.6963 20.0848 71.9069 19.8729C72.1175 19.661 72.4033 19.5408 72.7022 19.5386H97.5822C97.8811 19.5408 98.1669 19.661 98.3775 19.8729C98.5881 20.0848 98.7062 20.3713 98.7062 20.6699Z" fill="#D6D7D8"/>
<path d="M130.573 10.6124L129.986 10.2772L130.422 10.1431C130.446 10.1354 130.466 10.1191 130.478 10.0974C130.491 10.0757 130.495 10.0502 130.489 10.0258C130.482 10.0072 130.469 9.99108 130.453 9.97925C130.436 9.96742 130.417 9.96032 130.397 9.95875L129.776 10.1431L129.39 9.93361L130.12 9.71571C130.144 9.70798 130.164 9.69168 130.176 9.66999C130.189 9.6483 130.193 9.62278 130.187 9.59839C130.18 9.57979 130.167 9.56368 130.151 9.55185C130.134 9.54001 130.115 9.53292 130.095 9.53134L129.189 9.79114L127.78 9.01175L128.77 8.90281C128.793 8.89881 128.815 8.88647 128.83 8.86803C128.846 8.84958 128.854 8.82625 128.854 8.80224C128.849 8.77706 128.836 8.75438 128.816 8.73882C128.795 8.72326 128.77 8.71597 128.745 8.71844L127.629 8.83576L128.937 7.95581L129.776 8.18209C129.797 8.18155 129.816 8.17486 129.833 8.16289C129.849 8.15092 129.862 8.13423 129.869 8.11504C129.877 8.09059 129.877 8.06408 129.869 8.03962C129.849 8.03379 129.829 8.03379 129.81 8.03962L129.13 7.85525L129.499 7.61222L130.087 7.77144C130.108 7.77033 130.129 7.76242 130.145 7.74885C130.162 7.73528 130.174 7.71677 130.179 7.69602C130.187 7.67433 130.187 7.65067 130.179 7.62898C130.165 7.60824 130.144 7.59331 130.12 7.58707L129.692 7.46975L130.263 7.09263C130.279 7.07556 130.288 7.0531 130.288 7.02977C130.288 7.00645 130.279 6.98398 130.263 6.96692C130.263 6.96692 130.263 6.96692 130.187 6.96692H130.137L129.567 7.35242L129.659 6.8915C129.661 6.87937 129.661 6.86688 129.659 6.85478C129.656 6.84268 129.651 6.8312 129.644 6.82104C129.637 6.81087 129.628 6.80223 129.618 6.79561C129.607 6.789 129.596 6.78456 129.583 6.78255C129.562 6.78366 129.541 6.79158 129.525 6.80515C129.508 6.81871 129.496 6.83722 129.491 6.85797L129.365 7.49489L128.996 7.73792L129.156 6.99206C129.158 6.97994 129.158 6.96745 129.155 6.95535C129.153 6.94324 129.148 6.93176 129.141 6.9216C129.134 6.91144 129.125 6.90279 129.114 6.89618C129.104 6.88957 129.092 6.88512 129.08 6.88311C129.059 6.88423 129.038 6.89214 129.022 6.90571C129.005 6.91928 128.993 6.93779 128.988 6.95854L128.795 7.88877L127.587 8.62625L128.065 7.72954C128.071 7.71784 128.074 7.70493 128.074 7.69183C128.074 7.67873 128.071 7.66582 128.065 7.65412C128.065 7.65412 128.065 7.61222 128.023 7.60384H127.981C127.964 7.60511 127.948 7.61032 127.933 7.61905C127.919 7.62778 127.906 7.63979 127.897 7.65412L127.402 8.58435V6.90826L128.048 6.30486C128.057 6.297 128.064 6.28733 128.069 6.27649C128.074 6.26565 128.077 6.2539 128.077 6.24201C128.077 6.23012 128.074 6.21837 128.069 6.20753C128.064 6.19669 128.057 6.18702 128.048 6.17916C128.038 6.17399 128.026 6.1713 128.015 6.1713C128.003 6.1713 127.992 6.17399 127.981 6.17916C127.962 6.17277 127.941 6.17277 127.922 6.17916L127.394 6.66522V6.21268L127.847 5.78527C127.852 5.77485 127.855 5.76338 127.855 5.75175C127.855 5.74012 127.852 5.72865 127.847 5.71823C127.855 5.69667 127.855 5.67274 127.847 5.65119C127.825 5.64352 127.802 5.64352 127.78 5.65119C127.758 5.64414 127.735 5.64414 127.713 5.65119L127.386 5.96964V5.24892C127.386 5.23682 127.383 5.22483 127.379 5.21365C127.374 5.20246 127.367 5.1923 127.359 5.18374C127.35 5.17518 127.34 5.16839 127.329 5.16376C127.317 5.15912 127.305 5.15674 127.293 5.15674C127.281 5.15779 127.269 5.16123 127.259 5.16687C127.248 5.1725 127.238 5.18021 127.23 5.18956C127.223 5.19891 127.217 5.20971 127.213 5.22134C127.21 5.23296 127.208 5.24519 127.209 5.2573V5.9445L126.882 5.63443C126.861 5.62601 126.837 5.62601 126.815 5.63443C126.805 5.62926 126.793 5.62657 126.782 5.62657C126.77 5.62657 126.758 5.62926 126.748 5.63443C126.732 5.65286 126.722 5.67673 126.722 5.70147C126.722 5.72621 126.732 5.75007 126.748 5.76851L127.209 6.2043V6.64846L126.673 6.12887C126.654 6.11238 126.63 6.10326 126.605 6.10326C126.581 6.10326 126.557 6.11238 126.538 6.12887C126.529 6.13749 126.522 6.14788 126.517 6.15941C126.512 6.17094 126.509 6.18336 126.509 6.19592C126.509 6.20847 126.512 6.22089 126.517 6.23242C126.522 6.24395 126.529 6.25434 126.538 6.26296L127.201 6.91664V8.54245L126.656 7.6625C126.649 7.64777 126.639 7.63519 126.625 7.62628C126.612 7.61736 126.596 7.61248 126.58 7.61222H126.53C126.524 7.63134 126.524 7.65176 126.53 7.67088C126.522 7.69533 126.522 7.72185 126.53 7.7463L127.084 8.63463L125.75 7.95581L125.565 7.11777C125.56 7.09787 125.548 7.08045 125.531 7.06829C125.514 7.05613 125.494 7.04994 125.473 7.05072C125.461 7.05273 125.449 7.05718 125.439 7.06379C125.428 7.0704 125.419 7.07905 125.412 7.08921C125.405 7.09937 125.4 7.11085 125.398 7.12295C125.395 7.13506 125.395 7.14755 125.398 7.15967L125.549 7.86363L125.171 7.64574L125.037 7.04234C125.032 7.02159 125.02 7.00308 125.003 6.98952C124.986 6.97595 124.966 6.96803 124.945 6.96692C124.931 6.96702 124.917 6.97098 124.905 6.97838C124.893 6.98578 124.884 6.99632 124.877 7.00882C124.869 7.03038 124.869 7.05431 124.877 7.07587L124.978 7.52003L124.315 7.11777C124.301 7.11653 124.286 7.11909 124.273 7.12519C124.26 7.13129 124.248 7.14072 124.24 7.15256C124.232 7.1644 124.226 7.17823 124.225 7.1927C124.223 7.20717 124.226 7.22178 124.232 7.23509C124.232 7.23509 124.232 7.23509 124.273 7.29376L124.869 7.62898L124.441 7.75468C124.429 7.75852 124.417 7.76481 124.407 7.77321C124.396 7.7816 124.388 7.79194 124.382 7.80362C124.375 7.8153 124.371 7.82809 124.37 7.84126C124.369 7.85444 124.37 7.86773 124.374 7.88039C124.381 7.89958 124.393 7.91626 124.41 7.92823C124.426 7.94021 124.446 7.9469 124.466 7.94743L125.07 7.76306L125.465 7.97258L124.743 8.18209C124.731 8.18497 124.719 8.19036 124.709 8.19794C124.699 8.20552 124.69 8.21512 124.684 8.22613C124.678 8.23714 124.674 8.24933 124.672 8.26194C124.671 8.27455 124.672 8.28731 124.676 8.29941C124.682 8.31931 124.694 8.33673 124.711 8.34889C124.727 8.36105 124.748 8.36724 124.768 8.36646L125.666 8.10666L127.05 8.86929H125.934C125.909 8.87139 125.886 8.88291 125.869 8.90155C125.851 8.92018 125.842 8.94457 125.842 8.96985C125.842 8.9943 125.852 9.01775 125.869 9.03504C125.886 9.05232 125.91 9.06204 125.934 9.06204H126.916L125.557 9.95875L124.718 9.73247C124.697 9.73169 124.677 9.73788 124.66 9.75004C124.644 9.7622 124.631 9.77962 124.626 9.79952C124.62 9.82391 124.624 9.84943 124.637 9.87112C124.649 9.89281 124.669 9.90911 124.693 9.91684L125.381 10.1012L125.012 10.3359L124.416 10.185C124.395 10.1842 124.375 10.1904 124.358 10.2026C124.342 10.2147 124.329 10.2322 124.324 10.2521C124.315 10.2736 124.315 10.2976 124.324 10.3191C124.337 10.3425 124.357 10.3604 124.383 10.3694L124.819 10.4783L124.232 10.8722C124.211 10.881 124.194 10.897 124.184 10.9173C124.174 10.9377 124.172 10.9608 124.179 10.9825C124.185 11.0042 124.199 11.0228 124.218 11.0349C124.237 11.047 124.26 11.0517 124.282 11.0482C124.282 11.0482 124.282 11.0482 124.332 11.0482L124.903 10.6711L124.819 11.1153C124.81 11.1397 124.81 11.1662 124.819 11.1907C124.838 11.1977 124.859 11.1977 124.877 11.1907C124.897 11.1879 124.916 11.1793 124.931 11.1658C124.946 11.1524 124.956 11.1348 124.961 11.1153L125.087 10.4867L125.465 10.2353L125.305 10.9728C125.298 10.9973 125.298 11.0237 125.305 11.0482C125.324 11.0553 125.345 11.0553 125.364 11.0482C125.384 11.0454 125.403 11.0368 125.418 11.0233C125.432 11.0099 125.443 10.9923 125.448 10.9728L125.641 10.0509L127.042 9.1207L126.538 10.0509C126.53 10.0725 126.53 10.0964 126.538 10.118C126.547 10.143 126.565 10.1639 126.589 10.1766C126.606 10.177 126.623 10.1724 126.638 10.1635C126.653 10.1546 126.665 10.1417 126.673 10.1264L127.159 9.21289V10.7633L126.522 11.3583C126.512 11.3669 126.505 11.3773 126.5 11.3888C126.495 11.4004 126.493 11.4128 126.493 11.4253C126.493 11.4379 126.495 11.4503 126.5 11.4618C126.505 11.4734 126.512 11.4838 126.522 11.4924C126.543 11.5008 126.567 11.5008 126.589 11.4924C126.61 11.4994 126.634 11.4994 126.656 11.4924L127.176 11.0147V11.4505L126.731 11.8779C126.722 11.8865 126.715 11.8969 126.71 11.9084C126.705 11.9199 126.702 11.9324 126.702 11.9449C126.702 11.9575 126.705 11.9699 126.71 11.9814C126.715 11.993 126.722 12.0033 126.731 12.012C126.75 12.0285 126.774 12.0376 126.798 12.0376C126.823 12.0376 126.847 12.0285 126.866 12.012L127.193 11.7019V12.3975C127.193 12.4219 127.202 12.4454 127.22 12.4626C127.237 12.4799 127.26 12.4896 127.285 12.4896C127.298 12.4897 127.311 12.4871 127.322 12.4819C127.334 12.4768 127.345 12.4692 127.353 12.4598C127.362 12.4503 127.369 12.4391 127.373 12.4269C127.377 12.4148 127.378 12.4019 127.377 12.3891V11.7103L127.713 12.0203C127.732 12.0267 127.752 12.0267 127.771 12.0203C127.796 12.0276 127.822 12.0276 127.847 12.0203C127.855 11.9988 127.855 11.9749 127.847 11.9533C127.855 11.9316 127.855 11.9079 127.847 11.8863L127.377 11.4421V10.9979L127.922 11.5175C127.932 11.5214 127.942 11.5235 127.952 11.5235C127.962 11.5235 127.972 11.5214 127.981 11.5175C128.003 11.5259 128.027 11.5259 128.048 11.5175C128.053 11.5084 128.055 11.4983 128.055 11.4882C128.055 11.478 128.053 11.468 128.048 11.4589C128.055 11.4342 128.055 11.4081 128.048 11.3834L127.369 10.7298V9.17936L127.973 10.0845C127.973 10.0845 128.015 10.0845 128.048 10.0845H128.099C128.115 10.066 128.124 10.0421 128.124 10.0174C128.124 9.99267 128.115 9.9688 128.099 9.95037L127.511 9.05366L129.005 9.8917L129.189 10.7298C129.193 10.7505 129.205 10.7689 129.222 10.7814C129.239 10.7938 129.26 10.7993 129.281 10.7968C129.301 10.8006 129.321 10.8006 129.34 10.7968C129.348 10.7723 129.348 10.7458 129.34 10.7214L129.197 10.0342L129.575 10.2437L129.709 10.8471C129.715 10.867 129.727 10.8844 129.744 10.8966C129.76 10.9087 129.781 10.9149 129.801 10.9141C129.801 10.9141 129.843 10.9141 129.852 10.9141C129.859 10.8923 129.859 10.8689 129.852 10.8471L129.751 10.4113L130.347 10.7381H130.389C130.404 10.737 130.42 10.7317 130.433 10.7229C130.446 10.7141 130.457 10.702 130.464 10.6878C130.47 10.6762 130.473 10.6632 130.473 10.6501C130.473 10.637 130.47 10.6241 130.464 10.6124C130.464 10.6269 130.47 10.6407 130.48 10.6509C130.49 10.6612 130.504 10.6669 130.519 10.6669C130.533 10.6669 130.547 10.6612 130.557 10.6509C130.567 10.6407 130.573 10.6269 130.573 10.6124Z" fill="#95B3C4"/>
<path d="M51.5869 5.75098H41.546C40.8186 5.75098 40.229 6.34005 40.229 7.06671V10.9385C40.229 11.6651 40.8186 12.2542 41.546 12.2542H51.5869C52.3142 12.2542 52.9038 11.6651 52.9038 10.9385V7.06671C52.9038 6.34005 52.3142 5.75098 51.5869 5.75098Z" fill="#C8DEEB"/>
<path d="M51.5827 12.4321H41.5166C41.321 12.4348 41.127 12.3978 40.9462 12.3232C40.5796 12.1762 40.2806 11.8985 40.1074 11.5438C40.0215 11.363 39.9757 11.1657 39.9731 10.9656V7.11892C39.9759 6.92147 40.0217 6.727 40.1074 6.54905C40.1798 6.37218 40.2884 6.21234 40.4261 6.07974C40.5613 5.94724 40.7208 5.84196 40.8959 5.76967C41.0798 5.69575 41.2764 5.65873 41.4747 5.66072H51.5407C51.7389 5.65873 51.9356 5.69575 52.1195 5.76967C52.2934 5.84404 52.4526 5.94907 52.5893 6.07974C52.7369 6.21129 52.8567 6.37098 52.9417 6.54943C53.0267 6.72788 53.0751 6.9215 53.0842 7.11892V11.0075C53.0816 11.2033 53.0403 11.3967 52.9626 11.5765C52.8848 11.7563 52.7722 11.9189 52.6312 12.055C52.496 12.1875 52.3365 12.2928 52.1615 12.3651C51.9747 12.4248 51.7781 12.4475 51.5827 12.4321ZM52.7403 7.11892C52.7403 6.8122 52.6183 6.51804 52.4012 6.30115C52.1841 6.08426 51.8897 5.96242 51.5827 5.96242H41.5166C41.3639 5.96131 41.2125 5.99041 41.071 6.04803C40.9296 6.10566 40.801 6.19067 40.6926 6.29817C40.5843 6.40567 40.4982 6.53354 40.4395 6.6744C40.3808 6.81527 40.3506 6.96634 40.3506 7.11892V10.9739C40.3506 11.1254 40.3806 11.2754 40.4389 11.4153C40.4972 11.5551 40.5826 11.682 40.6902 11.7888C40.7978 11.8955 40.9255 11.9799 41.0659 12.0371C41.2063 12.0943 41.3566 12.1232 41.5082 12.1221H51.5743C51.7259 12.1232 51.8762 12.0943 52.0166 12.0371C52.157 11.9799 52.2847 11.8955 52.3923 11.7888C52.4999 11.682 52.5853 11.5551 52.6436 11.4153C52.7019 11.2754 52.7319 11.1254 52.7319 10.9739L52.7403 7.11892Z" fill="#8E8A89"/>
<path d="M41.8165 7.957L41.439 7.76425V6.9262L41.8165 6.59937V7.957ZM41.8165 9.3733L41.439 9.04646V8.20842L41.8165 8.04919V9.3733Z" fill="white"/>
<path d="M42.6982 7.80282L42.3124 7.97043V7.02344L42.5053 6.85583L42.6982 7.02344V7.80282ZM43.8894 9.21912L43.6965 9.38673H42.3963L42.7654 9.05989H43.7048L43.8894 9.21912ZM44.0488 8.01234L43.7048 8.16318H42.7654L42.413 8.02072L42.7737 7.83635H43.7048L44.0488 8.01234ZM43.8894 6.80555L43.7048 6.96478H42.7654L42.564 6.80555L42.7654 6.63794H43.7048L43.8894 6.80555ZM44.141 7.95367L43.7552 7.78606V7.02344L43.9481 6.85583L44.141 7.02344V7.95367ZM44.141 8.98447L43.9481 9.15208L43.7552 8.98447V8.23023L44.141 8.03748V8.98447Z" fill="white"/>
<path d="M45.0627 8.55725L44.8614 8.64106V8.14661L44.962 8.05442L45.0627 8.14661V8.55725ZM45.0627 9.18579L44.962 9.26959L44.8614 9.18579V8.68296L45.0627 8.78352V9.18579ZM45.7925 7.95386L45.5912 8.12147H45.0963L44.9956 8.03766L45.0963 7.95386H45.7925ZM45.7925 9.3953H45.0963L44.9956 9.31149L45.0963 9.22769H45.5912L45.7925 9.3953Z" fill="white"/>
<path d="M44.6367 8.01423C44.5893 8.00462 44.5467 7.97896 44.5162 7.94158C44.4856 7.9042 44.4689 7.85741 44.4689 7.80913C44.4689 7.76086 44.4856 7.71407 44.5162 7.67669C44.5467 7.63931 44.5893 7.61365 44.6367 7.60404C44.6671 7.59787 44.6985 7.59853 44.7286 7.60597C44.7588 7.61342 44.7869 7.62747 44.8109 7.64709C44.835 7.66672 44.8543 7.69144 44.8676 7.71947C44.8809 7.74749 44.8878 7.77812 44.8878 7.80913C44.8878 7.84015 44.8809 7.87078 44.8676 7.8988C44.8543 7.92683 44.835 7.95155 44.8109 7.97117C44.7869 7.9908 44.7588 8.00485 44.7286 8.01229C44.6985 8.01974 44.6671 8.0204 44.6367 8.01423ZM44.6367 7.67101C44.5989 7.67101 44.5627 7.686 44.5359 7.71269C44.5092 7.73938 44.4942 7.77558 44.4942 7.81332C44.4962 7.85041 44.5119 7.88545 44.5382 7.91172C44.5645 7.93798 44.5995 7.95362 44.6367 7.95563C44.6753 7.95569 44.7124 7.94097 44.7405 7.9145C44.7685 7.88802 44.7853 7.85181 44.7875 7.81332C44.7875 7.79391 44.7836 7.77469 44.7759 7.75685C44.7682 7.73902 44.757 7.72294 44.7429 7.70961C44.7287 7.69628 44.712 7.68598 44.6938 7.67934C44.6755 7.6727 44.6561 7.66987 44.6367 7.67101Z" fill="white"/>
<path d="M52.4045 9.64868H40.7027C40.661 9.64868 40.6272 9.68245 40.6272 9.7241V9.74925C40.6272 9.7909 40.661 9.82467 40.7027 9.82467H52.4045C52.4462 9.82467 52.48 9.7909 52.48 9.74925V9.7241C52.48 9.68245 52.4462 9.64868 52.4045 9.64868Z" fill="white"/>
<path d="M50.1644 7.8714C50.1683 7.85771 50.1683 7.84318 50.1644 7.8295C50.1644 7.8295 50.2399 7.76245 50.265 7.77921C50.2902 7.79597 50.4244 7.92168 50.5251 7.77921C50.6257 7.63675 50.6257 7.57808 50.5251 7.51942C50.4244 7.46076 50.3741 7.36857 50.2566 7.43561C50.1392 7.50266 50.156 7.65351 50.0889 7.74569H50.0134C50.0134 7.74569 49.9295 7.68703 49.9295 7.66189C49.9295 7.63675 50.0301 7.47752 49.9295 7.41047C49.8288 7.34343 49.7114 7.35181 49.6694 7.41047C49.6275 7.46914 49.5604 7.59484 49.6694 7.69541C49.7785 7.79597 49.9043 7.69541 50.0134 7.77921C50.0094 7.79575 50.0094 7.81297 50.0134 7.8295C50.0134 7.8295 49.9379 7.89654 49.9127 7.88816C49.8875 7.87978 49.7533 7.74569 49.6611 7.88816C49.5688 8.03063 49.552 8.08091 49.6107 8.13957C49.6694 8.19824 49.7701 8.2988 49.8875 8.22338C50.005 8.14795 49.9798 7.98873 50.0721 7.89654C50.0721 7.89654 50.1811 7.9552 50.1728 7.98873C50.1644 8.02225 50.0721 8.1731 50.1728 8.24014C50.2734 8.30718 50.3908 8.2988 50.4328 8.24014C50.4747 8.18148 50.5502 8.05577 50.4328 7.9552C50.3154 7.85464 50.2818 7.9552 50.1644 7.8714Z" fill="white"/>
<path d="M50.2658 8.7002H50.0054V9.43862H50.2658V8.7002Z" fill="white"/>
<path d="M50.566 8.43286H50.3479V9.43014H50.566V8.43286Z" fill="white"/>
<path d="M50.9184 8.17505H50.7422V9.43212H50.9184V8.17505Z" fill="white"/>
<path d="M51.3028 7.87109H51.0847V9.42986H51.3028V7.87109Z" fill="white"/>
<path d="M51.649 7.61133H51.4309V9.42989H51.649V7.61133Z" fill="white"/>
<path d="M46.4956 8.86083L46.3446 8.91112V8.59266L46.4201 8.54237L46.4956 8.59266V8.86083ZM46.4956 9.2631L46.4201 9.31338L46.3446 9.2631V8.94464L46.4956 9.0033V9.2631ZM47.066 8.42505L46.9066 8.53399H46.5291L46.4453 8.48371L46.5291 8.42505H47.066ZM47.066 9.3469H46.5291L46.4453 9.28824L46.5291 9.23795H46.9066L47.066 9.3469Z" fill="white"/>
<path d="M47.31 8.85108L47.1506 8.90974V8.59128L47.2345 8.541L47.31 8.59128V8.85108ZM47.31 9.26172L47.2345 9.312L47.1506 9.26172V8.94326L47.31 8.99355V9.26172ZM47.7965 8.52424L47.7127 8.57452H47.3352L47.2597 8.52424L47.3352 8.46558H47.7127L47.7965 8.52424ZM47.7965 9.36229L47.7127 9.42095H47.3352L47.2597 9.36229L47.3352 9.312H47.7127L47.7965 9.36229ZM47.8972 8.94326L47.7462 8.8846V8.59128L47.8217 8.541L47.8972 8.59128V8.94326ZM47.8972 9.29524L47.8217 9.34553L47.7462 9.29524V9.02707L47.8972 8.97679V9.29524Z" fill="white"/>
<path d="M48.2058 8.85108L48.0548 8.90974V8.59128L48.1303 8.541L48.2058 8.59128V8.85108ZM48.2058 9.26172L48.1303 9.312L48.0548 9.26172V8.94326L48.2058 8.99355V9.26172ZM48.7343 8.52424L48.6588 8.57452H48.231L48.1555 8.52424L48.231 8.46558H48.6168L48.7343 8.52424ZM48.7343 9.36229L48.6588 9.42095H48.231L48.1555 9.36229L48.231 9.312H48.6168L48.7343 9.36229ZM48.8349 8.94326L48.6839 8.8846V8.59128L48.7343 8.541L48.8098 8.59128L48.8349 8.94326ZM48.8349 9.29524L48.7594 9.34553L48.6839 9.29524V9.02707L48.8349 8.97679V9.29524Z" fill="white"/>
<path d="M49.1145 8.85108L48.9551 8.90974V8.46558L49.1145 8.57452V8.85108ZM49.1145 9.26172L48.9551 9.37067V8.94326L49.1145 8.99355V9.26172ZM49.6765 9.38743H48.9802L49.1396 9.27848H49.5171L49.6765 9.38743Z" fill="white"/>
<path d="M46.1864 6.17822H46.0522V9.73154H46.1864V6.17822Z" fill="white"/>
<path d="M48.5296 10.9378L48.3702 10.8624V10.5439L48.5296 10.4182V10.9378ZM48.5296 11.4909L48.3702 11.3568V11.03L48.5296 10.9713V11.4909Z" fill="white"/>
<path d="M49.1138 10.8702L48.9628 10.9372V10.5685L49.0383 10.5014L49.1138 10.5685V10.8702ZM49.5835 11.4233L49.508 11.482H48.9879L49.1389 11.3563H49.508L49.5835 11.4233ZM49.6506 10.954L49.508 11.0127H49.1389L48.9963 10.9624L49.1389 10.8869H49.508L49.6506 10.954ZM49.5751 10.4679L49.4996 10.5266H49.1305L49.0634 10.4679L49.1389 10.4009H49.508L49.5751 10.4679ZM49.6758 10.9205L49.5751 10.8702V10.5685V10.4679L49.6506 10.535L49.6758 10.9205ZM49.6758 11.3227L49.6003 11.3814L49.5751 11.306V11.0043L49.7261 10.9372L49.6758 11.3227Z" fill="white"/>
<path d="M49.9642 11.0153H49.813V10.7971H49.9642V11.0153ZM49.9642 11.4852H49.813V11.2586H49.9642V11.4852Z" fill="white"/>
<path d="M50.6414 10.4679L50.5575 10.5266H50.1884L50.0458 10.4009H50.5575L50.6414 10.4679ZM50.6414 11.4065L50.5575 11.4652H50.0458L50.1884 11.3395H50.5575L50.6414 11.4065ZM50.7001 10.9372L50.5575 10.9959H50.1884L50.0458 10.9372L50.1884 10.8702H50.5575L50.7001 10.9372ZM50.7001 10.9372L50.5491 10.8618V10.5685L50.6246 10.5014L50.7001 10.5685V10.9372ZM50.7001 11.3395L50.6246 11.3982L50.5827 11.306V10.9959L50.7337 10.9372L50.7001 11.3395Z" fill="white"/>
<path d="M51.1048 10.8618L50.9539 10.9372V10.5685L51.0294 10.5014L51.1048 10.5685V10.8618ZM51.1048 11.3395L51.0294 11.3982L50.9539 11.306V10.9708L51.1048 11.0294V11.3395ZM51.6417 10.954L51.4991 11.0127H51.13L50.9874 10.954L51.13 10.8786H51.4991L51.6417 10.954ZM51.6417 10.4176L51.4991 10.5433H51.13L51.0545 10.4679L51.13 10.4009L51.6417 10.4176ZM51.5746 11.4233L51.4991 11.482H51.13L51.0545 11.4233L51.13 11.3563H51.4991L51.5746 11.4233ZM51.6753 11.3395L51.5998 11.3982L51.5243 11.306V10.9959L51.6753 10.9372V11.3395Z" fill="white"/>
<path d="M42.2373 10.5366C42.2373 10.7464 42.1281 10.8219 41.9853 10.8219C41.8425 10.8219 41.7333 10.7464 41.7333 10.5366C41.7691 10.3562 41.8567 10.19 41.9853 10.0583C42.114 10.19 42.2015 10.3562 42.2373 10.5366Z" fill="white"/>
<path d="M41.5402 11.2426L41.4564 11.1672C41.5195 11.0904 41.6011 11.0309 41.6935 10.9942C41.786 10.9576 41.8862 10.945 41.9848 10.9577L42.1694 11.0163C42.266 11.0684 42.3741 11.0957 42.4839 11.0957C42.5938 11.0957 42.7018 11.0684 42.7985 11.0163L42.8572 11.1169C42.749 11.1756 42.6281 11.2072 42.5049 11.2091C42.3771 11.2023 42.2518 11.171 42.1358 11.1169L41.9597 11.0582C41.7416 11.0163 41.5402 11.2426 41.5402 11.2426Z" fill="white"/>
<path d="M41.5402 11.5349L41.4564 11.4594C41.5178 11.3807 41.5992 11.3198 41.6921 11.283C41.785 11.2462 41.8861 11.2348 41.9848 11.2499L42.1694 11.3086C42.266 11.3607 42.3741 11.3879 42.4839 11.3879C42.5938 11.3879 42.7018 11.3607 42.7985 11.3086L42.8572 11.4092C42.749 11.4678 42.6281 11.4995 42.5049 11.5013C42.3771 11.4945 42.2518 11.4632 42.1358 11.4092L41.9597 11.3505C41.88 11.3444 41.8 11.3581 41.7269 11.3903C41.6537 11.4224 41.5896 11.4721 41.5402 11.5349Z" fill="white"/>
<path d="M41.5402 11.8361L41.4564 11.7607C41.5205 11.6851 41.6022 11.6264 41.6944 11.5899C41.7865 11.5534 41.8863 11.5401 41.9848 11.5512L42.1694 11.6182C42.2667 11.6682 42.3745 11.6943 42.4839 11.6943C42.5934 11.6943 42.7012 11.6682 42.7985 11.6182L42.8572 11.7272C42.7459 11.7852 42.6221 11.8155 42.4965 11.8155C42.3709 11.8155 42.2472 11.7852 42.1358 11.7272L41.9597 11.6685C41.7416 11.6098 41.5402 11.8361 41.5402 11.8361Z" fill="white"/>
<path d="M43.8976 10.6863L43.8221 10.7534H43.2685L43.453 10.6277H43.8221L43.8976 10.6863ZM43.4279 11.5244L43.344 11.5914L43.2685 11.5244V11.1557L43.4279 11.2227V11.5244ZM43.9647 11.1389L43.8221 11.1976H43.4446L43.3104 11.1305L43.4446 11.0635H43.8137L43.9647 11.1389ZM43.9647 11.6752H43.453L43.3692 11.6166L43.453 11.5495H43.8473L43.9647 11.6752ZM43.9647 11.1221L43.8137 11.0551V10.7534L43.8892 10.6947L43.9647 10.7534V11.1221Z" fill="white"/>
<path d="M44.3006 11.0719L44.1496 11.1389V10.7702L44.2251 10.7115L44.3006 10.7702V11.0719ZM44.3006 11.5412L44.2251 11.6082L44.1496 11.5412V11.1724L44.3006 11.2395V11.5412ZM44.8374 11.1557L44.6948 11.2143H44.3258L44.1832 11.1473L44.3258 11.0802H44.6865L44.8374 11.1557ZM44.7703 10.6863L44.6948 10.7534H44.3258L44.2503 10.6863L44.3258 10.6277H44.6948L44.7703 10.6863ZM44.7703 11.6333L44.6948 11.692H44.3258L44.2503 11.6333L44.3258 11.5663H44.6948L44.7703 11.6333ZM44.871 11.1389L44.72 11.0719V10.7702L44.7955 10.7115L44.871 10.7702V11.1389ZM44.871 11.5412L44.7955 11.6082L44.72 11.5412V11.2395L44.871 11.1724V11.5412Z" fill="white"/>
</svg>
